<svg xmlns="http://www.w3.org/2000/svg" xmlns:xlink="http://www.w3.org/1999/xlink" width="500" zoomAndPan="magnify" viewBox="0 0 375 374.999991" height="500" preserveAspectRatio="xMidYMid meet" version="1.0"><defs><clipPath id="630e9c1cba"><path d="M 4.835938 4.835938 L 370.085938 4.835938 L 370.085938 370.085938 L 4.835938 370.085938 Z M 4.835938 4.835938 " clip-rule="nonzero"/></clipPath></defs><g clip-path="url(#630e9c1cba)"><path fill="#341671" d="M 187.460938 4.835938 C 184.472656 4.835938 181.484375 4.90625 178.5 5.054688 C 175.511719 5.203125 172.535156 5.421875 169.558594 5.714844 C 166.585938 6.007812 163.621094 6.371094 160.664062 6.8125 C 157.707031 7.25 154.761719 7.761719 151.832031 8.34375 C 148.898438 8.925781 145.984375 9.582031 143.085938 10.308594 C 140.1875 11.035156 137.304688 11.832031 134.445312 12.699219 C 131.585938 13.566406 128.75 14.503906 125.933594 15.511719 C 123.121094 16.515625 120.332031 17.59375 117.570312 18.734375 C 114.8125 19.878906 112.078125 21.089844 109.378906 22.367188 C 106.675781 23.648438 104.007812 24.988281 101.371094 26.398438 C 98.734375 27.808594 96.136719 29.28125 93.570312 30.816406 C 91.007812 32.355469 88.484375 33.953125 86 35.613281 C 83.511719 37.273438 81.070312 38.992188 78.671875 40.773438 C 76.269531 42.554688 73.914062 44.394531 71.605469 46.289062 C 69.292969 48.183594 67.03125 50.136719 64.816406 52.144531 C 62.601562 54.152344 60.4375 56.210938 58.324219 58.324219 C 56.210938 60.4375 54.152344 62.601562 52.144531 64.816406 C 50.136719 67.03125 48.183594 69.292969 46.289062 71.605469 C 44.394531 73.914062 42.554688 76.269531 40.773438 78.671875 C 38.992188 81.070312 37.273438 83.511719 35.613281 86 C 33.953125 88.484375 32.355469 91.007812 30.816406 93.570312 C 29.28125 96.136719 27.808594 98.734375 26.398438 101.371094 C 24.988281 104.007812 23.648438 106.675781 22.367188 109.378906 C 21.089844 112.078125 19.878906 114.8125 18.734375 117.570312 C 17.59375 120.332031 16.515625 123.121094 15.511719 125.933594 C 14.503906 128.75 13.566406 131.585938 12.699219 134.445312 C 11.832031 137.304688 11.035156 140.1875 10.308594 143.085938 C 9.582031 145.984375 8.925781 148.898438 8.34375 151.832031 C 7.761719 154.761719 7.25 157.707031 6.8125 160.664062 C 6.371094 163.621094 6.007812 166.585938 5.714844 169.558594 C 5.421875 172.535156 5.203125 175.511719 5.054688 178.5 C 4.90625 181.484375 4.835938 184.472656 4.835938 187.460938 C 4.835938 190.449219 4.90625 193.4375 5.054688 196.421875 C 5.203125 199.40625 5.421875 202.386719 5.714844 205.359375 C 6.007812 208.335938 6.371094 211.300781 6.8125 214.257812 C 7.25 217.210938 7.761719 220.15625 8.34375 223.089844 C 8.925781 226.019531 9.582031 228.933594 10.308594 231.835938 C 11.035156 234.734375 11.832031 237.613281 12.699219 240.472656 C 13.566406 243.332031 14.503906 246.171875 15.511719 248.984375 C 16.515625 251.796875 17.59375 254.585938 18.734375 257.347656 C 19.878906 260.109375 21.089844 262.839844 22.367188 265.542969 C 23.648438 268.242188 24.988281 270.914062 26.398438 273.546875 C 27.808594 276.183594 29.28125 278.785156 30.816406 281.347656 C 32.355469 283.910156 33.953125 286.4375 35.613281 288.921875 C 37.273438 291.40625 38.992188 293.847656 40.773438 296.25 C 42.554688 298.648438 44.394531 301.003906 46.289062 303.316406 C 48.183594 305.625 50.136719 307.886719 52.144531 310.101562 C 54.152344 312.316406 56.210938 314.480469 58.324219 316.59375 C 60.4375 318.707031 62.601562 320.769531 64.816406 322.777344 C 67.03125 324.78125 69.292969 326.734375 71.605469 328.628906 C 73.914062 330.527344 76.269531 332.363281 78.671875 334.144531 C 81.070312 335.925781 83.511719 337.644531 86 339.308594 C 88.484375 340.96875 91.007812 342.566406 93.570312 344.101562 C 96.136719 345.640625 98.734375 347.113281 101.371094 348.519531 C 104.007812 349.929688 106.675781 351.273438 109.378906 352.550781 C 112.078125 353.828125 114.8125 355.039062 117.570312 356.183594 C 120.332031 357.328125 123.121094 358.402344 125.933594 359.410156 C 128.75 360.417969 131.585938 361.351562 134.445312 362.222656 C 137.304688 363.089844 140.1875 363.886719 143.085938 364.613281 C 145.984375 365.339844 148.898438 365.992188 151.832031 366.574219 C 154.761719 367.160156 157.707031 367.667969 160.664062 368.109375 C 163.621094 368.546875 166.585938 368.914062 169.558594 369.207031 C 172.535156 369.5 175.511719 369.71875 178.5 369.863281 C 181.484375 370.011719 184.472656 370.085938 187.460938 370.085938 C 190.449219 370.085938 193.4375 370.011719 196.421875 369.863281 C 199.40625 369.71875 202.386719 369.5 205.359375 369.207031 C 208.335938 368.914062 211.300781 368.546875 214.257812 368.109375 C 217.210938 367.667969 220.15625 367.160156 223.089844 366.574219 C 226.019531 365.992188 228.933594 365.339844 231.835938 364.613281 C 234.734375 363.886719 237.613281 363.089844 240.472656 362.222656 C 243.332031 361.351562 246.171875 360.417969 248.984375 359.410156 C 251.796875 358.402344 254.585938 357.328125 257.347656 356.183594 C 260.109375 355.039062 262.839844 353.828125 265.542969 352.550781 C 268.242188 351.273438 270.914062 349.929688 273.546875 348.519531 C 276.183594 347.113281 278.785156 345.640625 281.347656 344.101562 C 283.910156 342.566406 286.4375 340.96875 288.921875 339.308594 C 291.40625 337.644531 293.847656 335.925781 296.25 334.144531 C 298.648438 332.363281 301.003906 330.527344 303.316406 328.628906 C 305.625 326.734375 307.886719 324.78125 310.101562 322.777344 C 312.316406 320.769531 314.480469 318.707031 316.59375 316.59375 C 318.707031 314.480469 320.769531 312.316406 322.777344 310.101562 C 324.78125 307.886719 326.734375 305.625 328.628906 303.316406 C 330.527344 301.003906 332.363281 298.648438 334.144531 296.25 C 335.925781 293.847656 337.644531 291.40625 339.308594 288.921875 C 340.96875 286.4375 342.566406 283.910156 344.101562 281.347656 C 345.640625 278.785156 347.113281 276.183594 348.519531 273.546875 C 349.929688 270.914062 351.273438 268.242188 352.550781 265.542969 C 353.828125 262.839844 355.039062 260.109375 356.183594 257.347656 C 357.328125 254.585938 358.402344 251.796875 359.410156 248.984375 C 360.417969 246.171875 361.351562 243.332031 362.222656 240.472656 C 363.089844 237.613281 363.886719 234.734375 364.613281 231.835938 C 365.339844 228.933594 365.992188 226.019531 366.574219 223.089844 C 367.160156 220.15625 367.667969 217.210938 368.109375 214.257812 C 368.546875 211.300781 368.914062 208.335938 369.207031 205.359375 C 369.5 202.386719 369.71875 199.40625 369.863281 196.421875 C 370.011719 193.433594 370.085938 190.449219 370.085938 187.460938 C 370.085938 184.472656 370.011719 181.484375 369.863281 178.5 C 369.71875 175.511719 369.5 172.535156 369.207031 169.558594 C 368.914062 166.585938 368.546875 163.621094 368.109375 160.664062 C 367.667969 157.707031 367.160156 154.761719 366.574219 151.832031 C 365.992188 148.898438 365.339844 145.984375 364.613281 143.085938 C 363.886719 140.1875 363.089844 137.304688 362.222656 134.445312 C 361.351562 131.585938 360.417969 128.75 359.410156 125.933594 C 358.402344 123.121094 357.328125 120.332031 356.183594 117.570312 C 355.039062 114.8125 353.828125 112.078125 352.550781 109.378906 C 351.273438 106.675781 349.929688 104.007812 348.519531 101.371094 C 347.113281 98.734375 345.640625 96.136719 344.101562 93.570312 C 342.566406 91.007812 340.96875 88.484375 339.308594 86 C 337.644531 83.511719 335.925781 81.070312 334.144531 78.671875 C 332.363281 76.269531 330.527344 73.914062 328.628906 71.605469 C 326.734375 69.292969 324.78125 67.03125 322.777344 64.816406 C 320.769531 62.601562 318.707031 60.4375 316.59375 58.324219 C 314.480469 56.210938 312.316406 54.152344 310.101562 52.144531 C 307.886719 50.136719 305.625 48.183594 303.316406 46.289062 C 301.003906 44.394531 298.648438 42.554688 296.25 40.773438 C 293.847656 38.992188 291.40625 37.273438 288.921875 35.613281 C 286.4375 33.953125 283.910156 32.355469 281.347656 30.816406 C 278.785156 29.28125 276.183594 27.808594 273.546875 26.398438 C 270.914062 24.988281 268.242188 23.648438 265.542969 22.367188 C 262.839844 21.089844 260.109375 19.878906 257.347656 18.734375 C 254.585938 17.59375 251.796875 16.515625 248.984375 15.511719 C 246.171875 14.503906 243.332031 13.566406 240.472656 12.699219 C 237.613281 11.832031 234.734375 11.035156 231.835938 10.308594 C 228.933594 9.582031 226.019531 8.925781 223.089844 8.34375 C 220.15625 7.761719 217.210938 7.25 214.257812 6.8125 C 211.300781 6.371094 208.335938 6.007812 205.359375 5.714844 C 202.386719 5.421875 199.40625 5.203125 196.421875 5.054688 C 193.433594 4.90625 190.449219 4.835938 187.460938 4.835938 Z M 270.683594 160.960938 L 162.335938 269.308594 C 161.175781 270.488281 159.917969 271.550781 158.5625 272.496094 C 157.207031 273.445312 155.777344 274.261719 154.273438 274.949219 C 152.769531 275.636719 151.214844 276.183594 149.613281 276.585938 C 148.007812 276.988281 146.378906 277.246094 144.730469 277.351562 L 120.863281 278.722656 C 120.359375 278.75 119.859375 278.769531 119.355469 278.769531 C 118.5625 278.777344 117.769531 278.746094 116.976562 278.671875 C 116.1875 278.597656 115.402344 278.484375 114.621094 278.328125 C 113.84375 278.171875 113.074219 277.976562 112.316406 277.742188 C 111.558594 277.507812 110.8125 277.234375 110.082031 276.921875 C 109.351562 276.613281 108.640625 276.261719 107.945312 275.875 C 107.25 275.492188 106.578125 275.070312 105.925781 274.613281 C 105.277344 274.160156 104.652344 273.671875 104.050781 273.152344 C 103.453125 272.628906 102.878906 272.078125 102.335938 271.5 C 101.792969 270.921875 101.28125 270.3125 100.800781 269.679688 C 100.320312 269.046875 99.875 268.394531 99.464844 267.714844 C 99.050781 267.035156 98.675781 266.335938 98.335938 265.617188 C 97.996094 264.898438 97.695312 264.167969 97.429688 263.417969 C 97.167969 262.667969 96.945312 261.90625 96.757812 261.132812 C 96.574219 260.363281 96.429688 259.582031 96.324219 258.792969 C 96.222656 258.007812 96.160156 257.214844 96.136719 256.421875 C 96.117188 255.628906 96.136719 254.835938 96.195312 254.042969 L 97.566406 230.1875 C 97.671875 228.535156 97.925781 226.910156 98.332031 225.304688 C 98.734375 223.703125 99.28125 222.148438 99.96875 220.644531 C 100.65625 219.140625 101.472656 217.710938 102.421875 216.355469 C 103.371094 215 104.433594 213.742188 105.609375 212.582031 L 213.964844 104.238281 C 215.210938 102.976562 216.570312 101.84375 218.039062 100.847656 C 219.507812 99.851562 221.058594 99.003906 222.691406 98.3125 C 224.324219 97.617188 226.011719 97.089844 227.75 96.722656 C 229.488281 96.359375 231.242188 96.167969 233.019531 96.148438 C 234.550781 96.132812 236.070312 96.269531 237.578125 96.554688 C 239.082031 96.84375 240.546875 97.273438 241.96875 97.851562 C 243.386719 98.429688 244.738281 99.140625 246.019531 99.984375 C 247.296875 100.828125 248.484375 101.789062 249.570312 102.867188 L 272.050781 125.355469 C 273.128906 126.445312 274.09375 127.628906 274.9375 128.90625 C 275.78125 130.1875 276.492188 131.535156 277.070312 132.957031 C 277.644531 134.375 278.078125 135.839844 278.363281 137.34375 C 278.652344 138.851562 278.785156 140.367188 278.773438 141.902344 C 278.75 143.675781 278.558594 145.433594 278.195312 147.171875 C 277.832031 148.910156 277.304688 150.59375 276.609375 152.230469 C 275.914062 153.863281 275.070312 155.414062 274.074219 156.882812 C 273.074219 158.351562 271.945312 159.710938 270.683594 160.960938 Z M 270.683594 160.960938 " fill-opacity="1" fill-rule="nonzero"/></g><path fill="#341671" d="M 117.347656 224.316406 C 116.417969 225.222656 115.675781 226.265625 115.125 227.4375 C 114.574219 228.613281 114.242188 229.847656 114.136719 231.140625 L 112.765625 255.011719 C 112.710938 255.492188 112.707031 255.976562 112.761719 256.460938 C 112.8125 256.941406 112.917969 257.414062 113.078125 257.871094 C 113.238281 258.332031 113.445312 258.765625 113.703125 259.175781 C 113.960938 259.589844 114.261719 259.964844 114.605469 260.308594 C 114.949219 260.652344 115.328125 260.953125 115.738281 261.210938 C 116.148438 261.46875 116.585938 261.679688 117.042969 261.839844 C 117.503906 261.996094 117.972656 262.105469 118.457031 262.15625 C 118.941406 262.207031 119.421875 262.207031 119.90625 262.148438 L 143.777344 260.78125 C 145.074219 260.671875 146.308594 260.34375 147.480469 259.792969 C 148.65625 259.238281 149.695312 258.5 150.605469 257.570312 L 230.03125 178.140625 L 196.78125 144.898438 Z M 117.347656 224.316406 " fill-opacity="1" fill-rule="nonzero"/><path fill="#341671" d="M 237.824219 114.605469 C 237.179688 113.988281 236.441406 113.515625 235.605469 113.195312 C 234.769531 112.871094 233.90625 112.722656 233.011719 112.75 C 231.628906 112.785156 230.304688 113.082031 229.039062 113.640625 C 227.777344 114.199219 226.664062 114.976562 225.707031 115.976562 L 208.519531 133.160156 L 241.761719 166.40625 L 258.945312 149.222656 C 259.941406 148.261719 260.71875 147.144531 261.277344 145.878906 C 261.835938 144.613281 262.132812 143.285156 262.171875 141.902344 C 262.195312 141.007812 262.046875 140.148438 261.722656 139.316406 C 261.402344 138.484375 260.933594 137.746094 260.3125 137.101562 Z M 237.824219 114.605469 " fill-opacity="1" fill-rule="nonzero"/></svg>