<svg xmlns="http://www.w3.org/2000/svg" xmlns:xlink="http://www.w3.org/1999/xlink" width="1000" zoomAndPan="magnify" viewBox="0 0 750 299.999988" height="400" preserveAspectRatio="xMidYMid meet" version="1.0"><defs><g/></defs><g fill="#ae2d68" fill-opacity="1"><g transform="translate(504.405208, 160.081804)"><g><path d="M 21.136719 0 L 21.136719 -5.550781 L 8.960938 -5.550781 L 8.960938 -12.964844 L 20.0625 -12.964844 L 20.0625 -18.476562 L 8.960938 -18.476562 L 8.960938 -23.988281 L 18.519531 -23.988281 L 18.519531 -29.542969 L 2.816406 -29.542969 L 2.816406 0 Z M 21.136719 0 "/></g></g></g><g fill="#ffffff" fill-opacity="1"><g transform="translate(531.873955, 160.081804)"><g><path d="M 15.78125 -12.214844 L 6.820312 -29.542969 L -0.238281 -29.542969 L 15.542969 0.515625 L 30.570312 -29.542969 L 24.226562 -29.542969 Z M 15.78125 -12.214844 "/></g></g></g><g fill="#ffffff" fill-opacity="1"><g transform="translate(566.961103, 160.081804)"><g><path d="M 21.136719 0 L 21.136719 -5.550781 L 8.960938 -5.550781 L 8.960938 -12.964844 L 20.0625 -12.964844 L 20.0625 -18.476562 L 8.960938 -18.476562 L 8.960938 -23.988281 L 18.519531 -23.988281 L 18.519531 -29.542969 L 2.816406 -29.542969 L 2.816406 0 Z M 21.136719 0 "/></g></g></g><g fill="#ffffff" fill-opacity="1"><g transform="translate(594.436511, 160.081804)"><g><path d="M 23.832031 -12.449219 L 2.816406 -30.097656 L 2.816406 0 L 8.960938 0 L 8.960938 -16.972656 L 29.976562 0.515625 L 29.976562 -29.542969 L 23.832031 -29.542969 Z M 23.832031 -12.449219 "/></g></g></g><g fill="#ffffff" fill-opacity="1"><g transform="translate(631.981621, 160.081804)"><g><path d="M 14.195312 0 L 14.195312 -23.988281 L 21.96875 -23.988281 L 21.96875 -29.542969 L 0.753906 -29.542969 L 0.753906 -23.988281 L 8.050781 -23.988281 L 8.050781 0 Z M 14.195312 0 "/></g></g></g><g fill="#ffffff" fill-opacity="1"><g transform="translate(659.457029, 160.081804)"><g><path d="M 16.890625 0.515625 C 25.339844 0.515625 32.15625 -6.34375 32.15625 -14.789062 C 32.15625 -23.238281 25.339844 -30.054688 16.851562 -30.054688 C 8.40625 -30.054688 1.585938 -23.238281 1.585938 -14.789062 C 1.585938 -6.34375 8.40625 0.515625 16.890625 0.515625 Z M 16.851562 -24.1875 C 21.847656 -24.1875 25.851562 -19.984375 25.851562 -14.789062 C 25.851562 -9.515625 21.886719 -5.394531 16.890625 -5.394531 C 11.816406 -5.394531 7.890625 -9.515625 7.890625 -14.789062 C 7.890625 -19.984375 11.816406 -24.1875 16.851562 -24.1875 Z M 16.851562 -24.1875 "/></g></g></g><g fill="#ffffff" fill-opacity="1"><g transform="translate(697.953612, 160.081804)"><g><path d="M 9.914062 -13.085938 C 12.769531 -12.769531 14.355469 -11.300781 14.355469 -8.921875 C 14.355469 -7.019531 12.769531 -5.394531 10.746094 -5.394531 C 9 -5.394531 7.613281 -5.828125 6.265625 -7.535156 L 1.191406 -3.804688 C 4.003906 -0.714844 7.375 0.515625 10.746094 0.515625 C 15.941406 0.515625 20.738281 -3.609375 20.738281 -9.359375 C 20.738281 -15.066406 16.574219 -18.476562 11.539062 -18.796875 C 8.40625 -18.992188 7.414062 -20.222656 7.414062 -21.570312 C 7.414062 -23.195312 8.523438 -24.1875 10.152344 -24.1875 C 11.183594 -24.1875 12.492188 -23.554688 13.285156 -22.722656 L 18.121094 -26.25 C 15.859375 -28.945312 13.085938 -30.054688 10.152344 -30.054688 C 6.066406 -30.054688 1.46875 -26.527344 1.46875 -21.53125 C 1.46875 -16.890625 4.796875 -13.679688 9.914062 -13.085938 Z M 9.914062 -13.085938 "/></g></g></g></svg>