<svg xmlns="http://www.w3.org/2000/svg" xmlns:xlink="http://www.w3.org/1999/xlink" width="500" zoomAndPan="magnify" viewBox="0 0 375 374.999991" height="500" preserveAspectRatio="xMidYMid meet" version="1.0"><defs><clipPath id="1b5fa19aa2"><path d="M 20.679688 35.441406 L 354.503906 35.441406 L 354.503906 80 L 20.679688 80 Z M 20.679688 35.441406 " clip-rule="nonzero"/></clipPath><clipPath id="4ab5df5719"><path d="M 20.679688 165 L 354.503906 165 L 354.503906 210 L 20.679688 210 Z M 20.679688 165 " clip-rule="nonzero"/></clipPath><clipPath id="b3fa556429"><path d="M 20.679688 294 L 354.503906 294 L 354.503906 339.117188 L 20.679688 339.117188 Z M 20.679688 294 " clip-rule="nonzero"/></clipPath></defs><g clip-path="url(#1b5fa19aa2)"><path fill="#ffffff" d="M 354.503906 79.890625 L 20.679688 79.890625 L 20.679688 35.453125 L 354.503906 35.453125 L 354.503906 79.890625 " fill-opacity="1" fill-rule="nonzero"/></g><g clip-path="url(#4ab5df5719)"><path fill="#ffffff" d="M 354.503906 209.503906 L 20.679688 209.503906 L 20.679688 165.066406 L 354.503906 165.066406 L 354.503906 209.503906 " fill-opacity="1" fill-rule="nonzero"/></g><g clip-path="url(#b3fa556429)"><path fill="#ffffff" d="M 354.503906 339.117188 L 20.679688 339.117188 L 20.679688 294.679688 L 354.503906 294.679688 L 354.503906 339.117188 " fill-opacity="1" fill-rule="nonzero"/></g></svg>