<svg xmlns="http://www.w3.org/2000/svg" width="1000" viewBox="0 0 750 300" height="400" version="1.0"><defs><clipPath id="a"><path d="M624 0h126v300H624Zm0 0"/></clipPath><clipPath id="b"><path d="m463.996 55.39 488.285-326.917L1297.09 243.48 808.805 570.398Zm0 0"/></clipPath><clipPath id="c"><path d="m403.918 67.813 534.441-357.82 357.817 534.44-534.442 357.82Zm0 0"/></clipPath><clipPath id="d"><path d="M709 272.453h31.73V300H709Zm0 0"/></clipPath><clipPath id="e"><path d="M0 0h176v300H0Zm0 0"/></clipPath><clipPath id="f"><path d="M-341.742 644.078-627.61-61.457 21.625-324.512l285.863 705.54Zm0 0"/></clipPath><clipPath id="g"><path d="M-323.926 688.059-627.53-61.27l807.023-326.988 303.606 749.332Zm0 0"/></clipPath><clipPath id="h"><path d="M0 0h112v264H0Zm0 0"/></clipPath><clipPath id="i"><path d="m-269.848 246.262 30.102-335.403 365.281 32.782-30.101 335.402Zm0 0"/></clipPath><clipPath id="j"><path d="m-272.777 278.906 33.05-368.27 368.27 33.052-33.05 368.269Zm0 0"/></clipPath><clipPath id="k"><path d="M355 82.508h62v12.75h-62Zm0 0"/></clipPath><clipPath id="l"><path d="M166.195 0h90v30h-90Zm0 0"/></clipPath><clipPath id="m"><path d="M211.195-60c-24.851 0-45 20.148-45 45s20.149 45 45 45c24.852 0 45-20.148 45-45s-20.148-45-45-45"/></clipPath><clipPath id="n"><path d="M488.418 270h90v30h-90Zm0 0"/></clipPath><clipPath id="o"><path d="M533.418 270c-24.852 0-45 20.148-45 45s20.148 45 45 45c24.855 0 45-20.148 45-45s-20.145-45-45-45"/></clipPath></defs><path fill="#fff" d="M-75-30h900v360H-75z"/><path fill="#fff" d="M-75-30h900v360H-75z"/><path fill="#341671" d="M-75-30h900v360H-75z"/><path fill="#280659" d="M323.98 138.61c4.446-.051 8.891.273 13.282.976 6.773 1.031 13.656 1.031 20.433.055 6.23-.977 12.14-2.98 17.938-5.368 4.23-1.734 6.992-4.933 8.836-8.89 2.332-5.043 4.445-10.137 6.504-15.29 1.898-4.663 3.359-9.488 5.91-13.823a41.63 41.63 0 0 1 14.469-14.965c4.445-2.657 8.78-5.422 13.226-8.133 3.2-1.95 6.774-3.035 10.406-3.793 8.891-1.844 17.668-1.844 26.504.648a191.364 191.364 0 0 1 30.352 11.387c7.265 3.469 13.39 8.566 19.082 14.203 3.14 3.04 5.906 6.453 8.183 10.195 2.547 4.227 4.118 9 4.446 13.934.379 5.313.539 10.57-1.031 15.719-3.036 10.031-8.727 18.11-18.211 22.879-3.579 1.844-7.536 3.094-11.438 4.23a83.307 83.307 0 0 0-24.117 11.602c-5.586 3.851-10.192 8.785-14.692 13.879-4.878 5.586-9.593 11.277-14.742 16.59-7.425 7.644-15.554 14.53-24.933 19.68-5.364 2.929-10.895 5.366-16.91 6.398-10.461 1.789-20.16 0-28.618-6.723-4.77-3.742-9.324-7.7-13.984-11.492-4.172-3.473-8.348-6.887-13.277-9.274-5.532-2.816-11.707-4.117-17.887-3.847-4.664.27-9.324.758-13.93 1.136-5.148.383-10.3.383-15.394-.757-9.051-1.953-14.473-7.7-17.02-16.371-2.277-7.973-1.137-15.723 1.844-23.262a36.038 36.038 0 0 1 6.07-10.082c3.524-4.067 8.074-6.399 13.117-8.024 5.582-1.789 11.329-2.496 17.13-2.875Zm0 0"/><g clip-path="url(#a)"><g clip-path="url(#b)"><g clip-path="url(#c)"><path fill="#280659" d="M647.953 200.402c110.192-169.75-83.39-153.457-3.094-267.746 80.297-114.285 228.95-65.203 299.02 80.614 45.89 95.593 345.516 121.152 225.785 283.824-119.73 162.672-226.164 30.52-344.367 81.949-140.695 61.07-234.29-90.977-177.344-178.64Zm0 0"/></g></g></g><g clip-path="url(#d)"><path fill="#341671" d="M740.516 289.043c-.63-3.484-2.461-6.54-4.559-9.254-1.852-2.394-4.047-4.535-6.7-5.898-1.284-.664-2.734-1.27-4.167-1.352-1.43-.086-2.871.215-4.18.82a9.165 9.165 0 0 0-3.45 2.746c-1.03 1.34-1.605 2.95-2.206 4.543-1.363 3.614-3.453 6.852-4.844 10.465-1.23 3.2-1.832 6.84-.574 10.149 1.203 3.156 4.008 4.968 7.09 5.582 3.527.691 7.172-.063 10.453-1.492 1.648-.711 3.223-1.598 4.754-2.555 1.515-.95 3.039-1.918 4.453-3.024 1.285-.996 2.41-2.175 3.117-3.695.672-1.445.996-3.066 1.012-4.676a13.803 13.803 0 0 0-.2-2.359"/></g><g clip-path="url(#e)"><g clip-path="url(#f)"><g clip-path="url(#g)"><path fill="#280659" d="M-439.7 250.156C-453.374 99.09-299.464 52.2-270.112-21.414c29.351-73.61 93.84-222.695 282.328-241.336 209.336-20.707 97.437 234.98 144.48 389.273C245.156 416.496 8.68 553.293-138.69 494.672-286.062 436.05-421.988 445.039-439.7 250.156Zm0 0"/></g></g></g><g clip-path="url(#h)"><g clip-path="url(#i)"><g clip-path="url(#j)"><path fill="#341671" d="M-125.32 217.672c-36.11-110.602-98.754-18.145-120.856-95.34-22.105-77.195 53.547-125.945 144.07-104.605 59.329 14.011 179-110.75 208.497 1.562 29.492 112.309-68.055 112.168-87.758 183.606-23.512 84.984-125.32 71.91-143.953 14.777Zm0 0"/></g></g></g><g clip-path="url(#k)"><path fill="#ae2d68" d="M355.695 95.258c-.312-.18-.43-.477-.441-.832-.031-.906-.067-1.809-.113-2.715-.082-1.856-.047-3.711-.012-5.566a.591.591 0 0 1 .277-.536 7.328 7.328 0 0 1 3.438-1.21c1.39-.122 2.785-.239 4.18-.43.73-.106 1.472-.13 2.214-.192 1.371-.105 2.742-.21 4.11-.332.859-.07 1.718-.203 2.578-.261a25.917 25.917 0 0 1 2.336-.07c.883.011 1.761.07 2.633.156.511.046 1.023.199 1.535.296.96.188 1.949.297 2.925.309 1.274.012 2.563.023 3.84.012.477 0 .965-.047 1.453-.059 1.336-.023 2.668-.05 4.004-.062 2.032 0 4.063-.2 6.059-.606a21.725 21.725 0 0 1 3.508-.367c1.136-.047 2.277-.133 3.414-.203a19.674 19.674 0 0 1 3.11 0c.722.07 1.452.094 2.16.203 1.07.164 2.148.152 3.226.203.941.035 1.894.129 2.824.262.29.023.567.035.856.023.117 0 .246-.023.363-.023.406-.028.66.222.66.64 0 1.368.023 2.735-.023 4.102-.036 1.121-.141 2.238-.207 3.355a.482.482 0 0 1-.235.368c-.36.261-.765.43-1.207.476-.082.012-.164.012-.254.012-.883-.023-1.73.156-2.59.348a14.575 14.575 0 0 1-3.726.379c-1.184-.047-2.367-.118-3.567-.157-.937-.035-1.89-.023-2.843-.035-1.45-.012-2.914 0-4.364-.047-.941-.023-1.894-.117-2.832-.203a17.852 17.852 0 0 0-3.449.012c-.883.097-1.777.168-2.66.285-.914.133-1.832.324-2.738.5-1.348.262-2.696.559-4.04.785-1.058.18-2.113.285-3.183.383-3.016.273-6.047.176-9.078.164-.996 0-2.008-.059-3.004-.035-1.21.035-2.418.133-3.613.191-1.067.047-2.137.082-3.203.13-1.047.038-2.079.073-3.114.132a5.768 5.768 0 0 0-.812.168Zm0 0"/></g><g clip-path="url(#l)"><g clip-path="url(#m)"><path fill="#ae2d68" d="M166.195-60h90v90h-90Zm0 0"/></g></g><g clip-path="url(#n)"><g clip-path="url(#o)"><path fill="#ae2d68" d="M488.418 270h90v90h-90Zm0 0"/></g></g></svg>