<svg xmlns="http://www.w3.org/2000/svg" xmlns:xlink="http://www.w3.org/1999/xlink" width="1000" zoomAndPan="magnify" viewBox="0 0 750 299.999988" height="400" preserveAspectRatio="xMidYMid meet" version="1.0"><defs><g/></defs><path fill="#ffffff" d="M 263.578125 142.816406 L 495.375 142.816406 L 495.375 146.566406 L 263.578125 146.566406 Z M 263.578125 142.816406 " fill-opacity="1" fill-rule="nonzero"/><g fill="#ffffff" fill-opacity="1"><g transform="translate(263.577254, 140.566417)"><g><path d="M 36.300781 -18.261719 L 19.160156 -18.261719 L 19.160156 -12.070312 L 28.226562 -12.070312 C 26.742188 -8.167969 23.019531 -6.101562 18.980469 -6.101562 C 13.371094 -6.101562 8.929688 -10.8125 8.929688 -16.691406 C 8.929688 -22.617188 13.371094 -27.371094 18.980469 -27.371094 C 22.929688 -27.371094 26.386719 -25.128906 28.136719 -21.851562 L 33.699219 -25.890625 C 30.691406 -30.78125 25.171875 -34.011719 18.9375 -34.011719 C 9.421875 -34.011719 1.792969 -26.25 1.792969 -16.691406 C 1.792969 -7.132812 9.421875 0.582031 18.980469 0.582031 C 28.582031 0.582031 36.300781 -7.359375 36.300781 -17.230469 Z M 36.300781 -18.261719 "/></g></g></g><g fill="#ffffff" fill-opacity="1"><g transform="translate(310.557662, 140.566417)"><g><path d="M 23.917969 0 L 23.917969 -6.28125 L 10.140625 -6.28125 L 10.140625 -14.671875 L 22.707031 -14.671875 L 22.707031 -20.910156 L 10.140625 -20.910156 L 10.140625 -27.148438 L 20.957031 -27.148438 L 20.957031 -33.429688 L 3.1875 -33.429688 L 3.1875 0 Z M 23.917969 0 "/></g></g></g><g fill="#ffffff" fill-opacity="1"><g transform="translate(345.243408, 140.566417)"><g><path d="M 23.917969 0 L 23.917969 -6.28125 L 10.140625 -6.28125 L 10.140625 -14.671875 L 22.707031 -14.671875 L 22.707031 -20.910156 L 10.140625 -20.910156 L 10.140625 -27.148438 L 20.957031 -27.148438 L 20.957031 -33.429688 L 3.1875 -33.429688 L 3.1875 0 Z M 23.917969 0 "/></g></g></g><g fill="#ffffff" fill-opacity="1"><g transform="translate(379.929154, 140.566417)"><g><path d="M 26.96875 -14.089844 L 3.1875 -34.058594 L 3.1875 0 L 10.140625 0 L 10.140625 -19.207031 L 33.921875 0.582031 L 33.921875 -33.429688 L 26.96875 -33.429688 Z M 26.96875 -14.089844 "/></g></g></g><g fill="#ffffff" fill-opacity="1"><g transform="translate(426.01215, 140.566417)"><g><path d="M 16.0625 0 L 16.0625 -27.148438 L 24.859375 -27.148438 L 24.859375 -33.429688 L 0.851562 -33.429688 L 0.851562 -27.148438 L 9.109375 -27.148438 L 9.109375 0 Z M 16.0625 0 "/></g></g></g><g fill="#ffffff" fill-opacity="1"><g transform="translate(460.697896, 140.566417)"><g><path d="M 23.917969 0 L 23.917969 -6.28125 L 10.140625 -6.28125 L 10.140625 -14.671875 L 22.707031 -14.671875 L 22.707031 -20.910156 L 10.140625 -20.910156 L 10.140625 -27.148438 L 20.957031 -27.148438 L 20.957031 -33.429688 L 3.1875 -33.429688 L 3.1875 0 Z M 23.917969 0 "/></g></g></g><g fill="#ffffff" fill-opacity="1"><g transform="translate(244.329549, 168.636231)"><g><path d="M 12.105469 -2.804688 L 12.105469 -6.082031 C 12.105469 -6.511719 11.925781 -6.808594 11.359375 -6.808594 L 7.199219 -6.808594 C 6.375 -6.808594 6.277344 -5.511719 7.199219 -5.511719 L 10.730469 -5.511719 L 10.730469 -2.902344 C 9.867188 -1.746094 8.355469 -1.117188 6.90625 -1.136719 C 4.375 -1.195312 2.136719 -3.511719 2.097656 -6.277344 C 2.097656 -9.632812 5.082031 -11.378906 7.179688 -11.378906 C 8.394531 -11.378906 9.691406 -10.886719 10.535156 -9.90625 C 11.140625 -9.199219 12.144531 -10.140625 11.554688 -10.828125 C 10.476562 -12.085938 8.652344 -12.671875 6.945312 -12.671875 C 4.394531 -12.671875 0.6875 -10.59375 0.6875 -6.335938 C 0.609375 -2.628906 3.511719 0.195312 6.886719 0.195312 C 8.789062 0.195312 10.730469 -0.628906 11.886719 -2.15625 C 12.066406 -2.394531 12.105469 -2.589844 12.105469 -2.804688 Z M 12.105469 -2.804688 "/></g></g></g><g fill="#ffffff" fill-opacity="1"><g transform="translate(260.905998, 168.636231)"><g><path d="M 2.921875 -4.355469 L 6.730469 -4.355469 L 10.515625 -0.253906 C 10.671875 -0.078125 10.867188 0 11.042969 0 C 11.574219 0 12.042969 -0.648438 11.496094 -1.195312 L 8.496094 -4.433594 C 10.90625 -4.84375 11.984375 -6.277344 11.984375 -8.257812 C 11.984375 -10.554688 10.257812 -12.476562 6.867188 -12.476562 L 2.214844 -12.476562 C 1.785156 -12.476562 1.492188 -12.203125 1.492188 -11.789062 L 1.492188 -0.667969 C 1.492188 -0.234375 1.84375 0 2.195312 0 C 2.570312 0 2.921875 -0.234375 2.921875 -0.6875 Z M 2.921875 -5.589844 L 2.921875 -11.164062 L 6.886719 -11.164062 C 9.160156 -11.164062 10.515625 -9.867188 10.535156 -8.179688 C 10.535156 -6.75 9.417969 -5.589844 6.886719 -5.589844 Z M 2.921875 -5.589844 "/></g></g></g><g fill="#ffffff" fill-opacity="1"><g transform="translate(276.540818, 168.636231)"><g><path d="M 11.554688 -11.945312 L 11.554688 -5.472656 C 11.554688 -2.648438 9.398438 -1.214844 7.238281 -1.214844 C 5.082031 -1.214844 2.921875 -2.648438 2.921875 -5.472656 L 2.921875 -12.003906 C 2.921875 -12.457031 2.550781 -12.671875 2.175781 -12.671875 C 1.824219 -12.671875 1.453125 -12.457031 1.453125 -12.023438 L 1.453125 -5.472656 C 1.453125 -1.707031 4.375 0.195312 7.238281 0.195312 C 10.101562 0.195312 13.027344 -1.707031 13.027344 -5.472656 L 13.027344 -11.964844 C 13.027344 -12.4375 12.652344 -12.671875 12.300781 -12.671875 C 11.925781 -12.671875 11.554688 -12.4375 11.554688 -11.945312 Z M 11.554688 -11.945312 "/></g></g></g><g fill="#ffffff" fill-opacity="1"><g transform="translate(294.176593, 168.636231)"><g><path d="M 2.902344 -3.667969 L 6.414062 -3.667969 C 9.847656 -3.667969 11.457031 -5.609375 11.457031 -7.964844 C 11.457031 -10.21875 9.867188 -12.476562 6.472656 -12.476562 L 2.214844 -12.476562 C 1.824219 -12.476562 1.492188 -12.203125 1.492188 -11.789062 L 1.492188 -0.648438 C 1.492188 -0.214844 1.84375 0 2.195312 0 C 2.550781 0 2.902344 -0.214844 2.902344 -0.667969 Z M 2.902344 -4.945312 L 2.902344 -11.203125 L 6.492188 -11.203125 C 8.769531 -11.203125 10.0625 -9.574219 10.0625 -7.964844 C 10.0625 -6.472656 9.023438 -4.945312 6.414062 -4.945312 Z M 2.902344 -4.945312 "/></g></g></g><g fill="#ffffff" fill-opacity="1"><g transform="translate(309.477926, 168.636231)"><g><path d="M 7.082031 0.195312 C 10.417969 0.195312 13.359375 -2.375 13.359375 -6.453125 C 13.359375 -10.867188 9.554688 -12.671875 6.925781 -12.671875 C 4.335938 -12.671875 0.726562 -10.847656 0.726562 -6.453125 C 0.726562 -2.296875 3.550781 0.195312 7.082031 0.195312 Z M 2.195312 -6.394531 C 2.195312 -10.082031 4.964844 -11.359375 6.964844 -11.359375 C 8.984375 -11.359375 11.90625 -9.984375 11.90625 -6.394531 C 11.90625 -3.097656 9.730469 -1.136719 7.082031 -1.136719 C 4.316406 -1.136719 2.195312 -3.179688 2.195312 -6.394531 Z M 2.195312 -6.394531 "/></g></g></g><g fill="#ffffff" fill-opacity="1"><g transform="translate(326.839051, 168.636231)"><g/></g></g><g fill="#ffffff" fill-opacity="1"><g transform="translate(334.940912, 168.636231)"><g><path d="M 1.667969 0 L 5.945312 0 C 9.847656 0 11.789062 -3.117188 11.789062 -6.238281 C 11.789062 -9.355469 9.847656 -12.476562 5.945312 -12.476562 L 1.667969 -12.476562 C 1.175781 -12.476562 0.765625 -12.105469 0.765625 -11.652344 L 0.765625 -0.84375 C 0.765625 -0.390625 1.175781 0 1.667969 0 Z M 2.175781 -1.273438 L 2.175781 -11.222656 L 5.945312 -11.222656 C 8.886719 -11.222656 10.359375 -8.710938 10.359375 -6.238281 C 10.359375 -3.765625 8.886719 -1.273438 5.945312 -1.273438 Z M 2.175781 -1.273438 "/></g></g></g><g fill="#ffffff" fill-opacity="1"><g transform="translate(350.575736, 168.636231)"><g><path d="M 2.902344 -1.292969 L 2.902344 -5.550781 L 10.28125 -5.550781 C 11.101562 -5.550781 11.0625 -6.808594 10.28125 -6.808594 L 2.902344 -6.808594 L 2.902344 -11.222656 L 10.652344 -11.222656 C 11.476562 -11.222656 11.515625 -12.476562 10.671875 -12.476562 L 2.394531 -12.476562 C 1.84375 -12.476562 1.492188 -12.085938 1.492188 -11.632812 L 1.492188 -0.863281 C 1.492188 -0.390625 1.84375 0 2.394531 0 L 10.652344 0 C 11.59375 0 11.476562 -1.292969 10.652344 -1.292969 Z M 2.902344 -1.292969 "/></g></g></g><g fill="#ffffff" fill-opacity="1"><g transform="translate(365.857452, 168.636231)"><g/></g></g><g fill="#ffffff" fill-opacity="1"><g transform="translate(373.959313, 168.636231)"><g><path d="M 2.902344 -1.292969 L 2.902344 -5.550781 L 10.28125 -5.550781 C 11.101562 -5.550781 11.0625 -6.808594 10.28125 -6.808594 L 2.902344 -6.808594 L 2.902344 -11.222656 L 10.652344 -11.222656 C 11.476562 -11.222656 11.515625 -12.476562 10.671875 -12.476562 L 2.394531 -12.476562 C 1.84375 -12.476562 1.492188 -12.085938 1.492188 -11.632812 L 1.492188 -0.863281 C 1.492188 -0.390625 1.84375 0 2.394531 0 L 10.652344 0 C 11.59375 0 11.476562 -1.292969 10.652344 -1.292969 Z M 2.902344 -1.292969 "/></g></g></g><g fill="#ffffff" fill-opacity="1"><g transform="translate(389.241029, 168.636231)"><g><path d="M 0.429688 -2.746094 C 1.078125 -0.390625 4.140625 0.195312 6.140625 0.195312 C 8.554688 0.195312 11.90625 -0.628906 11.90625 -3.628906 C 11.90625 -6.570312 9.023438 -6.710938 6.335938 -6.945312 C 4.0625 -7.121094 2.097656 -7.296875 2.097656 -9.003906 C 2.097656 -10.789062 4.648438 -11.222656 5.964844 -11.222656 C 7.375 -11.222656 9.476562 -11.0625 10.0625 -9.574219 C 10.359375 -8.90625 11.691406 -9.257812 11.398438 -10.042969 C 10.574219 -12.28125 8.003906 -12.671875 5.945312 -12.671875 C 3.550781 -12.671875 0.570312 -11.613281 0.570312 -9.023438 C 0.570312 -6.101562 3.472656 -5.847656 6.179688 -5.628906 C 8.335938 -5.453125 10.398438 -5.316406 10.398438 -3.609375 C 10.398438 -1.628906 7.808594 -1.214844 6.140625 -1.214844 C 4.570312 -1.214844 2.394531 -1.472656 1.882812 -3.097656 C 1.726562 -3.902344 0.195312 -3.609375 0.429688 -2.746094 Z M 0.429688 -2.746094 "/></g></g></g><g fill="#ffffff" fill-opacity="1"><g transform="translate(404.660064, 168.636231)"><g><path d="M 10.632812 -12.476562 L 0.472656 -12.476562 C -0.453125 -12.476562 -0.453125 -11.121094 0.472656 -11.121094 L 4.824219 -11.121094 L 4.824219 -0.726562 C 4.824219 -0.234375 5.199219 0 5.53125 0 C 5.867188 0 6.277344 -0.234375 6.277344 -0.726562 L 6.257812 -11.121094 L 10.632812 -11.121094 C 11.59375 -11.121094 11.59375 -12.476562 10.632812 -12.476562 Z M 10.632812 -12.476562 "/></g></g></g><g fill="#ffffff" fill-opacity="1"><g transform="translate(418.960924, 168.636231)"><g><path d="M 11.554688 -11.945312 L 11.554688 -5.472656 C 11.554688 -2.648438 9.398438 -1.214844 7.238281 -1.214844 C 5.082031 -1.214844 2.921875 -2.648438 2.921875 -5.472656 L 2.921875 -12.003906 C 2.921875 -12.457031 2.550781 -12.671875 2.175781 -12.671875 C 1.824219 -12.671875 1.453125 -12.457031 1.453125 -12.023438 L 1.453125 -5.472656 C 1.453125 -1.707031 4.375 0.195312 7.238281 0.195312 C 10.101562 0.195312 13.027344 -1.707031 13.027344 -5.472656 L 13.027344 -11.964844 C 13.027344 -12.4375 12.652344 -12.671875 12.300781 -12.671875 C 11.925781 -12.671875 11.554688 -12.4375 11.554688 -11.945312 Z M 11.554688 -11.945312 "/></g></g></g><g fill="#ffffff" fill-opacity="1"><g transform="translate(436.596702, 168.636231)"><g><path d="M 1.667969 0 L 5.945312 0 C 9.847656 0 11.789062 -3.117188 11.789062 -6.238281 C 11.789062 -9.355469 9.847656 -12.476562 5.945312 -12.476562 L 1.667969 -12.476562 C 1.175781 -12.476562 0.765625 -12.105469 0.765625 -11.652344 L 0.765625 -0.84375 C 0.765625 -0.390625 1.175781 0 1.667969 0 Z M 2.175781 -1.273438 L 2.175781 -11.222656 L 5.945312 -11.222656 C 8.886719 -11.222656 10.359375 -8.710938 10.359375 -6.238281 C 10.359375 -3.765625 8.886719 -1.273438 5.945312 -1.273438 Z M 2.175781 -1.273438 "/></g></g></g><g fill="#ffffff" fill-opacity="1"><g transform="translate(452.231526, 168.636231)"><g><path d="M 7.082031 0.195312 C 10.417969 0.195312 13.359375 -2.375 13.359375 -6.453125 C 13.359375 -10.867188 9.554688 -12.671875 6.925781 -12.671875 C 4.335938 -12.671875 0.726562 -10.847656 0.726562 -6.453125 C 0.726562 -2.296875 3.550781 0.195312 7.082031 0.195312 Z M 2.195312 -6.394531 C 2.195312 -10.082031 4.964844 -11.359375 6.964844 -11.359375 C 8.984375 -11.359375 11.90625 -9.984375 11.90625 -6.394531 C 11.90625 -3.097656 9.730469 -1.136719 7.082031 -1.136719 C 4.316406 -1.136719 2.195312 -3.179688 2.195312 -6.394531 Z M 2.195312 -6.394531 "/></g></g></g><g fill="#ffffff" fill-opacity="1"><g transform="translate(469.592651, 168.636231)"><g><path d="M 0.429688 -2.746094 C 1.078125 -0.390625 4.140625 0.195312 6.140625 0.195312 C 8.554688 0.195312 11.90625 -0.628906 11.90625 -3.628906 C 11.90625 -6.570312 9.023438 -6.710938 6.335938 -6.945312 C 4.0625 -7.121094 2.097656 -7.296875 2.097656 -9.003906 C 2.097656 -10.789062 4.648438 -11.222656 5.964844 -11.222656 C 7.375 -11.222656 9.476562 -11.0625 10.0625 -9.574219 C 10.359375 -8.90625 11.691406 -9.257812 11.398438 -10.042969 C 10.574219 -12.28125 8.003906 -12.671875 5.945312 -12.671875 C 3.550781 -12.671875 0.570312 -11.613281 0.570312 -9.023438 C 0.570312 -6.101562 3.472656 -5.847656 6.179688 -5.628906 C 8.335938 -5.453125 10.398438 -5.316406 10.398438 -3.609375 C 10.398438 -1.628906 7.808594 -1.214844 6.140625 -1.214844 C 4.570312 -1.214844 2.394531 -1.472656 1.882812 -3.097656 C 1.726562 -3.902344 0.195312 -3.609375 0.429688 -2.746094 Z M 0.429688 -2.746094 "/></g></g></g><g fill="#ffffff" fill-opacity="1"><g transform="translate(485.011686, 168.636231)"><g/></g></g><g fill="#ffffff" fill-opacity="1"><g transform="translate(493.113547, 168.636231)"><g><path d="M 2.902344 -1.292969 L 2.902344 -5.550781 L 10.28125 -5.550781 C 11.101562 -5.550781 11.0625 -6.808594 10.28125 -6.808594 L 2.902344 -6.808594 L 2.902344 -11.222656 L 10.652344 -11.222656 C 11.476562 -11.222656 11.515625 -12.476562 10.671875 -12.476562 L 2.394531 -12.476562 C 1.84375 -12.476562 1.492188 -12.085938 1.492188 -11.632812 L 1.492188 -0.863281 C 1.492188 -0.390625 1.84375 0 2.394531 0 L 10.652344 0 C 11.59375 0 11.476562 -1.292969 10.652344 -1.292969 Z M 2.902344 -1.292969 "/></g></g></g><g fill="#ffffff" fill-opacity="1"><g transform="translate(270.659389, 190.215052)"><g><path d="M 2.902344 -1.292969 L 2.902344 -5.550781 L 10.28125 -5.550781 C 11.101562 -5.550781 11.0625 -6.808594 10.28125 -6.808594 L 2.902344 -6.808594 L 2.902344 -11.222656 L 10.652344 -11.222656 C 11.476562 -11.222656 11.515625 -12.476562 10.671875 -12.476562 L 2.394531 -12.476562 C 1.84375 -12.476562 1.492188 -12.085938 1.492188 -11.632812 L 1.492188 -0.863281 C 1.492188 -0.390625 1.84375 0 2.394531 0 L 10.652344 0 C 11.59375 0 11.476562 -1.292969 10.652344 -1.292969 Z M 2.902344 -1.292969 "/></g></g></g><g fill="#ffffff" fill-opacity="1"><g transform="translate(285.941102, 190.215052)"><g><path d="M 10.339844 -11.847656 L 10.339844 -5.0625 L 10.535156 -2.097656 L 2.980469 -12.023438 C 2.785156 -12.320312 2.472656 -12.476562 2.175781 -12.476562 C 1.765625 -12.476562 1.394531 -12.183594 1.394531 -11.613281 L 1.394531 -0.726562 C 1.394531 -0.234375 1.765625 0 2.136719 0 C 2.511719 0 2.882812 -0.234375 2.882812 -0.726562 L 2.882812 -7.472656 L 2.726562 -10.179688 L 10.0625 -0.453125 C 10.238281 -0.15625 10.59375 0 10.925781 0 C 11.378906 0 11.828125 -0.273438 11.828125 -0.84375 L 11.828125 -11.847656 C 11.828125 -12.28125 11.457031 -12.476562 11.101562 -12.476562 C 10.710938 -12.476562 10.339844 -12.261719 10.339844 -11.847656 Z M 10.339844 -11.847656 "/></g></g></g><g fill="#ffffff" fill-opacity="1"><g transform="translate(302.242912, 190.215052)"><g><path d="M 0.429688 -2.746094 C 1.078125 -0.390625 4.140625 0.195312 6.140625 0.195312 C 8.554688 0.195312 11.90625 -0.628906 11.90625 -3.628906 C 11.90625 -6.570312 9.023438 -6.710938 6.335938 -6.945312 C 4.0625 -7.121094 2.097656 -7.296875 2.097656 -9.003906 C 2.097656 -10.789062 4.648438 -11.222656 5.964844 -11.222656 C 7.375 -11.222656 9.476562 -11.0625 10.0625 -9.574219 C 10.359375 -8.90625 11.691406 -9.257812 11.398438 -10.042969 C 10.574219 -12.28125 8.003906 -12.671875 5.945312 -12.671875 C 3.550781 -12.671875 0.570312 -11.613281 0.570312 -9.023438 C 0.570312 -6.101562 3.472656 -5.847656 6.179688 -5.628906 C 8.335938 -5.453125 10.398438 -5.316406 10.398438 -3.609375 C 10.398438 -1.628906 7.808594 -1.214844 6.140625 -1.214844 C 4.570312 -1.214844 2.394531 -1.472656 1.882812 -3.097656 C 1.726562 -3.902344 0.195312 -3.609375 0.429688 -2.746094 Z M 0.429688 -2.746094 "/></g></g></g><g fill="#ffffff" fill-opacity="1"><g transform="translate(317.661944, 190.215052)"><g><path d="M 1.355469 -11.75 L 1.355469 -0.6875 C 1.355469 -0.214844 1.707031 0 2.078125 0 C 2.453125 0 2.824219 -0.234375 2.824219 -0.6875 L 2.824219 -11.75 C 2.824219 -12.242188 2.453125 -12.476562 2.078125 -12.476562 C 1.726562 -12.476562 1.355469 -12.242188 1.355469 -11.75 Z M 1.355469 -11.75 "/></g></g></g><g fill="#ffffff" fill-opacity="1"><g transform="translate(324.724096, 190.215052)"><g><path d="M 10.339844 -11.847656 L 10.339844 -5.0625 L 10.535156 -2.097656 L 2.980469 -12.023438 C 2.785156 -12.320312 2.472656 -12.476562 2.175781 -12.476562 C 1.765625 -12.476562 1.394531 -12.183594 1.394531 -11.613281 L 1.394531 -0.726562 C 1.394531 -0.234375 1.765625 0 2.136719 0 C 2.511719 0 2.882812 -0.234375 2.882812 -0.726562 L 2.882812 -7.472656 L 2.726562 -10.179688 L 10.0625 -0.453125 C 10.238281 -0.15625 10.59375 0 10.925781 0 C 11.378906 0 11.828125 -0.273438 11.828125 -0.84375 L 11.828125 -11.847656 C 11.828125 -12.28125 11.457031 -12.476562 11.101562 -12.476562 C 10.710938 -12.476562 10.339844 -12.261719 10.339844 -11.847656 Z M 10.339844 -11.847656 "/></g></g></g><g fill="#ffffff" fill-opacity="1"><g transform="translate(341.02591, 190.215052)"><g><path d="M 7.082031 0.195312 C 10.417969 0.195312 13.359375 -2.375 13.359375 -6.453125 C 13.359375 -10.867188 9.554688 -12.671875 6.925781 -12.671875 C 4.335938 -12.671875 0.726562 -10.847656 0.726562 -6.453125 C 0.726562 -2.296875 3.550781 0.195312 7.082031 0.195312 Z M 2.195312 -6.394531 C 2.195312 -10.082031 4.964844 -11.359375 6.964844 -11.359375 C 8.984375 -11.359375 11.90625 -9.984375 11.90625 -6.394531 C 11.90625 -3.097656 9.730469 -1.136719 7.082031 -1.136719 C 4.316406 -1.136719 2.195312 -3.179688 2.195312 -6.394531 Z M 2.195312 -6.394531 "/></g></g></g><g fill="#ffffff" fill-opacity="1"><g transform="translate(358.387035, 190.215052)"><g/></g></g><g fill="#ffffff" fill-opacity="1"><g transform="translate(366.488896, 190.215052)"><g><path d="M 1.667969 0 L 5.945312 0 C 9.847656 0 11.789062 -3.117188 11.789062 -6.238281 C 11.789062 -9.355469 9.847656 -12.476562 5.945312 -12.476562 L 1.667969 -12.476562 C 1.175781 -12.476562 0.765625 -12.105469 0.765625 -11.652344 L 0.765625 -0.84375 C 0.765625 -0.390625 1.175781 0 1.667969 0 Z M 2.175781 -1.273438 L 2.175781 -11.222656 L 5.945312 -11.222656 C 8.886719 -11.222656 10.359375 -8.710938 10.359375 -6.238281 C 10.359375 -3.765625 8.886719 -1.273438 5.945312 -1.273438 Z M 2.175781 -1.273438 "/></g></g></g><g fill="#ffffff" fill-opacity="1"><g transform="translate(382.123721, 190.215052)"><g><path d="M 2.902344 -1.292969 L 2.902344 -5.550781 L 10.28125 -5.550781 C 11.101562 -5.550781 11.0625 -6.808594 10.28125 -6.808594 L 2.902344 -6.808594 L 2.902344 -11.222656 L 10.652344 -11.222656 C 11.476562 -11.222656 11.515625 -12.476562 10.671875 -12.476562 L 2.394531 -12.476562 C 1.84375 -12.476562 1.492188 -12.085938 1.492188 -11.632812 L 1.492188 -0.863281 C 1.492188 -0.390625 1.84375 0 2.394531 0 L 10.652344 0 C 11.59375 0 11.476562 -1.292969 10.652344 -1.292969 Z M 2.902344 -1.292969 "/></g></g></g><g fill="#ffffff" fill-opacity="1"><g transform="translate(397.405436, 190.215052)"><g/></g></g><g fill="#ffffff" fill-opacity="1"><g transform="translate(405.507297, 190.215052)"><g><path d="M 10.632812 -12.476562 L 0.472656 -12.476562 C -0.453125 -12.476562 -0.453125 -11.121094 0.472656 -11.121094 L 4.824219 -11.121094 L 4.824219 -0.726562 C 4.824219 -0.234375 5.199219 0 5.53125 0 C 5.867188 0 6.277344 -0.234375 6.277344 -0.726562 L 6.257812 -11.121094 L 10.632812 -11.121094 C 11.59375 -11.121094 11.59375 -12.476562 10.632812 -12.476562 Z M 10.632812 -12.476562 "/></g></g></g><g fill="#ffffff" fill-opacity="1"><g transform="translate(419.808158, 190.215052)"><g><path d="M 2.902344 -1.292969 L 2.902344 -5.550781 L 10.28125 -5.550781 C 11.101562 -5.550781 11.0625 -6.808594 10.28125 -6.808594 L 2.902344 -6.808594 L 2.902344 -11.222656 L 10.652344 -11.222656 C 11.476562 -11.222656 11.515625 -12.476562 10.671875 -12.476562 L 2.394531 -12.476562 C 1.84375 -12.476562 1.492188 -12.085938 1.492188 -11.632812 L 1.492188 -0.863281 C 1.492188 -0.390625 1.84375 0 2.394531 0 L 10.652344 0 C 11.59375 0 11.476562 -1.292969 10.652344 -1.292969 Z M 2.902344 -1.292969 "/></g></g></g><g fill="#ffffff" fill-opacity="1"><g transform="translate(435.089873, 190.215052)"><g><path d="M 6.121094 -7.316406 L 1.921875 -12.242188 C 1.765625 -12.417969 1.589844 -12.476562 1.414062 -12.476562 C 0.902344 -12.476562 0.410156 -11.886719 0.84375 -11.398438 L 5.199219 -6.375 L 0.648438 -1.175781 C 0.15625 -0.628906 0.570312 0 1.097656 0 C 1.292969 0 1.511719 -0.078125 1.707031 -0.292969 L 6.121094 -5.355469 L 10.457031 -0.3125 C 10.671875 -0.0976562 10.90625 0 11.121094 0 C 11.652344 0 12.023438 -0.589844 11.554688 -1.175781 L 7.003906 -6.375 L 11.378906 -11.359375 C 11.828125 -11.867188 11.339844 -12.476562 10.828125 -12.476562 C 10.632812 -12.476562 10.457031 -12.398438 10.300781 -12.222656 Z M 6.121094 -7.316406 "/></g></g></g><g fill="#ffffff" fill-opacity="1"><g transform="translate(450.430438, 190.215052)"><g><path d="M 10.632812 -12.476562 L 0.472656 -12.476562 C -0.453125 -12.476562 -0.453125 -11.121094 0.472656 -11.121094 L 4.824219 -11.121094 L 4.824219 -0.726562 C 4.824219 -0.234375 5.199219 0 5.53125 0 C 5.867188 0 6.277344 -0.234375 6.277344 -0.726562 L 6.257812 -11.121094 L 10.632812 -11.121094 C 11.59375 -11.121094 11.59375 -12.476562 10.632812 -12.476562 Z M 10.632812 -12.476562 "/></g></g></g><g fill="#ffffff" fill-opacity="1"><g transform="translate(464.731298, 190.215052)"><g><path d="M 7.082031 0.195312 C 10.417969 0.195312 13.359375 -2.375 13.359375 -6.453125 C 13.359375 -10.867188 9.554688 -12.671875 6.925781 -12.671875 C 4.335938 -12.671875 0.726562 -10.847656 0.726562 -6.453125 C 0.726562 -2.296875 3.550781 0.195312 7.082031 0.195312 Z M 2.195312 -6.394531 C 2.195312 -10.082031 4.964844 -11.359375 6.964844 -11.359375 C 8.984375 -11.359375 11.90625 -9.984375 11.90625 -6.394531 C 11.90625 -3.097656 9.730469 -1.136719 7.082031 -1.136719 C 4.316406 -1.136719 2.195312 -3.179688 2.195312 -6.394531 Z M 2.195312 -6.394531 "/></g></g></g></svg>