<svg xmlns="http://www.w3.org/2000/svg" xmlns:xlink="http://www.w3.org/1999/xlink" width="1920" zoomAndPan="magnify" viewBox="0 0 1440 809.999993" height="1080" preserveAspectRatio="xMidYMid meet" version="1.0"><defs><clipPath id="a1ccb8940d"><path d="M 436.539062 567.523438 L 1359 567.523438 L 1359 771.523438 L 436.539062 771.523438 Z M 436.539062 567.523438 " clip-rule="nonzero"/></clipPath><clipPath id="41107019ff"><path d="M 0 636.6875 L 810.859375 636.6875 L 810.859375 810 L 0 810 Z M 0 636.6875 " clip-rule="nonzero"/></clipPath><clipPath id="647fbe6871"><path d="M 0 548.496094 L 810.582031 548.496094 L 810.582031 752.496094 L 0 752.496094 Z M 0 548.496094 " clip-rule="nonzero"/></clipPath><clipPath id="ebf69cedf8"><path d="M 682.109375 597.523438 L 1440 597.523438 L 1440 809.773438 L 682.109375 809.773438 Z M 682.109375 597.523438 " clip-rule="nonzero"/></clipPath><clipPath id="6c2315c7cc"><path d="M 436.539062 572.027344 L 1358.992188 572.027344 L 1358.992188 776.027344 L 436.539062 776.027344 Z M 436.539062 572.027344 " clip-rule="nonzero"/></clipPath><clipPath id="7ebae8da5e"><path d="M 509.476562 703.125 L 537.976562 703.125 L 537.976562 731.625 L 509.476562 731.625 Z M 509.476562 703.125 " clip-rule="nonzero"/></clipPath><clipPath id="8e010c4589"><path d="M 523.800781 703.875 C 529.5 705 530.851562 705.75 531.976562 706.648438 C 533.101562 707.550781 534.226562 708.601562 535.050781 709.800781 C 535.875 711 536.476562 712.351562 536.851562 713.773438 C 537.226562 715.199219 537.449219 716.773438 537.375 718.199219 C 537.300781 719.625 536.925781 721.125 536.398438 722.476562 C 535.875 723.824219 535.050781 725.101562 534.148438 726.226562 C 533.175781 727.351562 532.050781 728.324219 530.773438 729.074219 C 529.574219 729.824219 528.148438 730.425781 526.726562 730.726562 C 525.300781 731.023438 523.726562 731.101562 522.300781 730.949219 C 520.875 730.800781 519.375 730.351562 518.101562 729.75 C 516.75 729.148438 515.476562 728.25 514.425781 727.273438 C 513.375 726.300781 512.476562 725.101562 511.800781 723.824219 C 511.125 722.550781 510.601562 721.050781 510.375 719.625 C 510.148438 718.199219 510.148438 716.699219 510.375 715.273438 C 510.601562 713.851562 511.125 712.351562 511.800781 711.074219 C 512.476562 709.800781 513.375 708.601562 514.425781 707.625 C 515.476562 706.648438 516.75 705.75 518.101562 705.148438 C 519.375 704.550781 520.875 704.101562 522.300781 703.949219 C 523.726562 703.800781 525.300781 703.875 526.726562 704.175781 C 528.148438 704.476562 529.574219 705.074219 530.773438 705.824219 C 532.050781 706.574219 533.175781 707.550781 534.148438 708.675781 C 535.050781 709.800781 535.875 711.074219 536.398438 712.425781 C 536.925781 713.773438 537.300781 715.273438 537.375 716.699219 C 537.449219 718.125 537.226562 719.625 536.851562 721.050781 C 536.476562 722.398438 535.875 723.824219 535.050781 725.023438 C 534.226562 726.226562 533.101562 727.351562 531.976562 728.25 C 530.851562 729.148438 529.5 729.824219 528.148438 730.273438 C 526.800781 730.726562 525.375 731.023438 523.800781 731.023438 C 521.851562 731.023438 519.074219 730.425781 517.425781 729.824219 C 516.226562 729.375 515.550781 728.925781 514.574219 728.101562 C 513.226562 726.898438 511.425781 724.875 510.601562 722.925781 C 509.773438 720.976562 509.476562 718.351562 509.476562 716.550781 C 509.476562 715.273438 509.625 714.523438 510.074219 713.324219 C 510.75 711.675781 512.324219 709.125 513.523438 707.773438 C 514.351562 706.875 514.949219 706.351562 516.074219 705.75 C 517.648438 704.925781 522.300781 703.875 522.300781 703.875 " clip-rule="nonzero"/></clipPath><clipPath id="8422f43c39"><path d="M 194 592 L 582 592 L 582 692.851562 L 194 692.851562 Z M 194 592 " clip-rule="nonzero"/></clipPath><clipPath id="5a1e3431d1"><path d="M 575.101562 619.574219 C 564.601562 626.625 562.125 630.148438 557.699219 633.675781 C 550.726562 639.226562 536.25 647.476562 528.898438 652.875 C 524.101562 656.398438 522.148438 658.726562 517.425781 662.25 C 510.300781 667.574219 498.449219 676.875 489.601562 681.074219 C 482.625 684.375 475.648438 685.5 469.5 687 C 464.398438 688.199219 460.949219 688.949219 455.324219 689.625 C 447.226562 690.675781 435.300781 691.273438 425.324219 691.648438 C 415.5 692.023438 406.351562 692.25 396 691.800781 C 384.300781 691.273438 370.425781 690.074219 358.574219 688.273438 C 347.625 686.625 335.851562 683.925781 327.148438 681.675781 C 320.851562 680.023438 317.101562 678.976562 310.949219 676.648438 C 302.175781 673.351562 288.300781 665.773438 279.898438 662.625 C 274.425781 660.601562 270.601562 660 266.101562 658.425781 C 261.75 656.851562 257.925781 655.125 253.425781 653.175781 C 248.324219 651 243.226562 648.75 237.226562 645.824219 C 229.5 642 217.648438 636 211.199219 631.875 C 207.148438 629.25 204.074219 626.925781 201.675781 624.75 C 199.949219 623.175781 198.75 622.050781 197.699219 620.398438 C 196.648438 618.824219 195.824219 616.949219 195.300781 615.074219 C 194.773438 613.199219 194.625 611.175781 194.773438 609.226562 C 194.925781 607.273438 195.375 605.25 196.125 603.449219 C 196.875 601.648438 197.925781 599.925781 199.199219 598.5 C 200.476562 597.074219 202.125 595.726562 203.773438 594.75 C 205.425781 593.773438 207.375 593.023438 209.25 592.648438 C 211.125 592.273438 213.148438 592.199219 215.101562 592.425781 C 217.050781 592.648438 219.074219 593.324219 220.800781 594.148438 C 222.523438 594.976562 224.25 596.175781 225.601562 597.523438 C 226.949219 598.875 228.148438 600.523438 229.050781 602.25 C 229.949219 603.976562 230.550781 605.925781 230.851562 607.800781 C 231.148438 609.75 231.148438 611.773438 230.773438 613.726562 C 230.398438 615.601562 229.726562 617.550781 228.75 619.273438 C 227.851562 620.925781 226.574219 622.574219 225.148438 623.851562 C 223.726562 625.125 222 626.25 220.199219 627.074219 C 218.476562 627.824219 216.523438 628.425781 214.574219 628.574219 C 212.625 628.726562 210.523438 628.574219 208.648438 628.125 C 206.773438 627.675781 204.898438 626.925781 203.25 625.875 C 201.601562 624.824219 200.023438 623.476562 198.824219 621.976562 C 197.625 620.476562 196.574219 618.75 195.898438 616.949219 C 195.226562 615.148438 194.773438 613.125 194.699219 611.175781 C 194.625 609.226562 194.925781 607.199219 195.449219 605.324219 C 195.976562 603.449219 196.875 601.648438 198 600.074219 C 199.125 598.5 200.550781 597 202.125 595.875 C 203.699219 594.75 205.5 593.773438 207.375 593.175781 C 209.175781 592.574219 211.199219 592.351562 213.148438 592.351562 C 215.101562 592.351562 216.449219 592.425781 218.925781 593.398438 C 224.25 595.5 235.199219 604.5 242.25 608.773438 C 247.875 612.148438 251.550781 614.699219 257.699219 617.398438 C 265.875 621 277.5 623.625 287.476562 627.523438 C 297.898438 631.648438 310.5 638.175781 318.976562 641.550781 C 324.523438 643.800781 327.449219 644.851562 333.074219 646.5 C 341.175781 648.824219 352.273438 651.675781 363 653.25 C 375.074219 655.050781 388.125 655.800781 401.925781 656.175781 C 417.449219 656.550781 439.949219 655.949219 451.648438 654.976562 C 458.101562 654.449219 461.699219 654 466.5 652.800781 C 471.375 651.523438 475.5 650.324219 480.675781 647.550781 C 488.101562 643.5 496.648438 634.800781 505.800781 628.875 C 515.773438 622.425781 529.875 616.425781 538.425781 610.800781 C 544.425781 606.898438 548.550781 602.550781 553.125 599.625 C 556.800781 597.226562 561.074219 594.898438 563.625 594 C 565.050781 593.476562 565.648438 593.324219 567 593.324219 C 568.875 593.324219 571.648438 593.699219 573.675781 594.601562 C 575.625 595.5 577.726562 597.449219 578.925781 598.800781 C 579.824219 599.773438 580.273438 600.523438 580.726562 601.726562 C 581.398438 603.449219 581.925781 606.523438 581.925781 608.324219 C 581.925781 609.675781 581.699219 610.5 581.25 611.699219 C 580.574219 613.425781 579 616.125 577.800781 617.476562 C 576.898438 618.449219 575.101562 619.574219 575.101562 619.574219 " clip-rule="nonzero"/></clipPath><clipPath id="56761361d2"><path d="M 1136.023438 570 L 1440 570 L 1440 692 L 1136.023438 692 Z M 1136.023438 570 " clip-rule="nonzero"/></clipPath><clipPath id="9ee84af9bc"><path d="M 1150.949219 662.175781 C 1181.398438 660.300781 1186.726562 658.050781 1193.550781 655.199219 C 1202.175781 651.601562 1212.675781 645.074219 1221.976562 640.648438 C 1230.675781 636.523438 1240.726562 633.226562 1247.625 629.324219 C 1252.726562 626.476562 1255.050781 623.773438 1260.148438 620.550781 C 1267.5 615.898438 1278.523438 609.523438 1288.050781 605.023438 C 1297.425781 600.601562 1307.023438 597 1316.925781 593.550781 C 1327.050781 590.023438 1337.699219 587.398438 1347.976562 584.023438 C 1358.25 580.648438 1370.101562 575.324219 1378.574219 573.449219 C 1384.351562 572.175781 1387.574219 572.324219 1393.574219 571.875 C 1402.5 571.199219 1416.300781 570.824219 1427.023438 570.601562 C 1436.925781 570.375 1447.050781 570.300781 1455.675781 570.523438 C 1462.726562 570.675781 1467.75 570.601562 1474.875 571.5 C 1484.101562 572.699219 1500.375 575.699219 1506.226562 578.023438 C 1508.699219 579 1509.75 579.824219 1511.175781 581.023438 C 1512.601562 582.300781 1513.949219 583.800781 1514.925781 585.449219 C 1515.898438 587.101562 1516.648438 588.898438 1517.101562 590.773438 C 1517.550781 592.648438 1517.625 594.675781 1517.398438 596.550781 C 1517.175781 598.425781 1516.648438 600.375 1515.898438 602.101562 C 1515.074219 603.824219 1513.949219 605.476562 1512.675781 606.898438 C 1511.398438 608.25 1509.75 609.523438 1508.101562 610.425781 C 1506.449219 611.324219 1504.5 611.925781 1502.625 612.226562 C 1500.75 612.523438 1498.726562 612.601562 1496.851562 612.300781 C 1494.976562 612 1493.023438 611.324219 1491.375 610.425781 C 1489.648438 609.523438 1488.074219 608.324219 1486.726562 606.976562 C 1485.449219 605.625 1484.324219 603.898438 1483.5 602.175781 C 1482.675781 600.449219 1482.148438 598.5 1481.925781 596.625 C 1481.699219 594.75 1481.851562 592.726562 1482.226562 590.851562 C 1482.601562 588.976562 1483.351562 587.101562 1484.324219 585.449219 C 1485.300781 583.800781 1486.648438 582.300781 1488.074219 581.101562 C 1489.5 579.898438 1491.226562 578.851562 1493.023438 578.101562 C 1494.75 577.425781 1496.773438 576.976562 1498.648438 576.824219 C 1500.523438 576.675781 1502.550781 576.898438 1504.425781 577.425781 C 1506.226562 577.949219 1508.101562 578.773438 1509.675781 579.824219 C 1511.25 580.875 1512.75 582.300781 1513.875 583.800781 C 1515 585.300781 1515.976562 587.101562 1516.574219 588.898438 C 1517.175781 590.699219 1517.550781 592.726562 1517.550781 594.601562 C 1517.550781 596.476562 1517.175781 598.5 1516.574219 600.300781 C 1515.976562 602.101562 1515 603.898438 1513.875 605.398438 C 1512.75 606.898438 1511.324219 608.324219 1509.75 609.375 C 1508.175781 610.425781 1506.300781 611.324219 1504.5 611.851562 C 1502.625 612.375 1501.199219 612.601562 1498.726562 612.449219 C 1494.375 612.148438 1486.875 609.148438 1480.726562 608.101562 C 1474.425781 606.976562 1469.25 606.375 1461.375 606 C 1449.074219 605.398438 1428.226562 605.851562 1413.976562 606.375 C 1402.199219 606.824219 1390.949219 606.449219 1381.726562 608.550781 C 1374.300781 610.273438 1369.800781 613.726562 1362.300781 616.351562 C 1352.476562 619.800781 1338.75 623.101562 1327.726562 626.925781 C 1317.300781 630.523438 1307.550781 633.898438 1297.800781 638.625 C 1287.824219 643.425781 1280.25 649.574219 1268.699219 655.574219 C 1252.648438 663.898438 1223.398438 676.800781 1209.675781 682.425781 C 1202.550781 685.351562 1198.875 687.074219 1193.101562 688.574219 C 1187.25 690.148438 1181.324219 691.125 1174.800781 691.574219 C 1167.375 692.023438 1156.425781 691.574219 1150.949219 690.824219 C 1148.023438 690.449219 1146.300781 690.226562 1144.351562 689.175781 C 1142.398438 688.125 1140.300781 686.175781 1139.175781 684.675781 C 1138.351562 683.625 1137.976562 682.648438 1137.601562 681.601562 C 1137.226562 680.550781 1136.851562 679.574219 1136.773438 678.226562 C 1136.699219 676.351562 1136.773438 673.5 1137.601562 671.398438 C 1138.425781 669.300781 1140.148438 667.125 1141.5 665.773438 C 1142.476562 664.875 1143.148438 664.351562 1144.351562 663.824219 C 1146.074219 663.074219 1150.949219 662.175781 1150.949219 662.175781 " clip-rule="nonzero"/></clipPath><clipPath id="36c72d4cf8"><path d="M 912 460 L 1440 460 L 1440 729 L 912 729 Z M 912 460 " clip-rule="nonzero"/></clipPath><clipPath id="21694ee533"><path d="M 925.726562 701.023438 C 961.949219 700.125 964.800781 699.523438 971.625 698.550781 C 984.300781 696.675781 1012.199219 692.101562 1025.773438 689.476562 C 1033.949219 687.898438 1038 687.148438 1045.425781 685.050781 C 1055.398438 682.273438 1066.726562 678.375 1079.851562 673.351562 C 1098.074219 666.300781 1125.601562 653.175781 1144.273438 645.523438 C 1158.449219 639.75 1171.875 635.625 1181.925781 630.976562 C 1188.976562 627.75 1194.375 625.050781 1199.324219 621.601562 C 1203.601562 618.675781 1206.898438 615.375 1210.351562 612.074219 C 1213.648438 608.851562 1216.050781 606.148438 1219.574219 602.101562 C 1224.824219 596.101562 1230.824219 587.175781 1238.25 579.226562 C 1247.476562 569.324219 1257.824219 558.976562 1271.550781 547.800781 C 1290.601562 532.273438 1324.273438 509.398438 1344 497.101562 C 1356.824219 489.074219 1365.523438 483.675781 1376.773438 478.949219 C 1387.648438 474.375 1400.476562 471.226562 1410.300781 468.75 C 1417.875 466.875 1423.273438 465.976562 1430.550781 464.773438 C 1438.949219 463.425781 1447.648438 462 1458 461.25 C 1471.199219 460.273438 1491.148438 460.5 1503.300781 460.351562 C 1511.476562 460.273438 1516.050781 459.976562 1523.851562 460.273438 C 1534.351562 460.726562 1552.125 461.773438 1560.675781 463.351562 C 1565.398438 464.25 1569 465.449219 1571.476562 466.5 C 1572.898438 467.101562 1573.726562 467.550781 1574.699219 468.226562 C 1575.675781 468.976562 1576.574219 469.648438 1577.476562 470.773438 C 1578.675781 472.351562 1580.25 474.976562 1580.773438 477.300781 C 1581.300781 479.625 1581.074219 482.699219 1580.699219 484.648438 C 1580.398438 486.074219 1580.101562 486.898438 1579.351562 488.101562 C 1578.300781 489.824219 1575.976562 492.300781 1574.398438 493.5 C 1573.273438 494.324219 1572.449219 494.773438 1571.101562 495.148438 C 1569.148438 495.75 1565.773438 496.125 1563.75 495.976562 C 1562.324219 495.898438 1561.875 495.148438 1560.226562 495 C 1556.773438 494.699219 1550.550781 496.574219 1543.574219 496.949219 C 1532.101562 497.550781 1510.125 496.050781 1497.75 496.5 C 1489.273438 496.800781 1483.125 496.726562 1476.375 498.375 C 1469.773438 499.949219 1464.675781 502.574219 1457.625 505.875 C 1448.101562 510.300781 1434.148438 516.523438 1424.699219 523.425781 C 1416.226562 529.648438 1407.898438 536.398438 1402.949219 544.574219 C 1398.226562 552.449219 1399.199219 562.199219 1395.074219 571.351562 C 1390.050781 582.449219 1379.699219 596.175781 1373.25 605.773438 C 1368.523438 612.898438 1364.699219 618.898438 1360.425781 624 C 1356.898438 628.125 1353.75 631.273438 1349.851562 634.425781 C 1345.800781 637.726562 1341.75 640.199219 1336.5 643.273438 C 1329.601562 647.324219 1319.773438 653.023438 1311.824219 656.101562 C 1305 658.726562 1299.226562 660.074219 1291.875 661.199219 C 1283.101562 662.550781 1274.175781 662.25 1262.550781 662.625 C 1245.601562 663.148438 1213.125 663.976562 1200 663.226562 C 1193.925781 662.851562 1189.800781 662.324219 1186.726562 661.574219 C 1185.074219 661.199219 1184.25 660.976562 1182.976562 660.226562 C 1181.101562 659.101562 1178.550781 657 1177.050781 654.898438 C 1175.625 652.800781 1174.5 650.023438 1174.199219 647.476562 C 1173.898438 644.925781 1174.273438 642 1175.175781 639.601562 C 1176.074219 637.199219 1177.726562 634.800781 1179.675781 633.074219 C 1181.625 631.351562 1184.625 630 1186.726562 629.398438 C 1188.226562 628.949219 1189.125 629.625 1190.699219 628.949219 C 1193.851562 627.601562 1198.351562 621.375 1202.773438 618.300781 C 1207.199219 615.226562 1212.601562 613.199219 1217.175781 610.5 C 1221.601562 607.875 1226.023438 605.398438 1230 602.25 C 1234.125 598.949219 1237.5 595.875 1241.476562 591.074219 C 1247.101562 584.25 1253.851562 571.574219 1259.175781 564.074219 C 1263.148438 558.523438 1266.523438 554.175781 1270.273438 549.898438 C 1273.648438 546 1276.199219 543.148438 1280.550781 539.175781 C 1287 533.324219 1298.925781 523.648438 1306.273438 519.148438 C 1311.148438 516.148438 1314.601562 514.648438 1319.175781 513 C 1324.050781 511.199219 1329.824219 507.675781 1334.699219 508.875 C 1340.324219 510.300781 1348.125 517.726562 1350.226562 523.425781 C 1352.175781 528.601562 1350.226562 534.675781 1348.273438 541.125 C 1345.648438 549.75 1339.050781 560.324219 1333.273438 569.925781 C 1327.050781 580.273438 1317.074219 592.949219 1311.75 601.125 C 1308.449219 606.226562 1306.351562 609.300781 1304.023438 613.875 C 1301.476562 618.824219 1301.175781 628.050781 1297.273438 629.851562 C 1293.300781 631.648438 1281.523438 627.898438 1280.398438 624.300781 C 1278.976562 619.726562 1291.800781 609 1297.949219 601.949219 C 1304.023438 595.050781 1309.726562 590.476562 1317.074219 582.523438 C 1327.949219 570.75 1345.800781 549.449219 1356.074219 537.300781 C 1362.976562 529.199219 1367.324219 524.398438 1373.101562 516.824219 C 1379.851562 508.050781 1389.226562 491.476562 1393.875 487.574219 C 1395.523438 486.148438 1396.574219 485.925781 1398 485.625 C 1399.425781 485.324219 1401.148438 485.398438 1402.574219 485.851562 C 1404 486.300781 1405.574219 487.273438 1406.476562 488.101562 C 1407.148438 488.699219 1407.523438 489.074219 1407.898438 489.898438 C 1408.574219 491.324219 1409.398438 493.800781 1409.25 496.5 C 1408.949219 501.148438 1405.726562 509.101562 1403.023438 515.175781 C 1400.324219 521.398438 1397.476562 525.449219 1392.976562 533.25 C 1384.648438 547.800781 1365.074219 580.949219 1356.074219 595.125 C 1351.273438 602.699219 1349.175781 606.898438 1344.523438 612.300781 C 1339.5 618.226562 1331.101562 630 1326.601562 628.949219 C 1322.023438 627.898438 1317.75 612.898438 1317.375 605.398438 C 1317.074219 598.648438 1320.75 592.5 1322.851562 585.976562 C 1325.023438 579.148438 1327.199219 573.226562 1330.351562 565.199219 C 1334.773438 553.949219 1343.175781 536.550781 1347.523438 525.226562 C 1350.675781 517.050781 1353.226562 507.300781 1354.726562 503.773438 C 1355.25 502.574219 1355.324219 502.199219 1356 501.375 C 1356.898438 500.25 1358.550781 498.75 1360.050781 498 C 1361.625 497.25 1363.800781 496.875 1365.226562 496.800781 C 1366.273438 496.726562 1366.875 496.875 1367.851562 497.175781 C 1369.199219 497.625 1371.148438 498.601562 1372.425781 499.726562 C 1373.699219 500.925781 1374.75 502.800781 1375.351562 504.148438 C 1375.726562 505.050781 1375.875 505.726562 1375.949219 506.699219 C 1376.023438 508.125 1376.175781 510 1375.199219 511.949219 C 1373.324219 515.550781 1366.875 518.699219 1361.851562 524.699219 C 1353 535.199219 1337.550781 560.25 1329.898438 572.324219 C 1325.324219 579.523438 1322.625 586.800781 1319.398438 589.949219 C 1317.675781 591.601562 1316.25 592.125 1314.523438 592.574219 C 1312.800781 593.023438 1310.699219 593.023438 1308.898438 592.648438 C 1307.101562 592.273438 1305.226562 591.300781 1303.875 590.101562 C 1302.523438 588.898438 1301.324219 587.25 1300.648438 585.601562 C 1299.976562 583.949219 1299.824219 581.550781 1299.898438 580.050781 C 1299.976562 578.925781 1300.125 578.550781 1300.574219 577.273438 C 1301.773438 574.125 1304.550781 563.773438 1308.601562 561.675781 C 1312.273438 559.800781 1322.25 561.601562 1323 563.851562 C 1323.898438 566.476562 1313.476562 573.824219 1308.75 578.175781 C 1304.398438 582.148438 1299.601562 585.449219 1295.699219 589.125 C 1292.175781 592.425781 1289.550781 595.199219 1286.25 599.023438 C 1282.273438 603.675781 1276.273438 609.976562 1273.648438 615.148438 C 1271.625 619.125 1271.550781 624.226562 1270.273438 626.625 C 1269.601562 627.898438 1269.148438 628.425781 1268.175781 629.25 C 1266.824219 630.449219 1264.125 632.101562 1262.398438 632.699219 C 1261.199219 633.148438 1260.300781 633.226562 1259.023438 633.226562 C 1257.226562 633.226562 1254.148438 632.625 1252.5 631.949219 C 1251.300781 631.5 1250.550781 630.824219 1249.648438 630.148438 C 1248.75 629.398438 1248 628.800781 1247.25 627.675781 C 1246.199219 626.175781 1245 623.324219 1244.625 621.523438 C 1244.324219 620.25 1244.324219 619.425781 1244.476562 618.148438 C 1244.699219 616.351562 1245 614.175781 1246.574219 611.851562 C 1249.574219 607.351562 1256.773438 602.398438 1265.101562 595.949219 C 1280.324219 584.175781 1309.5 564.375 1332.375 549.148438 C 1355.550781 533.699219 1385.476562 513 1403.476562 504.074219 C 1413.601562 499.050781 1422.300781 492.523438 1428.523438 494.773438 C 1434.300781 496.875 1438.648438 506.101562 1440.300781 514.949219 C 1443 529.125 1432.648438 559.949219 1430.925781 574.125 C 1429.949219 582.074219 1429.800781 586.125 1429.425781 592.726562 C 1429.050781 600.226562 1430.175781 612.074219 1428.824219 616.949219 C 1428.148438 619.273438 1427.324219 620.476562 1426.125 621.75 C 1424.851562 623.023438 1423.125 624.074219 1421.398438 624.601562 C 1419.675781 625.125 1417.648438 625.351562 1415.925781 625.050781 C 1414.199219 624.75 1412.324219 623.925781 1410.898438 622.875 C 1409.476562 621.824219 1408.199219 620.175781 1407.449219 618.601562 C 1406.699219 616.949219 1406.699219 616.050781 1406.398438 613.199219 C 1405.351562 602.550781 1406.925781 551.773438 1405.800781 537.074219 C 1405.351562 531.074219 1403.851562 527.773438 1404 524.398438 C 1404.148438 522.074219 1404.75 520.125 1405.425781 518.625 C 1405.875 517.574219 1406.25 516.976562 1407.074219 516.148438 C 1408.199219 515.023438 1410.226562 513.449219 1412.023438 512.773438 C 1413.824219 512.101562 1416.375 512.023438 1417.949219 512.101562 C 1419.074219 512.175781 1419.75 512.324219 1420.800781 512.773438 C 1422.300781 513.449219 1424.476562 514.726562 1425.75 516.148438 C 1427.023438 517.574219 1428.074219 519.898438 1428.523438 521.476562 C 1428.824219 522.523438 1429.199219 523.199219 1428.824219 524.398438 C 1428 527.25 1422.226562 531.601562 1418.625 536.851562 C 1413.449219 544.5 1406.699219 558 1401.898438 566.699219 C 1398.226562 573.449219 1395.300781 578.101562 1392.300781 584.773438 C 1388.773438 592.648438 1384.726562 607.351562 1382.398438 611.101562 C 1381.648438 612.300781 1381.351562 612.523438 1380.449219 613.125 C 1379.25 614.023438 1377.226562 615.148438 1375.425781 615.523438 C 1373.625 615.898438 1371.523438 615.824219 1369.800781 615.300781 C 1368.074219 614.773438 1366.125 613.5 1364.925781 612.523438 C 1364.101562 611.773438 1363.648438 611.101562 1363.125 610.273438 C 1362.601562 609.523438 1362.226562 608.851562 1361.925781 607.800781 C 1361.550781 606.300781 1361.101562 604.648438 1361.476562 602.175781 C 1362.300781 597.074219 1367.699219 585.898438 1371.226562 579.449219 C 1374.074219 574.199219 1377.148438 570 1380.300781 565.800781 C 1383.226562 561.898438 1384.648438 557.773438 1389.226562 554.851562 C 1396.125 550.425781 1415.550781 543.148438 1420.875 546.824219 C 1425.226562 549.824219 1424.175781 561.75 1423.574219 568.273438 C 1423.050781 573.898438 1421.175781 577.273438 1418.773438 583.574219 C 1414.800781 594.148438 1405.050781 618.675781 1400.175781 625.199219 C 1398.300781 627.675781 1397.101562 628.5 1395.226562 629.476562 C 1393.351562 630.449219 1390.648438 630.898438 1388.851562 630.976562 C 1387.574219 631.050781 1386.824219 630.898438 1385.625 630.523438 C 1383.898438 630 1381.425781 628.875 1379.851562 627.449219 C 1378.273438 626.023438 1376.925781 623.625 1376.175781 621.976562 C 1375.648438 620.773438 1375.5 620.023438 1375.425781 618.75 C 1375.351562 616.949219 1375.648438 614.925781 1376.324219 612.300781 C 1377.375 607.949219 1379.625 600.898438 1382.324219 595.574219 C 1385.101562 590.101562 1388.476562 585.675781 1393.050781 579.898438 C 1399.5 571.800781 1409.925781 560.550781 1418.398438 552.226562 C 1426.050781 544.648438 1434.074219 537.148438 1441.5 531.675781 C 1447.574219 527.175781 1452.976562 523.425781 1459.199219 520.875 C 1465.273438 518.398438 1473.375 517.273438 1478.324219 516.601562 C 1481.476562 516.148438 1483.875 515.851562 1486.050781 516.226562 C 1487.773438 516.523438 1489.050781 517.125 1490.398438 517.875 C 1491.75 518.625 1493.023438 519.75 1494.074219 520.875 C 1495.125 522 1495.949219 523.351562 1496.550781 524.773438 C 1497.148438 526.199219 1497.523438 527.773438 1497.601562 529.351562 C 1497.675781 530.851562 1497.601562 532.5 1497.226562 534 C 1496.851562 535.5 1496.101562 537 1495.273438 538.273438 C 1494.449219 539.550781 1493.324219 540.75 1492.125 541.726562 C 1490.925781 542.699219 1489.5 543.449219 1488.074219 543.976562 C 1486.648438 544.5 1485 544.875 1483.425781 544.875 C 1481.925781 544.875 1480.273438 544.648438 1478.851562 544.199219 C 1477.351562 543.75 1475.925781 542.925781 1474.648438 542.023438 C 1473.375 541.125 1472.25 540 1471.351562 538.726562 C 1470.449219 537.449219 1469.773438 536.023438 1469.324219 534.523438 C 1468.875 533.023438 1468.648438 531.449219 1468.726562 529.875 C 1468.800781 528.375 1469.175781 526.726562 1469.699219 525.300781 C 1470.226562 523.875 1471.050781 522.449219 1472.023438 521.25 C 1473 520.050781 1474.273438 519 1475.550781 518.175781 C 1476.824219 517.351562 1478.324219 516.75 1479.824219 516.375 C 1481.324219 516 1482.976562 515.851562 1484.476562 516 C 1486.050781 516.148438 1487.625 516.601562 1489.050781 517.199219 C 1490.476562 517.800781 1491.824219 518.699219 1492.949219 519.75 C 1494.074219 520.800781 1495.125 522.074219 1495.875 523.425781 C 1496.625 524.773438 1497.148438 526.273438 1497.449219 527.773438 C 1497.75 529.273438 1497.75 531 1497.523438 532.5 C 1497.300781 534 1496.773438 535.574219 1496.101562 536.925781 C 1495.425781 538.273438 1494.449219 539.625 1493.324219 540.675781 C 1492.199219 541.726562 1490.851562 542.699219 1489.5 543.375 C 1488.074219 544.050781 1486.949219 544.273438 1485 544.726562 C 1481.398438 545.550781 1474.273438 545.175781 1469.324219 546.898438 C 1464.226562 548.625 1459.800781 551.851562 1454.851562 555.226562 C 1449.074219 559.199219 1443 563.851562 1437.074219 569.625 C 1429.949219 576.601562 1420.800781 587.625 1415.476562 594.75 C 1411.875 599.625 1409.699219 602.851562 1407.226562 607.574219 C 1404.523438 612.898438 1402.800781 621.523438 1400.175781 625.199219 C 1398.601562 627.375 1397.101562 628.5 1395.226562 629.476562 C 1393.351562 630.449219 1390.648438 630.898438 1388.851562 630.976562 C 1387.574219 631.050781 1386.824219 630.898438 1385.625 630.523438 C 1383.898438 630 1381.425781 628.875 1379.851562 627.449219 C 1378.273438 626.023438 1376.925781 623.625 1376.175781 621.976562 C 1375.648438 620.773438 1375.5 620.023438 1375.425781 618.75 C 1375.351562 616.949219 1375.5 615.226562 1376.324219 612.300781 C 1378.5 604.949219 1389.300781 585.148438 1393.199219 575.398438 C 1395.675781 569.25 1395.898438 560.476562 1398.523438 559.949219 C 1401 559.425781 1408.199219 566.699219 1408.273438 570.898438 C 1408.425781 576.300781 1397.324219 583.199219 1393.199219 589.726562 C 1389.300781 595.800781 1386.300781 604.574219 1383.824219 608.625 C 1382.550781 610.726562 1381.875 612 1380.449219 613.125 C 1379.023438 614.25 1377.226562 615.148438 1375.425781 615.523438 C 1373.625 615.898438 1371.300781 615.675781 1369.800781 615.300781 C 1368.75 615.074219 1368.074219 614.773438 1367.175781 614.175781 C 1365.898438 613.351562 1364.023438 611.550781 1363.125 610.351562 C 1362.523438 609.449219 1362.226562 608.851562 1361.925781 607.800781 C 1361.550781 606.300781 1361.175781 604.351562 1361.476562 602.175781 C 1361.851562 599.023438 1363.5 595.5 1365.449219 590.699219 C 1368.976562 582 1376.925781 564.824219 1382.023438 554.851562 C 1385.773438 547.425781 1388.625 541.125 1392.601562 535.800781 C 1396.050781 531.226562 1402.050781 527.773438 1404 524.398438 C 1405.199219 522.300781 1404.75 520.125 1405.425781 518.625 C 1405.875 517.574219 1406.25 516.976562 1407.074219 516.148438 C 1408.199219 515.023438 1410.523438 513.449219 1412.023438 512.773438 C 1413.074219 512.324219 1413.824219 512.175781 1414.949219 512.101562 C 1416.523438 512.023438 1419 512.101562 1420.800781 512.773438 C 1422.601562 513.449219 1424.476562 514.726562 1425.75 516.148438 C 1427.023438 517.574219 1427.851562 519.148438 1428.523438 521.476562 C 1429.574219 525.226562 1429.273438 529.875 1429.5 537.074219 C 1429.949219 553.050781 1430.773438 603.675781 1429.273438 614.25 C 1428.898438 617.101562 1428.675781 618 1427.773438 619.5 C 1426.875 621.074219 1425.449219 622.5 1423.949219 623.476562 C 1422.449219 624.449219 1420.5 625.050781 1418.699219 625.199219 C 1416.898438 625.351562 1414.949219 624.976562 1413.300781 624.300781 C 1411.648438 623.625 1410.074219 622.351562 1408.949219 620.925781 C 1407.824219 619.574219 1407.074219 618.523438 1406.550781 615.976562 C 1405.125 608.550781 1408.199219 582.523438 1409.550781 570.449219 C 1410.449219 562.425781 1412.175781 557.925781 1412.773438 550.5 C 1413.523438 541.273438 1416.675781 521.625 1412.773438 519.375 C 1409.773438 517.648438 1403.699219 524.175781 1397.023438 528.375 C 1384.425781 536.324219 1358.550781 554.851562 1344.226562 565.5 C 1334.023438 573.074219 1326.523438 578.773438 1318.648438 585.601562 C 1311.375 591.898438 1306.050781 598.425781 1298.550781 604.875 C 1290.074219 612.148438 1275.675781 621.898438 1270.273438 626.625 C 1267.949219 628.648438 1267.351562 630.226562 1265.476562 631.351562 C 1263.601562 632.476562 1261.199219 633.148438 1259.023438 633.226562 C 1256.851562 633.300781 1254.449219 632.851562 1252.5 631.949219 C 1250.550781 631.050781 1248.601562 629.398438 1247.25 627.675781 C 1245.976562 625.949219 1245 623.625 1244.625 621.523438 C 1244.25 619.351562 1244.476562 617.476562 1245.148438 614.851562 C 1246.199219 610.648438 1248.976562 604.351562 1252.199219 599.101562 C 1256.023438 593.023438 1262.625 586.273438 1267.351562 580.949219 C 1271.25 576.523438 1273.949219 573.601562 1278.449219 569.25 C 1284.675781 563.175781 1293.375 553.199219 1301.851562 548.550781 C 1309.5 544.351562 1320.375 539.398438 1326.375 541.648438 C 1331.625 543.601562 1336.800781 552.449219 1337.25 557.851562 C 1337.625 562.800781 1333.125 567.75 1330.351562 572.851562 C 1327.273438 578.476562 1322.699219 586.875 1319.398438 589.949219 C 1317.675781 591.523438 1315.949219 592.125 1314.523438 592.574219 C 1313.476562 592.875 1312.648438 592.949219 1311.675781 592.949219 C 1310.773438 592.949219 1309.949219 592.949219 1308.898438 592.648438 C 1307.398438 592.199219 1305.226562 591.300781 1303.875 590.101562 C 1302.523438 588.898438 1301.324219 587.25 1300.648438 585.601562 C 1299.976562 583.949219 1299.824219 581.550781 1299.898438 580.050781 C 1299.976562 578.925781 1299.976562 578.699219 1300.574219 577.273438 C 1303.351562 570.976562 1322.101562 543.523438 1332.449219 529.726562 C 1341.074219 518.25 1352.398438 503.699219 1357.800781 499.425781 C 1359.75 497.851562 1361.101562 497.476562 1362.523438 497.101562 C 1363.5 496.800781 1364.175781 496.726562 1365.226562 496.800781 C 1366.648438 496.949219 1368.75 497.398438 1370.25 498.226562 C 1371.75 499.050781 1373.175781 500.324219 1374.148438 501.75 C 1375.125 503.175781 1375.726562 505.273438 1375.949219 506.699219 C 1376.101562 507.75 1376.175781 507.976562 1375.875 509.398438 C 1374.375 516.601562 1357.425781 552.898438 1350.300781 572.023438 C 1344.375 587.925781 1339.574219 615.898438 1335.523438 616.050781 C 1333.199219 616.125 1328.925781 606.523438 1329.449219 601.800781 C 1330.050781 596.550781 1336.5 592.800781 1340.699219 586.125 C 1347.449219 575.398438 1356.898438 556.273438 1364.625 542.699219 C 1371.601562 530.476562 1380 518.101562 1384.875 508.125 C 1388.324219 501 1389.824219 492.601562 1392.300781 489.226562 C 1393.5 487.648438 1394.476562 486.976562 1395.824219 486.375 C 1397.175781 485.773438 1398.75 485.398438 1400.25 485.476562 C 1401.75 485.550781 1403.398438 486 1404.675781 486.75 C 1405.949219 487.5 1407.148438 488.550781 1407.898438 489.898438 C 1408.800781 491.625 1409.476562 494.550781 1409.25 496.5 C 1409.101562 498.074219 1408.726562 498.601562 1407.449219 500.699219 C 1401.898438 510.226562 1368.75 551.398438 1352.699219 573 C 1339.800781 590.324219 1327.050781 608.773438 1318.199219 620.175781 C 1313.023438 626.851562 1309.949219 631.351562 1305.375 635.773438 C 1301.175781 639.824219 1297.273438 644.851562 1292.101562 645.898438 C 1286.398438 647.023438 1275.824219 644.773438 1272.226562 640.574219 C 1268.773438 636.523438 1269.226562 628.125 1270.273438 621.75 C 1271.398438 614.625 1275.75 608.398438 1280.023438 600 C 1286.25 587.851562 1299.824219 567.375 1305.226562 556.425781 C 1308.375 550.125 1308.898438 545.851562 1311.675781 540.976562 C 1314.449219 536.023438 1319.101562 526.726562 1321.949219 527.101562 C 1325.023438 527.476562 1330.949219 541.351562 1329.375 545.773438 C 1328.023438 549.601562 1320.601562 550.199219 1316.324219 553.199219 C 1311.601562 556.5 1306.574219 560.925781 1302.226562 564.824219 C 1298.25 568.425781 1294.351562 571.800781 1291.199219 575.699219 C 1288.199219 579.449219 1285.875 583.351562 1283.476562 587.625 C 1280.773438 592.351562 1279.050781 598.351562 1275.976562 603 C 1272.976562 607.5 1269.148438 611.175781 1265.25 615.226562 C 1261.050781 619.648438 1256.324219 624.449219 1251.449219 628.351562 C 1246.726562 632.101562 1242.675781 634.648438 1236.601562 638.175781 C 1227.824219 643.273438 1211.550781 650.476562 1203.148438 654.976562 C 1197.976562 657.75 1194.449219 661.574219 1190.699219 662.101562 C 1187.925781 662.476562 1185.226562 661.425781 1182.976562 660.226562 C 1180.726562 659.023438 1178.550781 657 1177.050781 654.898438 C 1175.625 652.800781 1174.5 650.023438 1174.199219 647.476562 C 1173.898438 644.925781 1174.273438 642 1175.175781 639.601562 C 1176.074219 637.199219 1177.726562 634.800781 1179.675781 633.074219 C 1181.625 631.351562 1184.625 630 1186.726562 629.398438 C 1188.226562 628.949219 1189.125 628.949219 1190.699219 628.949219 C 1193.175781 628.949219 1195.273438 629.925781 1200 630.226562 C 1214.398438 631.273438 1270.648438 633 1287.976562 630.75 C 1295.398438 629.773438 1298.476562 628.5 1303.648438 626.476562 C 1309.125 624.375 1314.75 621.523438 1320 618.226562 C 1325.398438 614.773438 1331.101562 610.726562 1335.523438 606 C 1339.949219 601.351562 1342.425781 596.324219 1346.625 590.023438 C 1352.550781 581.175781 1362.898438 566.550781 1367.25 557.699219 C 1370.023438 552.074219 1370.324219 548.25 1372.425781 543.074219 C 1374.898438 537.074219 1377.824219 529.125 1381.574219 523.949219 C 1384.726562 519.523438 1388.324219 516.976562 1392.601562 513.148438 C 1397.925781 508.351562 1403.773438 502.875 1411.199219 497.851562 C 1420.726562 491.398438 1434.976562 483.898438 1445.699219 478.875 C 1454.476562 474.75 1463.175781 471.226562 1470.523438 469.125 C 1476.148438 467.550781 1478.851562 466.949219 1485.75 466.273438 C 1500.226562 464.851562 1537.949219 465.523438 1553.324219 465.75 C 1561.273438 465.898438 1567.949219 465.523438 1571.476562 466.5 C 1573.050781 466.949219 1573.574219 467.324219 1574.699219 468.226562 C 1576.273438 469.5 1578.449219 471.675781 1579.5 473.773438 C 1580.550781 475.875 1581.148438 478.574219 1581.148438 480.976562 C 1581.148438 483.375 1580.476562 486 1579.351562 488.101562 C 1578.226562 490.199219 1575.976562 492.300781 1574.398438 493.5 C 1573.273438 494.324219 1572.449219 494.773438 1571.101562 495.148438 C 1569.148438 495.75 1566.226562 496.273438 1563.75 495.976562 C 1560.976562 495.675781 1559.023438 493.800781 1555.273438 492.976562 C 1548.148438 491.398438 1536.148438 490.273438 1523.851562 489.675781 C 1506.375 488.851562 1479.148438 488.625 1460.324219 490.273438 C 1445.023438 491.625 1432.273438 494.175781 1419 497.101562 C 1406.324219 499.875 1393.574219 502.5 1382.25 507.074219 C 1371.601562 511.351562 1361.550781 518.023438 1352.625 523.125 C 1345.050781 527.476562 1338.976562 531.300781 1331.925781 535.726562 C 1324.5 540.375 1316.476562 545.25 1309.050781 550.351562 C 1301.699219 555.375 1295.25 559.726562 1287.601562 565.949219 C 1277.773438 573.898438 1264.800781 585.523438 1255.648438 594.898438 C 1247.925781 602.773438 1241.550781 611.625 1235.699219 617.851562 C 1231.5 622.351562 1228.425781 625.425781 1224.300781 629.023438 C 1219.875 632.925781 1215.148438 636.824219 1209.824219 640.425781 C 1203.898438 644.398438 1198.726562 647.476562 1190.023438 651.675781 C 1174.648438 659.175781 1142.851562 670.351562 1124.25 678.601562 C 1110.226562 684.824219 1099.949219 690.898438 1087.726562 696.074219 C 1075.800781 701.175781 1064.101562 705.523438 1051.800781 709.5 C 1039.125 713.550781 1022.851562 717.523438 1012.574219 720.074219 C 1005.976562 721.726562 1002.148438 722.625 996.226562 723.75 C 989.25 725.023438 980.550781 726.300781 973.425781 727.125 C 967.199219 727.800781 962.550781 728.324219 955.875 728.550781 C 947.175781 728.851562 930.75 728.398438 925.726562 728.101562 C 924.074219 728.023438 923.625 728.101562 922.425781 727.726562 C 920.773438 727.199219 918.074219 725.851562 916.726562 724.726562 C 915.75 723.976562 915.226562 723.300781 914.550781 722.25 C 913.648438 720.75 912.523438 717.976562 912.226562 716.25 C 912 714.976562 912 714.226562 912.226562 712.949219 C 912.523438 711.226562 913.351562 708.601562 914.550781 706.875 C 915.75 705.148438 917.550781 703.574219 919.425781 702.601562 C 921.300781 701.625 925.726562 701.023438 925.726562 701.023438 " clip-rule="nonzero"/></clipPath></defs><rect x="-144" width="1728" fill="#ffffff" y="-80.999999" height="971.999992" fill-opacity="1"/><rect x="-144" width="1728" fill="#ffffff" y="-80.999999" height="971.999992" fill-opacity="1"/><rect x="-144" width="1728" fill="#341671" y="-80.999999" height="971.999992" fill-opacity="1"/><g clip-path="url(#a1ccb8940d)"><path fill="#200d44" d="M 436.609375 771.523438 L 1358.96875 771.523438 C 1358.96875 771.523438 1299.113281 567.523438 1130.324219 567.523438 C 961.535156 567.523438 951.359375 735.628906 768.203125 683.582031 C 593.429688 633.929688 446.1875 678.199219 436.609375 771.523438 Z M 436.609375 771.523438 " fill-opacity="1" fill-rule="nonzero"/></g><g clip-path="url(#41107019ff)"><path fill="#220a52" d="M -23.804688 821.1875 L 810.773438 821.1875 C 810.773438 821.1875 756.613281 636.6875 603.886719 636.6875 C 451.164062 636.6875 441.957031 788.722656 276.230469 741.652344 C 118.089844 696.742188 -15.140625 736.78125 -23.804688 821.1875 Z M -23.804688 821.1875 " fill-opacity="1" fill-rule="nonzero"/></g><g clip-path="url(#647fbe6871)"><path fill="#220a52" d="M 810.511719 752.496094 L -111.847656 752.496094 C -111.847656 752.496094 -51.992188 548.496094 116.796875 548.496094 C 285.585938 548.496094 295.761719 716.601562 478.917969 664.554688 C 653.691406 614.902344 800.933594 659.171875 810.511719 752.496094 Z M 810.511719 752.496094 " fill-opacity="1" fill-rule="nonzero"/></g><g clip-path="url(#ebf69cedf8)"><path fill="#220a52" d="M 682.191406 809.773438 L 1642.027344 809.773438 C 1642.027344 809.773438 1579.742188 597.523438 1404.09375 597.523438 C 1228.445312 597.523438 1217.855469 772.425781 1027.257812 718.273438 C 845.382812 666.613281 692.15625 712.671875 682.191406 809.773438 Z M 682.191406 809.773438 " fill-opacity="1" fill-rule="nonzero"/></g><g clip-path="url(#6c2315c7cc)"><path fill="#220a52" d="M 1358.921875 776.027344 L 436.5625 776.027344 C 436.5625 776.027344 496.417969 572.027344 665.207031 572.027344 C 834 572.027344 844.171875 740.132812 1027.328125 688.085938 C 1202.105469 638.433594 1349.347656 682.703125 1358.921875 776.027344 Z M 1358.921875 776.027344 " fill-opacity="1" fill-rule="nonzero"/></g><g clip-path="url(#7ebae8da5e)"><g clip-path="url(#8e010c4589)"><path fill="#220a52" d="M 506.476562 700.875 L 540.226562 700.875 L 540.226562 733.875 L 506.476562 733.875 Z M 506.476562 700.875 " fill-opacity="1" fill-rule="nonzero"/></g></g><g clip-path="url(#8422f43c39)"><g clip-path="url(#5a1e3431d1)"><path fill="#220a52" d="M 191.699219 589.351562 L 584.699219 589.351562 L 584.699219 695.101562 L 191.699219 695.101562 Z M 191.699219 589.351562 " fill-opacity="1" fill-rule="nonzero"/></g></g><g clip-path="url(#56761361d2)"><g clip-path="url(#9ee84af9bc)"><path fill="#220a52" d="M 1133.773438 567.523438 L 1520.773438 567.523438 L 1520.773438 694.273438 L 1133.773438 694.273438 Z M 1133.773438 567.523438 " fill-opacity="1" fill-rule="nonzero"/></g></g><g clip-path="url(#36c72d4cf8)"><g clip-path="url(#21694ee533)"><path fill="#220a52" d="M 909.226562 457.273438 L 1584.226562 457.273438 L 1584.226562 731.773438 L 909.226562 731.773438 Z M 909.226562 457.273438 " fill-opacity="1" fill-rule="nonzero"/></g></g><path fill="#220a52" d="M 1030.207031 -31.203125 C 1028.132812 -38.207031 1028.570312 -39.199219 1035.222656 -42.59375 C 1051.394531 -50.851562 1068.886719 -54.824219 1086.5 -58.421875 C 1120.316406 -65.332031 1154.597656 -67.585938 1188.996094 -68.601562 C 1222.023438 -69.566406 1254.980469 -70.40625 1287.953125 -71.738281 C 1311.601562 -72.703125 1334.699219 -77.894531 1357.960938 -81.941406 C 1374.398438 -84.898438 1390.945312 -87.011719 1407.597656 -88.273438 C 1414.027344 -88.75 1420.449219 -88.675781 1426.867188 -88.050781 C 1433.285156 -87.425781 1439.601562 -86.257812 1445.816406 -84.550781 C 1452.03125 -82.84375 1458.058594 -80.617188 1463.894531 -77.878906 C 1469.726562 -75.136719 1475.285156 -71.917969 1480.570312 -68.222656 C 1515.613281 -44.210938 1545.105469 -14.609375 1566.46875 22.402344 C 1571.085938 30.746094 1574.972656 39.417969 1578.121094 48.417969 C 1578.859375 50.304688 1579.488281 52.226562 1580.007812 54.1875 C 1580.527344 56.144531 1580.933594 58.125 1581.226562 60.132812 C 1581.519531 62.136719 1581.699219 64.148438 1581.761719 66.175781 C 1581.828125 68.199219 1581.777344 70.222656 1581.609375 72.242188 C 1581.441406 74.261719 1581.160156 76.261719 1580.765625 78.25 C 1580.371094 80.238281 1579.867188 82.195312 1579.246094 84.125 C 1578.628906 86.054688 1577.902344 87.941406 1577.070312 89.789062 C 1576.238281 91.636719 1575.300781 93.429688 1574.265625 95.171875 C 1566.972656 108.007812 1558.398438 119.921875 1548.535156 130.910156 C 1538.671875 141.894531 1527.75 151.703125 1515.769531 160.332031 C 1494.78125 175.371094 1471.121094 175.910156 1447.789062 166.617188 C 1434.292969 161.238281 1421.660156 153.585938 1408.980469 146.355469 C 1399.402344 140.882812 1390.269531 134.5625 1381.128906 128.40625 C 1357.230469 112.175781 1331.433594 107.835938 1303.273438 114.40625 C 1286.628906 118.296875 1269.785156 121.316406 1252.550781 121.894531 C 1225.265625 122.816406 1200.117188 115.503906 1176.113281 103.367188 C 1166.394531 98.4375 1156.710938 93.355469 1147.402344 87.703125 C 1122.628906 72.714844 1096.761719 60.082031 1070.375 48.347656 C 1055.453125 41.707031 1040.882812 34.40625 1028.367188 23.6875 C 1023.835938 19.820312 1019.929688 15.402344 1016.644531 10.429688 C 1008.136719 -2.660156 1011.0625 -17.109375 1023.53125 -26.53125 C 1025.738281 -28.171875 1028.027344 -29.679688 1030.207031 -31.203125 Z M 1030.207031 -31.203125 " fill-opacity="1" fill-rule="nonzero"/></svg>