<svg xmlns="http://www.w3.org/2000/svg" xmlns:xlink="http://www.w3.org/1999/xlink" width="1000" zoomAndPan="magnify" viewBox="0 0 750 299.999988" height="400" preserveAspectRatio="xMidYMid meet" version="1.0"><defs><g/></defs><g fill="#ae2d68" fill-opacity="1"><g transform="translate(442.965504, 142.167345)"><g><path d="M 16.042969 -15.664062 L 2.433594 -25.980469 L 2.433594 0 L 7.746094 0 L 7.746094 -15.390625 L 16.042969 -9.390625 L 24.335938 -15.390625 L 24.335938 0 L 29.613281 0 L 29.613281 -25.980469 Z M 16.042969 -15.664062 "/></g></g></g><g fill="#ffffff" fill-opacity="1"><g transform="translate(479.147036, 142.167345)"><g><path d="M 20.976562 0 L 26.769531 0 L 13.265625 -25.980469 L -0.207031 0 L 5.277344 0 L 6.921875 -3.425781 L 19.296875 -3.425781 Z M 13.058594 -16.179688 L 16.964844 -8.226562 L 9.21875 -8.226562 Z M 13.058594 -16.179688 "/></g></g></g><g fill="#ffffff" fill-opacity="1"><g transform="translate(509.817896, 142.167345)"><g><path d="M 12.269531 0 L 12.269531 -20.738281 L 18.988281 -20.738281 L 18.988281 -25.535156 L 0.652344 -25.535156 L 0.652344 -20.738281 L 6.957031 -20.738281 L 6.957031 0 Z M 12.269531 0 "/></g></g></g><g fill="#ffffff" fill-opacity="1"><g transform="translate(533.5667, 142.167345)"><g><path d="M 18.269531 0 L 18.269531 -4.796875 L 7.746094 -4.796875 L 7.746094 -11.207031 L 17.34375 -11.207031 L 17.34375 -15.972656 L 7.746094 -15.972656 L 7.746094 -20.738281 L 16.007812 -20.738281 L 16.007812 -25.535156 L 2.433594 -25.535156 L 2.433594 0 Z M 18.269531 0 "/></g></g></g><g fill="#ffffff" fill-opacity="1"><g transform="translate(557.315503, 142.167345)"><g><path d="M 10.417969 -4.421875 L 14.601562 0 L 21.664062 0 L 16.144531 -5.894531 C 19.707031 -7.539062 21.902344 -10.898438 21.902344 -15.492188 C 21.902344 -21.046875 17.308594 -25.535156 11.3125 -25.535156 L 2.433594 -25.535156 L 2.433594 0 L 7.746094 0 L 7.746094 -4.421875 Z M 7.746094 -9.21875 L 7.746094 -20.738281 L 10.96875 -20.738281 C 14.601562 -20.738281 16.453125 -18.199219 16.453125 -15.082031 C 16.453125 -11.277344 14.15625 -9.21875 9.941406 -9.21875 Z M 7.746094 -9.21875 "/></g></g></g><g fill="#ffffff" fill-opacity="1"><g transform="translate(584.559605, 142.167345)"><g><path d="M 7.746094 -25.535156 L 2.433594 -25.535156 L 2.433594 0 L 7.746094 0 Z M 7.746094 -25.535156 "/></g></g></g><g fill="#ffffff" fill-opacity="1"><g transform="translate(598.850533, 142.167345)"><g><path d="M 20.976562 0 L 26.769531 0 L 13.265625 -25.980469 L -0.207031 0 L 5.277344 0 L 6.921875 -3.425781 L 19.296875 -3.425781 Z M 13.058594 -16.179688 L 16.964844 -8.226562 L 9.21875 -8.226562 Z M 13.058594 -16.179688 "/></g></g></g><g fill="#ffffff" fill-opacity="1"><g transform="translate(629.5214, 142.167345)"><g><path d="M 7.746094 -25.535156 L 2.433594 -25.535156 L 2.433594 0 L 7.746094 0 Z M 7.746094 -25.535156 "/></g></g></g><g fill="#ffffff" fill-opacity="1"><g transform="translate(643.812329, 142.167345)"><g><path d="M 8.570312 -11.3125 C 11.035156 -11.035156 12.40625 -9.769531 12.40625 -7.710938 C 12.40625 -6.066406 11.035156 -4.660156 9.289062 -4.660156 C 7.78125 -4.660156 6.582031 -5.039062 5.414062 -6.511719 L 1.027344 -3.289062 C 3.460938 -0.617188 6.375 0.445312 9.289062 0.445312 C 13.777344 0.445312 17.925781 -3.117188 17.925781 -8.089844 C 17.925781 -13.023438 14.328125 -15.972656 9.972656 -16.246094 C 7.265625 -16.417969 6.410156 -17.480469 6.410156 -18.644531 C 6.410156 -20.050781 7.371094 -20.910156 8.773438 -20.910156 C 9.664062 -20.910156 10.796875 -20.359375 11.480469 -19.640625 L 15.664062 -22.691406 C 13.710938 -25.019531 11.3125 -25.980469 8.773438 -25.980469 C 5.246094 -25.980469 1.269531 -22.929688 1.269531 -18.613281 C 1.269531 -14.601562 4.148438 -11.824219 8.570312 -11.3125 Z M 8.570312 -11.3125 "/></g></g></g><g fill="#ffffff" fill-opacity="1"><g transform="translate(666.978587, 142.167345)"><g/></g></g><g fill="#ffffff" fill-opacity="1"><g transform="translate(685.518694, 142.167345)"><g><path d="M 2.433594 -25.535156 L 2.433594 0 L 12.820312 0 C 20.152344 0 26.152344 -5.449219 26.152344 -12.785156 C 26.152344 -20.050781 20.152344 -25.535156 12.785156 -25.535156 Z M 7.746094 -4.796875 L 7.746094 -20.738281 L 12.785156 -20.738281 C 17.242188 -20.738281 20.703125 -17.414062 20.703125 -12.785156 C 20.703125 -8.191406 17.242188 -4.796875 12.820312 -4.796875 Z M 7.746094 -4.796875 "/></g></g></g><g fill="#ffffff" fill-opacity="1"><g transform="translate(717.149061, 142.167345)"><g><path d="M 18.269531 0 L 18.269531 -4.796875 L 7.746094 -4.796875 L 7.746094 -11.207031 L 17.34375 -11.207031 L 17.34375 -15.972656 L 7.746094 -15.972656 L 7.746094 -20.738281 L 16.007812 -20.738281 L 16.007812 -25.535156 L 2.433594 -25.535156 L 2.433594 0 Z M 18.269531 0 "/></g></g></g><g fill="#ae2d68" fill-opacity="1"><g transform="translate(551.693474, 183.242609)"><g><path d="M 18.269531 0 L 18.269531 -4.796875 L 7.746094 -4.796875 L 7.746094 -11.207031 L 17.34375 -11.207031 L 17.34375 -15.972656 L 7.746094 -15.972656 L 7.746094 -20.738281 L 16.007812 -20.738281 L 16.007812 -25.535156 L 2.433594 -25.535156 L 2.433594 0 Z M 18.269531 0 "/></g></g></g><g fill="#ffffff" fill-opacity="1"><g transform="translate(575.440111, 183.242609)"><g><path d="M 8.570312 -11.3125 C 11.035156 -11.035156 12.40625 -9.769531 12.40625 -7.710938 C 12.40625 -6.066406 11.035156 -4.660156 9.289062 -4.660156 C 7.78125 -4.660156 6.582031 -5.039062 5.414062 -6.511719 L 1.027344 -3.289062 C 3.460938 -0.617188 6.375 0.445312 9.289062 0.445312 C 13.777344 0.445312 17.925781 -3.117188 17.925781 -8.089844 C 17.925781 -13.023438 14.328125 -15.972656 9.972656 -16.246094 C 7.265625 -16.417969 6.410156 -17.480469 6.410156 -18.644531 C 6.410156 -20.050781 7.371094 -20.910156 8.773438 -20.910156 C 9.664062 -20.910156 10.796875 -20.359375 11.480469 -19.640625 L 15.664062 -22.691406 C 13.710938 -25.019531 11.3125 -25.980469 8.773438 -25.980469 C 5.246094 -25.980469 1.269531 -22.929688 1.269531 -18.613281 C 1.269531 -14.601562 4.148438 -11.824219 8.570312 -11.3125 Z M 8.570312 -11.3125 "/></g></g></g><g fill="#ffffff" fill-opacity="1"><g transform="translate(598.606364, 183.242609)"><g><path d="M 12.269531 0 L 12.269531 -20.738281 L 18.988281 -20.738281 L 18.988281 -25.535156 L 0.652344 -25.535156 L 0.652344 -20.738281 L 6.957031 -20.738281 L 6.957031 0 Z M 12.269531 0 "/></g></g></g><g fill="#ffffff" fill-opacity="1"><g transform="translate(622.355167, 183.242609)"><g><path d="M 13.230469 0.445312 C 20.015625 0.445312 24.164062 -3.941406 24.164062 -11.378906 L 24.164062 -25.535156 L 18.921875 -25.535156 L 18.921875 -10.933594 C 18.921875 -7.09375 17.207031 -4.660156 13.230469 -4.660156 C 9.460938 -4.660156 7.507812 -6.921875 7.507812 -10.933594 L 7.507812 -25.535156 L 2.195312 -25.535156 L 2.195312 -11.824219 C 2.195312 -4.730469 5.757812 0.445312 13.230469 0.445312 Z M 13.230469 0.445312 "/></g></g></g><g fill="#ffffff" fill-opacity="1"><g transform="translate(652.820429, 183.242609)"><g><path d="M 2.433594 -25.535156 L 2.433594 0 L 12.820312 0 C 20.152344 0 26.152344 -5.449219 26.152344 -12.785156 C 26.152344 -20.050781 20.152344 -25.535156 12.785156 -25.535156 Z M 7.746094 -4.796875 L 7.746094 -20.738281 L 12.785156 -20.738281 C 17.242188 -20.738281 20.703125 -17.414062 20.703125 -12.785156 C 20.703125 -8.191406 17.242188 -4.796875 12.820312 -4.796875 Z M 7.746094 -4.796875 "/></g></g></g><g fill="#ffffff" fill-opacity="1"><g transform="translate(684.45079, 183.242609)"><g><path d="M 14.601562 0.445312 C 21.902344 0.445312 27.796875 -5.484375 27.796875 -12.785156 C 27.796875 -20.085938 21.902344 -25.980469 14.566406 -25.980469 C 7.265625 -25.980469 1.371094 -20.085938 1.371094 -12.785156 C 1.371094 -5.484375 7.265625 0.445312 14.601562 0.445312 Z M 14.566406 -20.910156 C 18.886719 -20.910156 22.347656 -17.273438 22.347656 -12.785156 C 22.347656 -8.226562 18.921875 -4.660156 14.601562 -4.660156 C 10.214844 -4.660156 6.820312 -8.226562 6.820312 -12.785156 C 6.820312 -17.273438 10.214844 -20.910156 14.566406 -20.910156 Z M 14.566406 -20.910156 "/></g></g></g><g fill="#ffffff" fill-opacity="1"><g transform="translate(717.725997, 183.242609)"><g><path d="M 8.570312 -11.3125 C 11.035156 -11.035156 12.40625 -9.769531 12.40625 -7.710938 C 12.40625 -6.066406 11.035156 -4.660156 9.289062 -4.660156 C 7.78125 -4.660156 6.582031 -5.039062 5.414062 -6.511719 L 1.027344 -3.289062 C 3.460938 -0.617188 6.375 0.445312 9.289062 0.445312 C 13.777344 0.445312 17.925781 -3.117188 17.925781 -8.089844 C 17.925781 -13.023438 14.328125 -15.972656 9.972656 -16.246094 C 7.265625 -16.417969 6.410156 -17.480469 6.410156 -18.644531 C 6.410156 -20.050781 7.371094 -20.910156 8.773438 -20.910156 C 9.664062 -20.910156 10.796875 -20.359375 11.480469 -19.640625 L 15.664062 -22.691406 C 13.710938 -25.019531 11.3125 -25.980469 8.773438 -25.980469 C 5.246094 -25.980469 1.269531 -22.929688 1.269531 -18.613281 C 1.269531 -14.601562 4.148438 -11.824219 8.570312 -11.3125 Z M 8.570312 -11.3125 "/></g></g></g><g fill="#ffffff" fill-opacity="1"><g transform="translate(457.161694, 211.647523)"><g><path d="M 5.828125 -1.875 L 1.765625 -1.875 L 0.9375 0 L 0.046875 0 L 3.375 -7.421875 L 4.25 -7.421875 L 7.578125 0 L 6.65625 0 Z M 5.46875 -2.6875 L 3.78125 -6.46875 L 2.125 -2.6875 Z M 5.46875 -2.6875 "/></g></g></g><g fill="#ffffff" fill-opacity="1"><g transform="translate(465.531647, 211.647523)"><g><path d="M 1.828125 -5.59375 L 1.828125 -4.34375 C 2.210938 -5.1875 2.882812 -5.613281 3.84375 -5.625 L 3.84375 -4.78125 C 3.257812 -4.789062 2.789062 -4.628906 2.4375 -4.296875 C 2.082031 -3.972656 1.878906 -3.53125 1.828125 -2.96875 L 1.828125 0 L 1.015625 0 L 1.015625 -5.59375 Z M 1.828125 -5.59375 "/></g></g></g><g fill="#ffffff" fill-opacity="1"><g transform="translate(470.236139, 211.647523)"><g><path d="M 3.65625 -1.046875 L 3.890625 -0.375 C 3.484375 -0.101562 3.0625 0.0351562 2.625 0.046875 C 2.195312 0.046875 1.851562 -0.0820312 1.59375 -0.34375 C 1.332031 -0.613281 1.203125 -1.015625 1.203125 -1.546875 L 1.203125 -4.75 L 0.40625 -4.75 L 0.40625 -5.40625 L 1.203125 -5.40625 L 1.203125 -6.890625 L 2.03125 -6.890625 L 2.03125 -5.40625 L 3.796875 -5.421875 L 3.796875 -4.75 L 2.03125 -4.75 L 2.03125 -1.703125 C 2.03125 -1.078125 2.273438 -0.765625 2.765625 -0.765625 C 3.054688 -0.765625 3.351562 -0.859375 3.65625 -1.046875 Z M 3.65625 -1.046875 "/></g></g></g><g fill="#ffffff" fill-opacity="1"><g transform="translate(475.131311, 211.647523)"><g><path d="M 1.015625 -7.59375 C 1.117188 -7.707031 1.25 -7.765625 1.40625 -7.765625 C 1.5625 -7.765625 1.691406 -7.707031 1.796875 -7.59375 C 1.898438 -7.488281 1.953125 -7.351562 1.953125 -7.1875 C 1.953125 -7.03125 1.898438 -6.894531 1.796875 -6.78125 C 1.691406 -6.675781 1.5625 -6.625 1.40625 -6.625 C 1.25 -6.625 1.117188 -6.675781 1.015625 -6.78125 C 0.921875 -6.894531 0.875 -7.03125 0.875 -7.1875 C 0.875 -7.351562 0.921875 -7.488281 1.015625 -7.59375 Z M 1.828125 0 L 1.015625 0 L 1.015625 -5.59375 L 1.828125 -5.59375 Z M 1.828125 0 "/></g></g></g><g fill="#ffffff" fill-opacity="1"><g transform="translate(478.723448, 211.647523)"><g><path d="M 5.875 -5.59375 L 5.875 -0.578125 C 5.875 0.234375 5.617188 0.878906 5.109375 1.359375 C 4.597656 1.835938 3.914062 2.078125 3.0625 2.078125 C 2.238281 2.066406 1.476562 1.796875 0.78125 1.265625 L 1.15625 0.640625 C 1.71875 1.109375 2.34375 1.34375 3.03125 1.34375 C 3.644531 1.34375 4.132812 1.171875 4.5 0.828125 C 4.863281 0.484375 5.046875 0.0195312 5.046875 -0.5625 L 5.046875 -1.40625 C 4.640625 -0.632812 3.953125 -0.25 2.984375 -0.25 C 2.242188 -0.25 1.632812 -0.5 1.15625 -1 C 0.6875 -1.5 0.453125 -2.148438 0.453125 -2.953125 C 0.453125 -3.722656 0.679688 -4.359375 1.140625 -4.859375 C 1.609375 -5.359375 2.21875 -5.613281 2.96875 -5.625 C 3.925781 -5.625 4.617188 -5.234375 5.046875 -4.453125 L 5.046875 -5.59375 Z M 1.765625 -1.5 C 2.117188 -1.125 2.578125 -0.9375 3.140625 -0.9375 C 3.703125 -0.9375 4.160156 -1.125 4.515625 -1.5 C 4.867188 -1.875 5.046875 -2.347656 5.046875 -2.921875 C 5.046875 -3.492188 4.867188 -3.96875 4.515625 -4.34375 C 4.160156 -4.71875 3.703125 -4.90625 3.140625 -4.90625 C 2.578125 -4.90625 2.117188 -4.71875 1.765625 -4.34375 C 1.410156 -3.96875 1.226562 -3.492188 1.21875 -2.921875 C 1.226562 -2.347656 1.410156 -1.875 1.765625 -1.5 Z M 1.765625 -1.5 "/></g></g></g><g fill="#ffffff" fill-opacity="1"><g transform="translate(486.224704, 211.647523)"><g><path d="M 1.234375 -4.828125 C 1.765625 -5.347656 2.441406 -5.609375 3.265625 -5.609375 C 4.097656 -5.609375 4.78125 -5.347656 5.3125 -4.828125 C 5.84375 -4.304688 6.109375 -3.628906 6.109375 -2.796875 C 6.109375 -1.960938 5.84375 -1.28125 5.3125 -0.75 C 4.78125 -0.226562 4.097656 0.03125 3.265625 0.03125 C 2.441406 0.03125 1.765625 -0.226562 1.234375 -0.75 C 0.710938 -1.28125 0.453125 -1.960938 0.453125 -2.796875 C 0.453125 -3.628906 0.710938 -4.304688 1.234375 -4.828125 Z M 4.71875 -4.28125 C 4.34375 -4.664062 3.859375 -4.859375 3.265625 -4.859375 C 2.679688 -4.859375 2.203125 -4.664062 1.828125 -4.28125 C 1.453125 -3.894531 1.265625 -3.398438 1.265625 -2.796875 C 1.265625 -2.179688 1.453125 -1.675781 1.828125 -1.28125 C 2.203125 -0.894531 2.679688 -0.703125 3.265625 -0.703125 C 3.859375 -0.703125 4.34375 -0.894531 4.71875 -1.28125 C 5.09375 -1.675781 5.28125 -2.179688 5.28125 -2.796875 C 5.28125 -3.398438 5.09375 -3.894531 4.71875 -4.28125 Z M 4.71875 -4.28125 "/></g></g></g><g fill="#ffffff" fill-opacity="1"><g transform="translate(493.535278, 211.647523)"><g><path d="M 2.5 -5.625 C 3.1875 -5.625 3.78125 -5.453125 4.28125 -5.109375 L 3.953125 -4.453125 C 3.472656 -4.753906 2.96875 -4.90625 2.4375 -4.90625 C 2.101562 -4.90625 1.835938 -4.84375 1.640625 -4.71875 C 1.441406 -4.601562 1.34375 -4.421875 1.34375 -4.171875 C 1.34375 -3.941406 1.445312 -3.757812 1.65625 -3.625 C 1.875 -3.488281 2.132812 -3.375 2.4375 -3.28125 C 2.738281 -3.195312 3.039062 -3.097656 3.34375 -2.984375 C 3.65625 -2.878906 3.914062 -2.707031 4.125 -2.46875 C 4.34375 -2.226562 4.453125 -1.925781 4.453125 -1.5625 C 4.453125 -1.039062 4.253906 -0.644531 3.859375 -0.375 C 3.472656 -0.101562 2.988281 0.03125 2.40625 0.03125 C 1.519531 0.03125 0.804688 -0.226562 0.265625 -0.75 L 0.578125 -1.375 C 0.816406 -1.15625 1.101562 -0.984375 1.4375 -0.859375 C 1.769531 -0.734375 2.101562 -0.671875 2.4375 -0.671875 C 2.78125 -0.671875 3.0625 -0.738281 3.28125 -0.875 C 3.507812 -1.007812 3.628906 -1.207031 3.640625 -1.46875 C 3.648438 -1.707031 3.546875 -1.898438 3.328125 -2.046875 C 3.117188 -2.203125 2.859375 -2.320312 2.546875 -2.40625 C 2.242188 -2.5 1.941406 -2.597656 1.640625 -2.703125 C 1.335938 -2.804688 1.078125 -2.972656 0.859375 -3.203125 C 0.648438 -3.429688 0.546875 -3.734375 0.546875 -4.109375 C 0.546875 -4.609375 0.734375 -4.984375 1.109375 -5.234375 C 1.484375 -5.492188 1.945312 -5.625 2.5 -5.625 Z M 2.5 -5.625 "/></g></g></g><g fill="#ffffff" fill-opacity="1"><g transform="translate(499.09787, 211.647523)"><g/></g></g><g fill="#ffffff" fill-opacity="1"><g transform="translate(502.764164, 211.647523)"><g><path d="M 4.296875 -7.453125 C 4.796875 -7.453125 5.28125 -7.351562 5.75 -7.15625 C 6.226562 -6.96875 6.648438 -6.703125 7.015625 -6.359375 L 6.5 -5.71875 C 5.894531 -6.34375 5.164062 -6.65625 4.3125 -6.65625 C 3.46875 -6.65625 2.75 -6.367188 2.15625 -5.796875 C 1.570312 -5.222656 1.28125 -4.53125 1.28125 -3.71875 C 1.28125 -2.90625 1.578125 -2.210938 2.171875 -1.640625 C 2.765625 -1.078125 3.476562 -0.796875 4.3125 -0.796875 C 5.144531 -0.796875 5.875 -1.09375 6.5 -1.6875 L 7.015625 -1.109375 C 6.203125 -0.335938 5.285156 0.046875 4.265625 0.046875 C 3.191406 0.046875 2.28125 -0.316406 1.53125 -1.046875 C 0.789062 -1.773438 0.421875 -2.664062 0.421875 -3.71875 C 0.421875 -4.757812 0.796875 -5.640625 1.546875 -6.359375 C 2.304688 -7.085938 3.222656 -7.453125 4.296875 -7.453125 Z M 4.296875 -7.453125 "/></g></g></g><g fill="#ffffff" fill-opacity="1"><g transform="translate(510.943428, 211.647523)"><g><path d="M 1.015625 -7.59375 C 1.117188 -7.707031 1.25 -7.765625 1.40625 -7.765625 C 1.5625 -7.765625 1.691406 -7.707031 1.796875 -7.59375 C 1.898438 -7.488281 1.953125 -7.351562 1.953125 -7.1875 C 1.953125 -7.03125 1.898438 -6.894531 1.796875 -6.78125 C 1.691406 -6.675781 1.5625 -6.625 1.40625 -6.625 C 1.25 -6.625 1.117188 -6.675781 1.015625 -6.78125 C 0.921875 -6.894531 0.875 -7.03125 0.875 -7.1875 C 0.875 -7.351562 0.921875 -7.488281 1.015625 -7.59375 Z M 1.828125 0 L 1.015625 0 L 1.015625 -5.59375 L 1.828125 -5.59375 Z M 1.828125 0 "/></g></g></g><g fill="#ffffff" fill-opacity="1"><g transform="translate(514.535568, 211.647523)"><g><path d="M 3.21875 -5.609375 C 4.101562 -5.617188 4.769531 -5.335938 5.21875 -4.765625 C 5.664062 -4.203125 5.867188 -3.4375 5.828125 -2.46875 L 1.265625 -2.46875 C 1.335938 -1.925781 1.554688 -1.492188 1.921875 -1.171875 C 2.285156 -0.847656 2.738281 -0.6875 3.28125 -0.6875 C 3.988281 -0.6875 4.566406 -0.921875 5.015625 -1.390625 L 5.46875 -0.90625 C 4.914062 -0.28125 4.164062 0.03125 3.21875 0.03125 C 2.40625 0.03125 1.738281 -0.226562 1.21875 -0.75 C 0.707031 -1.269531 0.453125 -1.945312 0.453125 -2.78125 C 0.453125 -3.625 0.707031 -4.304688 1.21875 -4.828125 C 1.738281 -5.347656 2.40625 -5.609375 3.21875 -5.609375 Z M 1.265625 -3.15625 L 5.078125 -3.15625 C 5.054688 -3.6875 4.875 -4.109375 4.53125 -4.421875 C 4.195312 -4.742188 3.757812 -4.90625 3.21875 -4.90625 C 2.6875 -4.90625 2.242188 -4.742188 1.890625 -4.421875 C 1.535156 -4.109375 1.328125 -3.6875 1.265625 -3.15625 Z M 1.265625 -3.15625 "/></g></g></g><g fill="#ffffff" fill-opacity="1"><g transform="translate(521.528319, 211.647523)"><g><path d="M 4 -5.625 C 4.664062 -5.625 5.1875 -5.429688 5.5625 -5.046875 C 5.9375 -4.660156 6.125 -4.128906 6.125 -3.453125 L 6.125 0 L 5.296875 0 L 5.296875 -3.21875 C 5.296875 -3.71875 5.15625 -4.101562 4.875 -4.375 C 4.59375 -4.65625 4.207031 -4.796875 3.71875 -4.796875 C 3.164062 -4.785156 2.722656 -4.617188 2.390625 -4.296875 C 2.066406 -3.972656 1.878906 -3.539062 1.828125 -3 L 1.828125 0 L 1.015625 0 L 1.015625 -5.59375 L 1.828125 -5.59375 L 1.828125 -4.359375 C 2.210938 -5.191406 2.9375 -5.613281 4 -5.625 Z M 4 -5.625 "/></g></g></g><g fill="#ffffff" fill-opacity="1"><g transform="translate(529.241453, 211.647523)"><g><path d="M 3.65625 -1.046875 L 3.890625 -0.375 C 3.484375 -0.101562 3.0625 0.0351562 2.625 0.046875 C 2.195312 0.046875 1.851562 -0.0820312 1.59375 -0.34375 C 1.332031 -0.613281 1.203125 -1.015625 1.203125 -1.546875 L 1.203125 -4.75 L 0.40625 -4.75 L 0.40625 -5.40625 L 1.203125 -5.40625 L 1.203125 -6.890625 L 2.03125 -6.890625 L 2.03125 -5.40625 L 3.796875 -5.421875 L 3.796875 -4.75 L 2.03125 -4.75 L 2.03125 -1.703125 C 2.03125 -1.078125 2.273438 -0.765625 2.765625 -0.765625 C 3.054688 -0.765625 3.351562 -0.859375 3.65625 -1.046875 Z M 3.65625 -1.046875 "/></g></g></g><g fill="#ffffff" fill-opacity="1"><g transform="translate(534.136629, 211.647523)"><g><path d="M 2.953125 -7.546875 L 1.640625 -6.515625 L 0.84375 -6.515625 L 2.125 -7.953125 Z M 1.828125 0 L 1.015625 0 L 1.015625 -5.59375 L 1.828125 -5.59375 Z M 1.828125 0 "/></g></g></g><g fill="#ffffff" fill-opacity="1"><g transform="translate(537.728769, 211.647523)"><g><path d="M 2.984375 -7.140625 C 2.703125 -7.140625 2.46875 -7.050781 2.28125 -6.875 C 2.09375 -6.695312 2 -6.453125 2 -6.140625 L 2 -5.421875 L 3.59375 -5.421875 L 3.59375 -4.75 L 2 -4.75 L 2 0 L 1.171875 0 L 1.171875 -4.75 L 0.453125 -4.75 L 0.453125 -5.421875 L 1.171875 -5.421875 L 1.171875 -6.03125 C 1.171875 -6.613281 1.347656 -7.070312 1.703125 -7.40625 C 2.054688 -7.75 2.476562 -7.921875 2.96875 -7.921875 C 3.4375 -7.898438 3.835938 -7.765625 4.171875 -7.515625 L 3.828125 -6.859375 C 3.554688 -7.046875 3.273438 -7.140625 2.984375 -7.140625 Z M 2.984375 -7.140625 "/></g></g></g><g fill="#ffffff" fill-opacity="1"><g transform="translate(541.924756, 211.647523)"><g><path d="M 1.015625 -7.59375 C 1.117188 -7.707031 1.25 -7.765625 1.40625 -7.765625 C 1.5625 -7.765625 1.691406 -7.707031 1.796875 -7.59375 C 1.898438 -7.488281 1.953125 -7.351562 1.953125 -7.1875 C 1.953125 -7.03125 1.898438 -6.894531 1.796875 -6.78125 C 1.691406 -6.675781 1.5625 -6.625 1.40625 -6.625 C 1.25 -6.625 1.117188 -6.675781 1.015625 -6.78125 C 0.921875 -6.894531 0.875 -7.03125 0.875 -7.1875 C 0.875 -7.351562 0.921875 -7.488281 1.015625 -7.59375 Z M 1.828125 0 L 1.015625 0 L 1.015625 -5.59375 L 1.828125 -5.59375 Z M 1.828125 0 "/></g></g></g><g fill="#ffffff" fill-opacity="1"><g transform="translate(545.516896, 211.647523)"><g><path d="M 3.21875 -5.609375 C 4.113281 -5.617188 4.832031 -5.34375 5.375 -4.78125 L 4.90625 -4.203125 C 4.457031 -4.628906 3.90625 -4.84375 3.25 -4.84375 C 2.664062 -4.84375 2.1875 -4.648438 1.8125 -4.265625 C 1.445312 -3.890625 1.265625 -3.394531 1.265625 -2.78125 C 1.265625 -2.175781 1.445312 -1.679688 1.8125 -1.296875 C 2.1875 -0.910156 2.664062 -0.71875 3.25 -0.71875 C 4 -0.71875 4.570312 -0.957031 4.96875 -1.4375 L 5.453125 -0.9375 C 4.921875 -0.289062 4.175781 0.03125 3.21875 0.03125 C 2.40625 0.03125 1.738281 -0.226562 1.21875 -0.75 C 0.707031 -1.269531 0.453125 -1.953125 0.453125 -2.796875 C 0.453125 -3.617188 0.707031 -4.289062 1.21875 -4.8125 C 1.738281 -5.34375 2.40625 -5.609375 3.21875 -5.609375 Z M 3.21875 -5.609375 "/></g></g></g><g fill="#ffffff" fill-opacity="1"><g transform="translate(552.223614, 211.647523)"><g><path d="M 1.234375 -4.828125 C 1.765625 -5.347656 2.441406 -5.609375 3.265625 -5.609375 C 4.097656 -5.609375 4.78125 -5.347656 5.3125 -4.828125 C 5.84375 -4.304688 6.109375 -3.628906 6.109375 -2.796875 C 6.109375 -1.960938 5.84375 -1.28125 5.3125 -0.75 C 4.78125 -0.226562 4.097656 0.03125 3.265625 0.03125 C 2.441406 0.03125 1.765625 -0.226562 1.234375 -0.75 C 0.710938 -1.28125 0.453125 -1.960938 0.453125 -2.796875 C 0.453125 -3.628906 0.710938 -4.304688 1.234375 -4.828125 Z M 4.71875 -4.28125 C 4.34375 -4.664062 3.859375 -4.859375 3.265625 -4.859375 C 2.679688 -4.859375 2.203125 -4.664062 1.828125 -4.28125 C 1.453125 -3.894531 1.265625 -3.398438 1.265625 -2.796875 C 1.265625 -2.179688 1.453125 -1.675781 1.828125 -1.28125 C 2.203125 -0.894531 2.679688 -0.703125 3.265625 -0.703125 C 3.859375 -0.703125 4.34375 -0.894531 4.71875 -1.28125 C 5.09375 -1.675781 5.28125 -2.179688 5.28125 -2.796875 C 5.28125 -3.398438 5.09375 -3.894531 4.71875 -4.28125 Z M 4.71875 -4.28125 "/></g></g></g><g fill="#ffffff" fill-opacity="1"><g transform="translate(559.534191, 211.647523)"><g><path d="M 2.5 -5.625 C 3.1875 -5.625 3.78125 -5.453125 4.28125 -5.109375 L 3.953125 -4.453125 C 3.472656 -4.753906 2.96875 -4.90625 2.4375 -4.90625 C 2.101562 -4.90625 1.835938 -4.84375 1.640625 -4.71875 C 1.441406 -4.601562 1.34375 -4.421875 1.34375 -4.171875 C 1.34375 -3.941406 1.445312 -3.757812 1.65625 -3.625 C 1.875 -3.488281 2.132812 -3.375 2.4375 -3.28125 C 2.738281 -3.195312 3.039062 -3.097656 3.34375 -2.984375 C 3.65625 -2.878906 3.914062 -2.707031 4.125 -2.46875 C 4.34375 -2.226562 4.453125 -1.925781 4.453125 -1.5625 C 4.453125 -1.039062 4.253906 -0.644531 3.859375 -0.375 C 3.472656 -0.101562 2.988281 0.03125 2.40625 0.03125 C 1.519531 0.03125 0.804688 -0.226562 0.265625 -0.75 L 0.578125 -1.375 C 0.816406 -1.15625 1.101562 -0.984375 1.4375 -0.859375 C 1.769531 -0.734375 2.101562 -0.671875 2.4375 -0.671875 C 2.78125 -0.671875 3.0625 -0.738281 3.28125 -0.875 C 3.507812 -1.007812 3.628906 -1.207031 3.640625 -1.46875 C 3.648438 -1.707031 3.546875 -1.898438 3.328125 -2.046875 C 3.117188 -2.203125 2.859375 -2.320312 2.546875 -2.40625 C 2.242188 -2.5 1.941406 -2.597656 1.640625 -2.703125 C 1.335938 -2.804688 1.078125 -2.972656 0.859375 -3.203125 C 0.648438 -3.429688 0.546875 -3.734375 0.546875 -4.109375 C 0.546875 -4.609375 0.734375 -4.984375 1.109375 -5.234375 C 1.484375 -5.492188 1.945312 -5.625 2.5 -5.625 Z M 2.5 -5.625 "/></g></g></g><g fill="#ffffff" fill-opacity="1"><g transform="translate(565.096786, 211.647523)"><g/></g></g><g fill="#ffffff" fill-opacity="1"><g transform="translate(568.759341, 211.647523)"><g><path d="M 1.65625 1.28125 L 1 1.28125 L 1 -8.640625 L 1.65625 -8.640625 Z M 1.65625 1.28125 "/></g></g></g><g fill="#ffffff" fill-opacity="1"><g transform="translate(572.171383, 211.647523)"><g/></g></g><g fill="#ffffff" fill-opacity="1"><g transform="translate(575.837678, 211.647523)"><g><path d="M 1.125 -7.421875 L 4.125 -7.421875 C 5.207031 -7.421875 6.113281 -7.066406 6.84375 -6.359375 C 7.582031 -5.648438 7.953125 -4.765625 7.953125 -3.703125 C 7.953125 -2.648438 7.582031 -1.769531 6.84375 -1.0625 C 6.101562 -0.351562 5.1875 0 4.09375 0 L 1.125 0 Z M 1.96875 -6.609375 L 1.96875 -0.8125 L 4.140625 -0.8125 C 4.972656 -0.8125 5.671875 -1.085938 6.234375 -1.640625 C 6.804688 -2.191406 7.09375 -2.878906 7.09375 -3.703125 C 7.09375 -4.523438 6.800781 -5.210938 6.21875 -5.765625 C 5.644531 -6.328125 4.941406 -6.609375 4.109375 -6.609375 Z M 1.96875 -6.609375 "/></g></g></g><g fill="#ffffff" fill-opacity="1"><g transform="translate(584.959794, 211.647523)"><g><path d="M 1.015625 -7.59375 C 1.117188 -7.707031 1.25 -7.765625 1.40625 -7.765625 C 1.5625 -7.765625 1.691406 -7.707031 1.796875 -7.59375 C 1.898438 -7.488281 1.953125 -7.351562 1.953125 -7.1875 C 1.953125 -7.03125 1.898438 -6.894531 1.796875 -6.78125 C 1.691406 -6.675781 1.5625 -6.625 1.40625 -6.625 C 1.25 -6.625 1.117188 -6.675781 1.015625 -6.78125 C 0.921875 -6.894531 0.875 -7.03125 0.875 -7.1875 C 0.875 -7.351562 0.921875 -7.488281 1.015625 -7.59375 Z M 1.828125 0 L 1.015625 0 L 1.015625 -5.59375 L 1.828125 -5.59375 Z M 1.828125 0 "/></g></g></g><g fill="#ffffff" fill-opacity="1"><g transform="translate(588.551931, 211.647523)"><g><path d="M 2.5 -5.625 C 3.1875 -5.625 3.78125 -5.453125 4.28125 -5.109375 L 3.953125 -4.453125 C 3.472656 -4.753906 2.96875 -4.90625 2.4375 -4.90625 C 2.101562 -4.90625 1.835938 -4.84375 1.640625 -4.71875 C 1.441406 -4.601562 1.34375 -4.421875 1.34375 -4.171875 C 1.34375 -3.941406 1.445312 -3.757812 1.65625 -3.625 C 1.875 -3.488281 2.132812 -3.375 2.4375 -3.28125 C 2.738281 -3.195312 3.039062 -3.097656 3.34375 -2.984375 C 3.65625 -2.878906 3.914062 -2.707031 4.125 -2.46875 C 4.34375 -2.226562 4.453125 -1.925781 4.453125 -1.5625 C 4.453125 -1.039062 4.253906 -0.644531 3.859375 -0.375 C 3.472656 -0.101562 2.988281 0.03125 2.40625 0.03125 C 1.519531 0.03125 0.804688 -0.226562 0.265625 -0.75 L 0.578125 -1.375 C 0.816406 -1.15625 1.101562 -0.984375 1.4375 -0.859375 C 1.769531 -0.734375 2.101562 -0.671875 2.4375 -0.671875 C 2.78125 -0.671875 3.0625 -0.738281 3.28125 -0.875 C 3.507812 -1.007812 3.628906 -1.207031 3.640625 -1.46875 C 3.648438 -1.707031 3.546875 -1.898438 3.328125 -2.046875 C 3.117188 -2.203125 2.859375 -2.320312 2.546875 -2.40625 C 2.242188 -2.5 1.941406 -2.597656 1.640625 -2.703125 C 1.335938 -2.804688 1.078125 -2.972656 0.859375 -3.203125 C 0.648438 -3.429688 0.546875 -3.734375 0.546875 -4.109375 C 0.546875 -4.609375 0.734375 -4.984375 1.109375 -5.234375 C 1.484375 -5.492188 1.945312 -5.625 2.5 -5.625 Z M 2.5 -5.625 "/></g></g></g><g fill="#ffffff" fill-opacity="1"><g transform="translate(594.114523, 211.647523)"><g><path d="M 2.5 -5.625 C 3.1875 -5.625 3.78125 -5.453125 4.28125 -5.109375 L 3.953125 -4.453125 C 3.472656 -4.753906 2.96875 -4.90625 2.4375 -4.90625 C 2.101562 -4.90625 1.835938 -4.84375 1.640625 -4.71875 C 1.441406 -4.601562 1.34375 -4.421875 1.34375 -4.171875 C 1.34375 -3.941406 1.445312 -3.757812 1.65625 -3.625 C 1.875 -3.488281 2.132812 -3.375 2.4375 -3.28125 C 2.738281 -3.195312 3.039062 -3.097656 3.34375 -2.984375 C 3.65625 -2.878906 3.914062 -2.707031 4.125 -2.46875 C 4.34375 -2.226562 4.453125 -1.925781 4.453125 -1.5625 C 4.453125 -1.039062 4.253906 -0.644531 3.859375 -0.375 C 3.472656 -0.101562 2.988281 0.03125 2.40625 0.03125 C 1.519531 0.03125 0.804688 -0.226562 0.265625 -0.75 L 0.578125 -1.375 C 0.816406 -1.15625 1.101562 -0.984375 1.4375 -0.859375 C 1.769531 -0.734375 2.101562 -0.671875 2.4375 -0.671875 C 2.78125 -0.671875 3.0625 -0.738281 3.28125 -0.875 C 3.507812 -1.007812 3.628906 -1.207031 3.640625 -1.46875 C 3.648438 -1.707031 3.546875 -1.898438 3.328125 -2.046875 C 3.117188 -2.203125 2.859375 -2.320312 2.546875 -2.40625 C 2.242188 -2.5 1.941406 -2.597656 1.640625 -2.703125 C 1.335938 -2.804688 1.078125 -2.972656 0.859375 -3.203125 C 0.648438 -3.429688 0.546875 -3.734375 0.546875 -4.109375 C 0.546875 -4.609375 0.734375 -4.984375 1.109375 -5.234375 C 1.484375 -5.492188 1.945312 -5.625 2.5 -5.625 Z M 2.5 -5.625 "/></g></g></g><g fill="#ffffff" fill-opacity="1"><g transform="translate(599.677115, 211.647523)"><g><path d="M 3.21875 -5.609375 C 4.101562 -5.617188 4.769531 -5.335938 5.21875 -4.765625 C 5.664062 -4.203125 5.867188 -3.4375 5.828125 -2.46875 L 1.265625 -2.46875 C 1.335938 -1.925781 1.554688 -1.492188 1.921875 -1.171875 C 2.285156 -0.847656 2.738281 -0.6875 3.28125 -0.6875 C 3.988281 -0.6875 4.566406 -0.921875 5.015625 -1.390625 L 5.46875 -0.90625 C 4.914062 -0.28125 4.164062 0.03125 3.21875 0.03125 C 2.40625 0.03125 1.738281 -0.226562 1.21875 -0.75 C 0.707031 -1.269531 0.453125 -1.945312 0.453125 -2.78125 C 0.453125 -3.625 0.707031 -4.304688 1.21875 -4.828125 C 1.738281 -5.347656 2.40625 -5.609375 3.21875 -5.609375 Z M 1.265625 -3.15625 L 5.078125 -3.15625 C 5.054688 -3.6875 4.875 -4.109375 4.53125 -4.421875 C 4.195312 -4.742188 3.757812 -4.90625 3.21875 -4.90625 C 2.6875 -4.90625 2.242188 -4.742188 1.890625 -4.421875 C 1.535156 -4.109375 1.328125 -3.6875 1.265625 -3.15625 Z M 1.265625 -3.15625 "/></g></g></g><g fill="#ffffff" fill-opacity="1"><g transform="translate(606.669863, 211.647523)"><g><path d="M 1.828125 -5.59375 L 1.828125 -4.34375 C 2.210938 -5.1875 2.882812 -5.613281 3.84375 -5.625 L 3.84375 -4.78125 C 3.257812 -4.789062 2.789062 -4.628906 2.4375 -4.296875 C 2.082031 -3.972656 1.878906 -3.53125 1.828125 -2.96875 L 1.828125 0 L 1.015625 0 L 1.015625 -5.59375 Z M 1.828125 -5.59375 "/></g></g></g><g fill="#ffffff" fill-opacity="1"><g transform="translate(611.374355, 211.647523)"><g><path d="M 3.65625 -1.046875 L 3.890625 -0.375 C 3.484375 -0.101562 3.0625 0.0351562 2.625 0.046875 C 2.195312 0.046875 1.851562 -0.0820312 1.59375 -0.34375 C 1.332031 -0.613281 1.203125 -1.015625 1.203125 -1.546875 L 1.203125 -4.75 L 0.40625 -4.75 L 0.40625 -5.40625 L 1.203125 -5.40625 L 1.203125 -6.890625 L 2.03125 -6.890625 L 2.03125 -5.40625 L 3.796875 -5.421875 L 3.796875 -4.75 L 2.03125 -4.75 L 2.03125 -1.703125 C 2.03125 -1.078125 2.273438 -0.765625 2.765625 -0.765625 C 3.054688 -0.765625 3.351562 -0.859375 3.65625 -1.046875 Z M 3.65625 -1.046875 "/></g></g></g><g fill="#ffffff" fill-opacity="1"><g transform="translate(616.269527, 211.647523)"><g><path d="M 4.484375 0 L 4.484375 -0.859375 C 4.035156 -0.253906 3.347656 0.046875 2.421875 0.046875 C 1.859375 0.046875 1.398438 -0.113281 1.046875 -0.4375 C 0.703125 -0.757812 0.53125 -1.171875 0.53125 -1.671875 C 0.53125 -2.148438 0.710938 -2.53125 1.078125 -2.8125 C 1.453125 -3.101562 1.96875 -3.253906 2.625 -3.265625 L 4.453125 -3.265625 L 4.453125 -3.59375 C 4.453125 -4.007812 4.320312 -4.332031 4.0625 -4.5625 C 3.8125 -4.789062 3.441406 -4.90625 2.953125 -4.90625 C 2.390625 -4.90625 1.800781 -4.691406 1.1875 -4.265625 L 0.84375 -4.875 C 1.238281 -5.132812 1.601562 -5.320312 1.9375 -5.4375 C 2.269531 -5.5625 2.664062 -5.625 3.125 -5.625 C 3.800781 -5.625 4.328125 -5.453125 4.703125 -5.109375 C 5.078125 -4.773438 5.265625 -4.300781 5.265625 -3.6875 L 5.28125 0 Z M 2.59375 -0.671875 C 3.0625 -0.671875 3.460938 -0.78125 3.796875 -1 C 4.140625 -1.226562 4.363281 -1.539062 4.46875 -1.9375 L 4.46875 -2.59375 L 2.734375 -2.59375 C 1.785156 -2.59375 1.3125 -2.296875 1.3125 -1.703125 C 1.3125 -1.390625 1.425781 -1.140625 1.65625 -0.953125 C 1.882812 -0.765625 2.195312 -0.671875 2.59375 -0.671875 Z M 2.59375 -0.671875 "/></g></g></g><g fill="#ffffff" fill-opacity="1"><g transform="translate(623.145752, 211.647523)"><g><path d="M 4.96875 -1.4375 L 5.453125 -0.9375 C 4.984375 -0.363281 4.328125 -0.046875 3.484375 0.015625 L 3.25 0.53125 C 3.476562 0.5625 3.660156 0.644531 3.796875 0.78125 C 3.941406 0.925781 4.015625 1.113281 4.015625 1.34375 C 4.015625 1.625 3.914062 1.847656 3.71875 2.015625 C 3.53125 2.191406 3.285156 2.28125 2.984375 2.28125 C 2.648438 2.28125 2.363281 2.195312 2.125 2.03125 L 2.296875 1.5625 C 2.472656 1.707031 2.679688 1.78125 2.921875 1.78125 C 3.097656 1.78125 3.238281 1.726562 3.34375 1.625 C 3.445312 1.53125 3.492188 1.414062 3.484375 1.28125 C 3.484375 1.164062 3.4375 1.0625 3.34375 0.96875 C 3.25 0.882812 3.117188 0.84375 2.953125 0.84375 C 2.828125 0.84375 2.710938 0.851562 2.609375 0.875 L 2.953125 0.015625 C 2.203125 -0.0351562 1.597656 -0.316406 1.140625 -0.828125 C 0.679688 -1.347656 0.453125 -2.003906 0.453125 -2.796875 C 0.453125 -3.617188 0.707031 -4.289062 1.21875 -4.8125 C 1.738281 -5.34375 2.40625 -5.609375 3.21875 -5.609375 C 4.113281 -5.617188 4.832031 -5.34375 5.375 -4.78125 L 4.90625 -4.203125 C 4.457031 -4.628906 3.90625 -4.84375 3.25 -4.84375 C 2.664062 -4.84375 2.1875 -4.648438 1.8125 -4.265625 C 1.445312 -3.890625 1.265625 -3.394531 1.265625 -2.78125 C 1.265625 -2.175781 1.445312 -1.679688 1.8125 -1.296875 C 2.1875 -0.910156 2.664062 -0.71875 3.25 -0.71875 C 4 -0.71875 4.570312 -0.957031 4.96875 -1.4375 Z M 4.96875 -1.4375 "/></g></g></g><g fill="#ffffff" fill-opacity="1"><g transform="translate(629.852464, 211.647523)"><g><path d="M 2.578125 -7.90625 C 2.773438 -7.90625 3.007812 -7.796875 3.28125 -7.578125 C 3.550781 -7.367188 3.742188 -7.265625 3.859375 -7.265625 C 4.160156 -7.265625 4.3125 -7.445312 4.3125 -7.8125 L 4.875 -7.8125 C 4.875 -7.019531 4.578125 -6.625 3.984375 -6.625 C 3.765625 -6.625 3.523438 -6.726562 3.265625 -6.9375 C 3.015625 -7.144531 2.828125 -7.25 2.703125 -7.25 C 2.398438 -7.25 2.25 -7.066406 2.25 -6.703125 L 1.703125 -6.703125 C 1.703125 -7.503906 1.992188 -7.90625 2.578125 -7.90625 Z M 1.234375 -4.828125 C 1.765625 -5.347656 2.441406 -5.609375 3.265625 -5.609375 C 4.097656 -5.609375 4.78125 -5.347656 5.3125 -4.828125 C 5.84375 -4.304688 6.109375 -3.628906 6.109375 -2.796875 C 6.109375 -1.960938 5.84375 -1.28125 5.3125 -0.75 C 4.78125 -0.226562 4.097656 0.03125 3.265625 0.03125 C 2.441406 0.03125 1.765625 -0.226562 1.234375 -0.75 C 0.710938 -1.28125 0.453125 -1.960938 0.453125 -2.796875 C 0.453125 -3.628906 0.710938 -4.304688 1.234375 -4.828125 Z M 4.71875 -4.28125 C 4.34375 -4.664062 3.859375 -4.859375 3.265625 -4.859375 C 2.679688 -4.859375 2.203125 -4.664062 1.828125 -4.28125 C 1.453125 -3.894531 1.265625 -3.398438 1.265625 -2.796875 C 1.265625 -2.179688 1.453125 -1.675781 1.828125 -1.28125 C 2.203125 -0.894531 2.679688 -0.703125 3.265625 -0.703125 C 3.859375 -0.703125 4.34375 -0.894531 4.71875 -1.28125 C 5.09375 -1.675781 5.28125 -2.179688 5.28125 -2.796875 C 5.28125 -3.398438 5.09375 -3.894531 4.71875 -4.28125 Z M 4.71875 -4.28125 "/></g></g></g><g fill="#ffffff" fill-opacity="1"><g transform="translate(637.163041, 211.647523)"><g><path d="M 3.21875 -5.609375 C 4.101562 -5.617188 4.769531 -5.335938 5.21875 -4.765625 C 5.664062 -4.203125 5.867188 -3.4375 5.828125 -2.46875 L 1.265625 -2.46875 C 1.335938 -1.925781 1.554688 -1.492188 1.921875 -1.171875 C 2.285156 -0.847656 2.738281 -0.6875 3.28125 -0.6875 C 3.988281 -0.6875 4.566406 -0.921875 5.015625 -1.390625 L 5.46875 -0.90625 C 4.914062 -0.28125 4.164062 0.03125 3.21875 0.03125 C 2.40625 0.03125 1.738281 -0.226562 1.21875 -0.75 C 0.707031 -1.269531 0.453125 -1.945312 0.453125 -2.78125 C 0.453125 -3.625 0.707031 -4.304688 1.21875 -4.828125 C 1.738281 -5.347656 2.40625 -5.609375 3.21875 -5.609375 Z M 1.265625 -3.15625 L 5.078125 -3.15625 C 5.054688 -3.6875 4.875 -4.109375 4.53125 -4.421875 C 4.195312 -4.742188 3.757812 -4.90625 3.21875 -4.90625 C 2.6875 -4.90625 2.242188 -4.742188 1.890625 -4.421875 C 1.535156 -4.109375 1.328125 -3.6875 1.265625 -3.15625 Z M 1.265625 -3.15625 "/></g></g></g><g fill="#ffffff" fill-opacity="1"><g transform="translate(644.155792, 211.647523)"><g><path d="M 2.5 -5.625 C 3.1875 -5.625 3.78125 -5.453125 4.28125 -5.109375 L 3.953125 -4.453125 C 3.472656 -4.753906 2.96875 -4.90625 2.4375 -4.90625 C 2.101562 -4.90625 1.835938 -4.84375 1.640625 -4.71875 C 1.441406 -4.601562 1.34375 -4.421875 1.34375 -4.171875 C 1.34375 -3.941406 1.445312 -3.757812 1.65625 -3.625 C 1.875 -3.488281 2.132812 -3.375 2.4375 -3.28125 C 2.738281 -3.195312 3.039062 -3.097656 3.34375 -2.984375 C 3.65625 -2.878906 3.914062 -2.707031 4.125 -2.46875 C 4.34375 -2.226562 4.453125 -1.925781 4.453125 -1.5625 C 4.453125 -1.039062 4.253906 -0.644531 3.859375 -0.375 C 3.472656 -0.101562 2.988281 0.03125 2.40625 0.03125 C 1.519531 0.03125 0.804688 -0.226562 0.265625 -0.75 L 0.578125 -1.375 C 0.816406 -1.15625 1.101562 -0.984375 1.4375 -0.859375 C 1.769531 -0.734375 2.101562 -0.671875 2.4375 -0.671875 C 2.78125 -0.671875 3.0625 -0.738281 3.28125 -0.875 C 3.507812 -1.007812 3.628906 -1.207031 3.640625 -1.46875 C 3.648438 -1.707031 3.546875 -1.898438 3.328125 -2.046875 C 3.117188 -2.203125 2.859375 -2.320312 2.546875 -2.40625 C 2.242188 -2.5 1.941406 -2.597656 1.640625 -2.703125 C 1.335938 -2.804688 1.078125 -2.972656 0.859375 -3.203125 C 0.648438 -3.429688 0.546875 -3.734375 0.546875 -4.109375 C 0.546875 -4.609375 0.734375 -4.984375 1.109375 -5.234375 C 1.484375 -5.492188 1.945312 -5.625 2.5 -5.625 Z M 2.5 -5.625 "/></g></g></g><g fill="#ffffff" fill-opacity="1"><g transform="translate(649.718387, 211.647523)"><g/></g></g><g fill="#ffffff" fill-opacity="1"><g transform="translate(653.384685, 211.647523)"><g><path d="M 1.65625 1.28125 L 1 1.28125 L 1 -8.640625 L 1.65625 -8.640625 Z M 1.65625 1.28125 "/></g></g></g><g fill="#ffffff" fill-opacity="1"><g transform="translate(656.796729, 211.647523)"><g/></g></g><g fill="#ffffff" fill-opacity="1"><g transform="translate(660.463027, 211.647523)"><g><path d="M 1.96875 -0.8125 L 5.234375 -0.8125 L 5.234375 0 L 1.125 0 L 1.125 -7.421875 L 1.96875 -7.421875 Z M 1.96875 -0.8125 "/></g></g></g><g fill="#ffffff" fill-opacity="1"><g transform="translate(666.703627, 211.647523)"><g><path d="M 1.015625 -7.59375 C 1.117188 -7.707031 1.25 -7.765625 1.40625 -7.765625 C 1.5625 -7.765625 1.691406 -7.707031 1.796875 -7.59375 C 1.898438 -7.488281 1.953125 -7.351562 1.953125 -7.1875 C 1.953125 -7.03125 1.898438 -6.894531 1.796875 -6.78125 C 1.691406 -6.675781 1.5625 -6.625 1.40625 -6.625 C 1.25 -6.625 1.117188 -6.675781 1.015625 -6.78125 C 0.921875 -6.894531 0.875 -7.03125 0.875 -7.1875 C 0.875 -7.351562 0.921875 -7.488281 1.015625 -7.59375 Z M 1.828125 0 L 1.015625 0 L 1.015625 -5.59375 L 1.828125 -5.59375 Z M 1.828125 0 "/></g></g></g><g fill="#ffffff" fill-opacity="1"><g transform="translate(670.295767, 211.647523)"><g><path d="M 3.125 0 L 2.265625 0 L 0.046875 -5.59375 L 0.921875 -5.59375 L 2.703125 -0.859375 L 4.484375 -5.59375 L 5.3125 -5.59375 Z M 3.125 0 "/></g></g></g><g fill="#ffffff" fill-opacity="1"><g transform="translate(676.335077, 211.647523)"><g><path d="M 1.828125 -5.59375 L 1.828125 -4.34375 C 2.210938 -5.1875 2.882812 -5.613281 3.84375 -5.625 L 3.84375 -4.78125 C 3.257812 -4.789062 2.789062 -4.628906 2.4375 -4.296875 C 2.082031 -3.972656 1.878906 -3.53125 1.828125 -2.96875 L 1.828125 0 L 1.015625 0 L 1.015625 -5.59375 Z M 1.828125 -5.59375 "/></g></g></g><g fill="#ffffff" fill-opacity="1"><g transform="translate(681.039571, 211.647523)"><g><path d="M 1.234375 -4.828125 C 1.765625 -5.347656 2.441406 -5.609375 3.265625 -5.609375 C 4.097656 -5.609375 4.78125 -5.347656 5.3125 -4.828125 C 5.84375 -4.304688 6.109375 -3.628906 6.109375 -2.796875 C 6.109375 -1.960938 5.84375 -1.28125 5.3125 -0.75 C 4.78125 -0.226562 4.097656 0.03125 3.265625 0.03125 C 2.441406 0.03125 1.765625 -0.226562 1.234375 -0.75 C 0.710938 -1.28125 0.453125 -1.960938 0.453125 -2.796875 C 0.453125 -3.628906 0.710938 -4.304688 1.234375 -4.828125 Z M 4.71875 -4.28125 C 4.34375 -4.664062 3.859375 -4.859375 3.265625 -4.859375 C 2.679688 -4.859375 2.203125 -4.664062 1.828125 -4.28125 C 1.453125 -3.894531 1.265625 -3.398438 1.265625 -2.796875 C 1.265625 -2.179688 1.453125 -1.675781 1.828125 -1.28125 C 2.203125 -0.894531 2.679688 -0.703125 3.265625 -0.703125 C 3.859375 -0.703125 4.34375 -0.894531 4.71875 -1.28125 C 5.09375 -1.675781 5.28125 -2.179688 5.28125 -2.796875 C 5.28125 -3.398438 5.09375 -3.894531 4.71875 -4.28125 Z M 4.71875 -4.28125 "/></g></g></g><g fill="#ffffff" fill-opacity="1"><g transform="translate(688.350148, 211.647523)"><g><path d="M 2.5 -5.625 C 3.1875 -5.625 3.78125 -5.453125 4.28125 -5.109375 L 3.953125 -4.453125 C 3.472656 -4.753906 2.96875 -4.90625 2.4375 -4.90625 C 2.101562 -4.90625 1.835938 -4.84375 1.640625 -4.71875 C 1.441406 -4.601562 1.34375 -4.421875 1.34375 -4.171875 C 1.34375 -3.941406 1.445312 -3.757812 1.65625 -3.625 C 1.875 -3.488281 2.132812 -3.375 2.4375 -3.28125 C 2.738281 -3.195312 3.039062 -3.097656 3.34375 -2.984375 C 3.65625 -2.878906 3.914062 -2.707031 4.125 -2.46875 C 4.34375 -2.226562 4.453125 -1.925781 4.453125 -1.5625 C 4.453125 -1.039062 4.253906 -0.644531 3.859375 -0.375 C 3.472656 -0.101562 2.988281 0.03125 2.40625 0.03125 C 1.519531 0.03125 0.804688 -0.226562 0.265625 -0.75 L 0.578125 -1.375 C 0.816406 -1.15625 1.101562 -0.984375 1.4375 -0.859375 C 1.769531 -0.734375 2.101562 -0.671875 2.4375 -0.671875 C 2.78125 -0.671875 3.0625 -0.738281 3.28125 -0.875 C 3.507812 -1.007812 3.628906 -1.207031 3.640625 -1.46875 C 3.648438 -1.707031 3.546875 -1.898438 3.328125 -2.046875 C 3.117188 -2.203125 2.859375 -2.320312 2.546875 -2.40625 C 2.242188 -2.5 1.941406 -2.597656 1.640625 -2.703125 C 1.335938 -2.804688 1.078125 -2.972656 0.859375 -3.203125 C 0.648438 -3.429688 0.546875 -3.734375 0.546875 -4.109375 C 0.546875 -4.609375 0.734375 -4.984375 1.109375 -5.234375 C 1.484375 -5.492188 1.945312 -5.625 2.5 -5.625 Z M 2.5 -5.625 "/></g></g></g><g fill="#ffffff" fill-opacity="1"><g transform="translate(693.912743, 211.647523)"><g/></g></g><g fill="#ffffff" fill-opacity="1"><g transform="translate(697.57904, 211.647523)"><g><path d="M 1.65625 1.28125 L 1 1.28125 L 1 -8.640625 L 1.65625 -8.640625 Z M 1.65625 1.28125 "/></g></g></g><g fill="#ffffff" fill-opacity="1"><g transform="translate(700.991084, 211.647523)"><g/></g></g><g fill="#ffffff" fill-opacity="1"><g transform="translate(704.657382, 211.647523)"><g><path d="M 5.8125 -6.609375 L 3.390625 -6.609375 L 3.390625 0 L 2.53125 0 L 2.53125 -6.609375 L 0.109375 -6.609375 L 0.109375 -7.421875 L 5.8125 -7.421875 Z M 5.8125 -6.609375 "/></g></g></g><g fill="#ffffff" fill-opacity="1"><g transform="translate(711.33232, 211.647523)"><g><path d="M 3.21875 -5.609375 C 4.101562 -5.617188 4.769531 -5.335938 5.21875 -4.765625 C 5.664062 -4.203125 5.867188 -3.4375 5.828125 -2.46875 L 1.265625 -2.46875 C 1.335938 -1.925781 1.554688 -1.492188 1.921875 -1.171875 C 2.285156 -0.847656 2.738281 -0.6875 3.28125 -0.6875 C 3.988281 -0.6875 4.566406 -0.921875 5.015625 -1.390625 L 5.46875 -0.90625 C 4.914062 -0.28125 4.164062 0.03125 3.21875 0.03125 C 2.40625 0.03125 1.738281 -0.226562 1.21875 -0.75 C 0.707031 -1.269531 0.453125 -1.945312 0.453125 -2.78125 C 0.453125 -3.625 0.707031 -4.304688 1.21875 -4.828125 C 1.738281 -5.347656 2.40625 -5.609375 3.21875 -5.609375 Z M 1.265625 -3.15625 L 5.078125 -3.15625 C 5.054688 -3.6875 4.875 -4.109375 4.53125 -4.421875 C 4.195312 -4.742188 3.757812 -4.90625 3.21875 -4.90625 C 2.6875 -4.90625 2.242188 -4.742188 1.890625 -4.421875 C 1.535156 -4.109375 1.328125 -3.6875 1.265625 -3.15625 Z M 1.265625 -3.15625 "/></g></g></g><g fill="#ffffff" fill-opacity="1"><g transform="translate(718.325071, 211.647523)"><g><path d="M 2.5 -5.625 C 3.1875 -5.625 3.78125 -5.453125 4.28125 -5.109375 L 3.953125 -4.453125 C 3.472656 -4.753906 2.96875 -4.90625 2.4375 -4.90625 C 2.101562 -4.90625 1.835938 -4.84375 1.640625 -4.71875 C 1.441406 -4.601562 1.34375 -4.421875 1.34375 -4.171875 C 1.34375 -3.941406 1.445312 -3.757812 1.65625 -3.625 C 1.875 -3.488281 2.132812 -3.375 2.4375 -3.28125 C 2.738281 -3.195312 3.039062 -3.097656 3.34375 -2.984375 C 3.65625 -2.878906 3.914062 -2.707031 4.125 -2.46875 C 4.34375 -2.226562 4.453125 -1.925781 4.453125 -1.5625 C 4.453125 -1.039062 4.253906 -0.644531 3.859375 -0.375 C 3.472656 -0.101562 2.988281 0.03125 2.40625 0.03125 C 1.519531 0.03125 0.804688 -0.226562 0.265625 -0.75 L 0.578125 -1.375 C 0.816406 -1.15625 1.101562 -0.984375 1.4375 -0.859375 C 1.769531 -0.734375 2.101562 -0.671875 2.4375 -0.671875 C 2.78125 -0.671875 3.0625 -0.738281 3.28125 -0.875 C 3.507812 -1.007812 3.628906 -1.207031 3.640625 -1.46875 C 3.648438 -1.707031 3.546875 -1.898438 3.328125 -2.046875 C 3.117188 -2.203125 2.859375 -2.320312 2.546875 -2.40625 C 2.242188 -2.5 1.941406 -2.597656 1.640625 -2.703125 C 1.335938 -2.804688 1.078125 -2.972656 0.859375 -3.203125 C 0.648438 -3.429688 0.546875 -3.734375 0.546875 -4.109375 C 0.546875 -4.609375 0.734375 -4.984375 1.109375 -5.234375 C 1.484375 -5.492188 1.945312 -5.625 2.5 -5.625 Z M 2.5 -5.625 "/></g></g></g><g fill="#ffffff" fill-opacity="1"><g transform="translate(723.887666, 211.647523)"><g><path d="M 3.21875 -5.609375 C 4.101562 -5.617188 4.769531 -5.335938 5.21875 -4.765625 C 5.664062 -4.203125 5.867188 -3.4375 5.828125 -2.46875 L 1.265625 -2.46875 C 1.335938 -1.925781 1.554688 -1.492188 1.921875 -1.171875 C 2.285156 -0.847656 2.738281 -0.6875 3.28125 -0.6875 C 3.988281 -0.6875 4.566406 -0.921875 5.015625 -1.390625 L 5.46875 -0.90625 C 4.914062 -0.28125 4.164062 0.03125 3.21875 0.03125 C 2.40625 0.03125 1.738281 -0.226562 1.21875 -0.75 C 0.707031 -1.269531 0.453125 -1.945312 0.453125 -2.78125 C 0.453125 -3.625 0.707031 -4.304688 1.21875 -4.828125 C 1.738281 -5.347656 2.40625 -5.609375 3.21875 -5.609375 Z M 1.265625 -3.15625 L 5.078125 -3.15625 C 5.054688 -3.6875 4.875 -4.109375 4.53125 -4.421875 C 4.195312 -4.742188 3.757812 -4.90625 3.21875 -4.90625 C 2.6875 -4.90625 2.242188 -4.742188 1.890625 -4.421875 C 1.535156 -4.109375 1.328125 -3.6875 1.265625 -3.15625 Z M 1.265625 -3.15625 "/></g></g></g><g fill="#ffffff" fill-opacity="1"><g transform="translate(730.880417, 211.647523)"><g><path d="M 2.5 -5.625 C 3.1875 -5.625 3.78125 -5.453125 4.28125 -5.109375 L 3.953125 -4.453125 C 3.472656 -4.753906 2.96875 -4.90625 2.4375 -4.90625 C 2.101562 -4.90625 1.835938 -4.84375 1.640625 -4.71875 C 1.441406 -4.601562 1.34375 -4.421875 1.34375 -4.171875 C 1.34375 -3.941406 1.445312 -3.757812 1.65625 -3.625 C 1.875 -3.488281 2.132812 -3.375 2.4375 -3.28125 C 2.738281 -3.195312 3.039062 -3.097656 3.34375 -2.984375 C 3.65625 -2.878906 3.914062 -2.707031 4.125 -2.46875 C 4.34375 -2.226562 4.453125 -1.925781 4.453125 -1.5625 C 4.453125 -1.039062 4.253906 -0.644531 3.859375 -0.375 C 3.472656 -0.101562 2.988281 0.03125 2.40625 0.03125 C 1.519531 0.03125 0.804688 -0.226562 0.265625 -0.75 L 0.578125 -1.375 C 0.816406 -1.15625 1.101562 -0.984375 1.4375 -0.859375 C 1.769531 -0.734375 2.101562 -0.671875 2.4375 -0.671875 C 2.78125 -0.671875 3.0625 -0.738281 3.28125 -0.875 C 3.507812 -1.007812 3.628906 -1.207031 3.640625 -1.46875 C 3.648438 -1.707031 3.546875 -1.898438 3.328125 -2.046875 C 3.117188 -2.203125 2.859375 -2.320312 2.546875 -2.40625 C 2.242188 -2.5 1.941406 -2.597656 1.640625 -2.703125 C 1.335938 -2.804688 1.078125 -2.972656 0.859375 -3.203125 C 0.648438 -3.429688 0.546875 -3.734375 0.546875 -4.109375 C 0.546875 -4.609375 0.734375 -4.984375 1.109375 -5.234375 C 1.484375 -5.492188 1.945312 -5.625 2.5 -5.625 Z M 2.5 -5.625 "/></g></g></g><g fill="#ffffff" fill-opacity="1"><g transform="translate(736.442925, 211.647523)"><g/></g></g><g fill="#ffffff" fill-opacity="1"><g transform="translate(740.10922, 211.647523)"><g/></g></g></svg>