<svg xmlns="http://www.w3.org/2000/svg" xmlns:xlink="http://www.w3.org/1999/xlink" width="1000" zoomAndPan="magnify" viewBox="0 0 750 299.999988" height="400" preserveAspectRatio="xMidYMid meet" version="1.0"><defs><g/></defs><g fill="#ae2d68" fill-opacity="1"><g transform="translate(69.251468, 159.604146)"><g><path d="M 9.53125 5.046875 L 25.585938 5.046875 L 25.585938 0 L 18.363281 0 C 24.148438 -1.507812 28.421875 -6.800781 28.421875 -13.039062 C 28.421875 -20.539062 22.394531 -26.566406 14.894531 -26.566406 C 7.429688 -26.566406 1.402344 -20.539062 1.402344 -13.039062 C 1.402344 -6.34375 6.273438 -0.769531 12.722656 0.246094 Z M 14.894531 -21.378906 C 19.3125 -21.378906 22.851562 -17.664062 22.851562 -13.039062 C 22.851562 -8.410156 19.347656 -4.765625 14.929688 -4.765625 C 10.445312 -4.765625 6.972656 -8.410156 6.972656 -13.039062 C 6.972656 -17.664062 10.445312 -21.378906 14.894531 -21.378906 Z M 14.894531 -21.378906 "/></g></g></g><g fill="#ffffff" fill-opacity="1"><g transform="translate(103.23584, 159.604146)"><g><path d="M 13.527344 0.457031 C 20.46875 0.457031 24.707031 -4.03125 24.707031 -11.636719 L 24.707031 -26.109375 L 19.347656 -26.109375 L 19.347656 -11.179688 C 19.347656 -7.253906 17.59375 -4.765625 13.527344 -4.765625 C 9.671875 -4.765625 7.675781 -7.078125 7.675781 -11.179688 L 7.675781 -26.109375 L 2.242188 -26.109375 L 2.242188 -12.089844 C 2.242188 -4.835938 5.886719 0.457031 13.527344 0.457031 Z M 13.527344 0.457031 "/></g></g></g><g fill="#ffffff" fill-opacity="1"><g transform="translate(134.38697, 159.604146)"><g><path d="M 18.679688 0 L 18.679688 -4.90625 L 7.921875 -4.90625 L 7.921875 -11.460938 L 17.734375 -11.460938 L 17.734375 -16.332031 L 7.921875 -16.332031 L 7.921875 -21.203125 L 16.367188 -21.203125 L 16.367188 -26.109375 L 2.488281 -26.109375 L 2.488281 0 Z M 18.679688 0 "/></g></g></g><g fill="#ffffff" fill-opacity="1"><g transform="translate(158.670433, 159.604146)"><g><path d="M 16.402344 -16.015625 L 2.488281 -26.566406 L 2.488281 0 L 7.921875 0 L 7.921875 -15.734375 L 16.402344 -9.601562 L 24.882812 -15.734375 L 24.882812 0 L 30.28125 0 L 30.28125 -26.566406 Z M 16.402344 -16.015625 "/></g></g></g><g fill="#ffffff" fill-opacity="1"><g transform="translate(195.673098, 159.604146)"><g/></g></g><g fill="#ae2d68" fill-opacity="1"><g transform="translate(214.622554, 159.604146)"><g><path d="M 8.761719 -11.566406 C 11.285156 -11.285156 12.6875 -9.988281 12.6875 -7.886719 C 12.6875 -6.203125 11.285156 -4.765625 9.496094 -4.765625 C 7.957031 -4.765625 6.730469 -5.152344 5.539062 -6.660156 L 1.050781 -3.363281 C 3.539062 -0.628906 6.519531 0.457031 9.496094 0.457031 C 14.089844 0.457031 18.328125 -3.1875 18.328125 -8.269531 C 18.328125 -13.316406 14.648438 -16.332031 10.199219 -16.613281 C 7.429688 -16.789062 6.554688 -17.875 6.554688 -19.066406 C 6.554688 -20.503906 7.535156 -21.378906 8.972656 -21.378906 C 9.882812 -21.378906 11.039062 -20.816406 11.742188 -20.082031 L 16.015625 -23.203125 C 14.019531 -25.585938 11.566406 -26.566406 8.972656 -26.566406 C 5.363281 -26.566406 1.296875 -23.445312 1.296875 -19.03125 C 1.296875 -14.929688 4.242188 -12.089844 8.761719 -11.566406 Z M 8.761719 -11.566406 "/></g></g></g><g fill="#ffffff" fill-opacity="1"><g transform="translate(238.306142, 159.604146)"><g><path d="M 14.929688 0.457031 C 22.394531 0.457031 28.421875 -5.609375 28.421875 -13.074219 C 28.421875 -20.539062 22.394531 -26.566406 14.894531 -26.566406 C 7.429688 -26.566406 1.402344 -20.539062 1.402344 -13.074219 C 1.402344 -5.609375 7.429688 0.457031 14.929688 0.457031 Z M 14.894531 -21.378906 C 19.3125 -21.378906 22.851562 -17.664062 22.851562 -13.074219 C 22.851562 -8.410156 19.347656 -4.765625 14.929688 -4.765625 C 10.445312 -4.765625 6.972656 -8.410156 6.972656 -13.074219 C 6.972656 -17.664062 10.445312 -21.378906 14.894531 -21.378906 Z M 14.894531 -21.378906 "/></g></g></g><g fill="#ffffff" fill-opacity="1"><g transform="translate(272.330482, 159.604146)"><g><path d="M 16.402344 -16.015625 L 2.488281 -26.566406 L 2.488281 0 L 7.921875 0 L 7.921875 -15.734375 L 16.402344 -9.601562 L 24.882812 -15.734375 L 24.882812 0 L 30.28125 0 L 30.28125 -26.566406 Z M 16.402344 -16.015625 "/></g></g></g><g fill="#ffffff" fill-opacity="1"><g transform="translate(309.333148, 159.604146)"><g><path d="M 14.929688 0.457031 C 22.394531 0.457031 28.421875 -5.609375 28.421875 -13.074219 C 28.421875 -20.539062 22.394531 -26.566406 14.894531 -26.566406 C 7.429688 -26.566406 1.402344 -20.539062 1.402344 -13.074219 C 1.402344 -5.609375 7.429688 0.457031 14.929688 0.457031 Z M 14.894531 -21.378906 C 19.3125 -21.378906 22.851562 -17.664062 22.851562 -13.074219 C 22.851562 -8.410156 19.347656 -4.765625 14.929688 -4.765625 C 10.445312 -4.765625 6.972656 -8.410156 6.972656 -13.074219 C 6.972656 -17.664062 10.445312 -21.378906 14.894531 -21.378906 Z M 14.894531 -21.378906 "/></g></g></g><g fill="#ffffff" fill-opacity="1"><g transform="translate(343.357494, 159.604146)"><g><path d="M 8.761719 -11.566406 C 11.285156 -11.285156 12.6875 -9.988281 12.6875 -7.886719 C 12.6875 -6.203125 11.285156 -4.765625 9.496094 -4.765625 C 7.957031 -4.765625 6.730469 -5.152344 5.539062 -6.660156 L 1.050781 -3.363281 C 3.539062 -0.628906 6.519531 0.457031 9.496094 0.457031 C 14.089844 0.457031 18.328125 -3.1875 18.328125 -8.269531 C 18.328125 -13.316406 14.648438 -16.332031 10.199219 -16.613281 C 7.429688 -16.789062 6.554688 -17.875 6.554688 -19.066406 C 6.554688 -20.503906 7.535156 -21.378906 8.972656 -21.378906 C 9.882812 -21.378906 11.039062 -20.816406 11.742188 -20.082031 L 16.015625 -23.203125 C 14.019531 -25.585938 11.566406 -26.566406 8.972656 -26.566406 C 5.363281 -26.566406 1.296875 -23.445312 1.296875 -19.03125 C 1.296875 -14.929688 4.242188 -12.089844 8.761719 -11.566406 Z M 8.761719 -11.566406 "/></g></g></g><g fill="#ffffff" fill-opacity="1"><g transform="translate(367.045297, 159.604146)"><g><path d="M 4.03125 -8.199219 L 8.621094 -8.199219 L 8.621094 -11.882812 C 11.953125 -12.617188 14.441406 -15.597656 14.441406 -19.066406 C 14.441406 -23.238281 11.144531 -26.566406 6.9375 -26.566406 C 4.449219 -26.566406 2.242188 -25.304688 0.910156 -23.375 L 4.519531 -20.75 C 5.011719 -21.660156 5.886719 -22.183594 6.9375 -22.183594 C 8.621094 -22.183594 9.847656 -20.957031 9.847656 -19.101562 C 9.847656 -17.59375 8.726562 -16.261719 7.183594 -16.15625 L 4.03125 -16.15625 Z M 6.308594 -4.90625 C 4.695312 -4.90625 3.609375 -3.714844 3.609375 -2.207031 C 3.609375 -0.769531 4.695312 0.457031 6.308594 0.457031 C 7.957031 0.457031 9.007812 -0.769531 9.007812 -2.207031 C 9.007812 -3.714844 7.921875 -4.90625 6.308594 -4.90625 Z M 6.308594 -4.90625 "/></g></g></g></svg>