<svg xmlns="http://www.w3.org/2000/svg" xmlns:xlink="http://www.w3.org/1999/xlink" width="1000" zoomAndPan="magnify" viewBox="0 0 750 299.999988" height="400" preserveAspectRatio="xMidYMid meet" version="1.0"><defs><g/></defs><g fill="#ae2d68" fill-opacity="1"><g transform="translate(49.507987, 137.250046)"><g><path d="M 12.546875 0 L 12.546875 -21.203125 L 19.417969 -21.203125 L 19.417969 -26.109375 L 0.664062 -26.109375 L 0.664062 -21.203125 L 7.113281 -21.203125 L 7.113281 0 Z M 12.546875 0 "/></g></g></g><g fill="#ffffff" fill-opacity="1"><g transform="translate(73.789235, 137.250046)"><g><path d="M 10.65625 -4.519531 L 14.929688 0 L 22.148438 0 L 16.507812 -6.027344 C 20.152344 -7.710938 22.394531 -11.144531 22.394531 -15.839844 C 22.394531 -21.519531 17.699219 -26.109375 11.566406 -26.109375 L 2.488281 -26.109375 L 2.488281 0 L 7.921875 0 L 7.921875 -4.519531 Z M 7.921875 -9.429688 L 7.921875 -21.203125 L 11.214844 -21.203125 C 14.929688 -21.203125 16.824219 -18.609375 16.824219 -15.421875 C 16.824219 -11.53125 14.476562 -9.429688 10.164062 -9.429688 Z M 7.921875 -9.429688 "/></g></g></g><g fill="#ffffff" fill-opacity="1"><g transform="translate(101.646687, 137.250046)"><g><path d="M 21.449219 0 L 27.371094 0 L 13.5625 -26.566406 L -0.210938 0 L 5.398438 0 L 7.078125 -3.503906 L 19.730469 -3.503906 Z M 13.351562 -16.542969 L 17.347656 -8.410156 L 9.429688 -8.410156 Z M 13.351562 -16.542969 "/></g></g></g><g fill="#ffffff" fill-opacity="1"><g transform="translate(133.008045, 137.250046)"><g><path d="M 11.601562 0 C 16.402344 0 20.851562 -3.085938 20.851562 -8.410156 C 20.851562 -10.933594 19.660156 -13.179688 17.3125 -14.789062 C 18.574219 -15.945312 19.171875 -17.382812 19.171875 -19.207031 C 19.171875 -24.078125 15.703125 -26.109375 10.863281 -26.109375 L 2.488281 -26.109375 L 2.488281 0 Z M 7.921875 -4.90625 L 7.921875 -11.636719 L 11.777344 -11.636719 C 14.019531 -11.636719 15.28125 -10.339844 15.28125 -8.234375 C 15.28125 -6.203125 14.019531 -4.90625 11.777344 -4.90625 Z M 7.921875 -16.367188 L 7.921875 -21.203125 L 10.65625 -21.203125 C 12.160156 -21.203125 13.597656 -20.78125 13.597656 -18.785156 C 13.597656 -17.699219 13.28125 -16.367188 10.65625 -16.367188 Z M 7.921875 -16.367188 "/></g></g></g><g fill="#ffffff" fill-opacity="1"><g transform="translate(159.463927, 137.250046)"><g><path d="M 21.449219 0 L 27.371094 0 L 13.5625 -26.566406 L -0.210938 0 L 5.398438 0 L 7.078125 -3.503906 L 19.730469 -3.503906 Z M 13.351562 -16.542969 L 17.347656 -8.410156 L 9.429688 -8.410156 Z M 13.351562 -16.542969 "/></g></g></g><g fill="#ffffff" fill-opacity="1"><g transform="translate(190.825285, 137.250046)"><g><path d="M 2.488281 -26.109375 L 2.488281 0 L 18.433594 0 L 18.433594 -4.90625 L 7.921875 -4.90625 L 7.921875 -26.109375 Z M 2.488281 -26.109375 "/></g></g></g><g fill="#ffffff" fill-opacity="1"><g transform="translate(213.987496, 137.250046)"><g><path d="M 2.488281 -26.109375 L 2.488281 0 L 7.921875 0 L 7.921875 -11.460938 L 19.90625 -11.460938 L 19.90625 0 L 25.339844 0 L 25.339844 -26.109375 L 19.90625 -26.109375 L 19.90625 -16.332031 L 7.921875 -16.332031 L 7.921875 -26.109375 Z M 2.488281 -26.109375 "/></g></g></g><g fill="#ffffff" fill-opacity="1"><g transform="translate(246.014608, 137.250046)"><g><path d="M 14.929688 0.457031 C 22.394531 0.457031 28.421875 -5.609375 28.421875 -13.074219 C 28.421875 -20.539062 22.394531 -26.566406 14.894531 -26.566406 C 7.429688 -26.566406 1.402344 -20.539062 1.402344 -13.074219 C 1.402344 -5.609375 7.429688 0.457031 14.929688 0.457031 Z M 14.894531 -21.378906 C 19.3125 -21.378906 22.851562 -17.664062 22.851562 -13.074219 C 22.851562 -8.410156 19.347656 -4.765625 14.929688 -4.765625 C 10.445312 -4.765625 6.972656 -8.410156 6.972656 -13.074219 C 6.972656 -17.664062 10.445312 -21.378906 14.894531 -21.378906 Z M 14.894531 -21.378906 "/></g></g></g><g fill="#ffffff" fill-opacity="1"><g transform="translate(280.038943, 137.250046)"><g><path d="M 8.761719 -11.566406 C 11.285156 -11.285156 12.6875 -9.988281 12.6875 -7.886719 C 12.6875 -6.203125 11.285156 -4.765625 9.496094 -4.765625 C 7.957031 -4.765625 6.730469 -5.152344 5.539062 -6.660156 L 1.050781 -3.363281 C 3.539062 -0.628906 6.519531 0.457031 9.496094 0.457031 C 14.089844 0.457031 18.328125 -3.1875 18.328125 -8.269531 C 18.328125 -13.316406 14.648438 -16.332031 10.199219 -16.613281 C 7.429688 -16.789062 6.554688 -17.875 6.554688 -19.066406 C 6.554688 -20.503906 7.535156 -21.378906 8.972656 -21.378906 C 9.882812 -21.378906 11.039062 -20.816406 11.742188 -20.082031 L 16.015625 -23.203125 C 14.019531 -25.585938 11.566406 -26.566406 8.972656 -26.566406 C 5.363281 -26.566406 1.296875 -23.445312 1.296875 -19.03125 C 1.296875 -14.929688 4.242188 -12.089844 8.761719 -11.566406 Z M 8.761719 -11.566406 "/></g></g></g><g fill="#ffffff" fill-opacity="1"><g transform="translate(65.175959, 179.250043)"><g><path d="M 2.488281 -26.109375 L 2.488281 0 L 13.109375 0 C 20.609375 0 26.742188 -5.574219 26.742188 -13.074219 C 26.742188 -20.503906 20.609375 -26.109375 13.074219 -26.109375 Z M 7.921875 -4.90625 L 7.921875 -21.203125 L 13.074219 -21.203125 C 17.628906 -21.203125 21.167969 -17.804688 21.167969 -13.074219 C 21.167969 -8.375 17.628906 -4.90625 13.109375 -4.90625 Z M 7.921875 -4.90625 "/></g></g></g><g fill="#ffffff" fill-opacity="1"><g transform="translate(97.518418, 179.250043)"><g><path d="M 21.449219 0 L 27.371094 0 L 13.5625 -26.566406 L -0.210938 0 L 5.398438 0 L 7.078125 -3.503906 L 19.730469 -3.503906 Z M 13.351562 -16.542969 L 17.347656 -8.410156 L 9.429688 -8.410156 Z M 13.351562 -16.542969 "/></g></g></g><g fill="#ffffff" fill-opacity="1"><g transform="translate(128.879776, 179.250043)"><g/></g></g><g fill="#ae2d68" fill-opacity="1"><g transform="translate(147.828292, 179.250043)"><g><path d="M 18.679688 0 L 18.679688 -4.90625 L 7.921875 -4.90625 L 7.921875 -11.460938 L 17.734375 -11.460938 L 17.734375 -16.332031 L 7.921875 -16.332031 L 7.921875 -21.203125 L 16.367188 -21.203125 L 16.367188 -26.109375 L 2.488281 -26.109375 L 2.488281 0 Z M 18.679688 0 "/></g></g></g><g fill="#ffffff" fill-opacity="1"><g transform="translate(172.10954, 179.250043)"><g><path d="M 9.53125 5.046875 L 25.585938 5.046875 L 25.585938 0 L 18.363281 0 C 24.148438 -1.507812 28.421875 -6.800781 28.421875 -13.039062 C 28.421875 -20.539062 22.394531 -26.566406 14.894531 -26.566406 C 7.429688 -26.566406 1.402344 -20.539062 1.402344 -13.039062 C 1.402344 -6.34375 6.273438 -0.769531 12.722656 0.246094 Z M 14.894531 -21.378906 C 19.3125 -21.378906 22.851562 -17.664062 22.851562 -13.039062 C 22.851562 -8.410156 19.347656 -4.765625 14.929688 -4.765625 C 10.445312 -4.765625 6.972656 -8.410156 6.972656 -13.039062 C 6.972656 -17.664062 10.445312 -21.378906 14.894531 -21.378906 Z M 14.894531 -21.378906 "/></g></g></g><g fill="#ffffff" fill-opacity="1"><g transform="translate(206.098839, 179.250043)"><g><path d="M 13.527344 0.457031 C 20.46875 0.457031 24.707031 -4.03125 24.707031 -11.636719 L 24.707031 -26.109375 L 19.347656 -26.109375 L 19.347656 -11.179688 C 19.347656 -7.253906 17.59375 -4.765625 13.527344 -4.765625 C 9.671875 -4.765625 7.675781 -7.078125 7.675781 -11.179688 L 7.675781 -26.109375 L 2.242188 -26.109375 L 2.242188 -12.089844 C 2.242188 -4.835938 5.886719 0.457031 13.527344 0.457031 Z M 13.527344 0.457031 "/></g></g></g><g fill="#ffffff" fill-opacity="1"><g transform="translate(237.249969, 179.250043)"><g><path d="M 7.921875 -26.109375 L 2.488281 -26.109375 L 2.488281 0 L 7.921875 0 Z M 7.921875 -26.109375 "/></g></g></g><g fill="#ffffff" fill-opacity="1"><g transform="translate(251.862625, 179.250043)"><g><path d="M 7.921875 0 L 7.921875 -3.960938 L 11.039062 -3.960938 C 17.59375 -3.960938 22.324219 -8.902344 22.324219 -15.597656 C 22.324219 -20.886719 17.804688 -26.109375 11.390625 -26.109375 L 2.488281 -26.109375 L 2.488281 0 Z M 7.921875 -8.902344 L 7.921875 -21.203125 L 11.214844 -21.203125 C 14.753906 -21.203125 16.753906 -18.085938 16.753906 -15.035156 C 16.753906 -11.671875 14.683594 -8.902344 10.898438 -8.902344 Z M 7.921875 -8.902344 "/></g></g></g><g fill="#ffffff" fill-opacity="1"><g transform="translate(279.439765, 179.250043)"><g><path d="M 18.679688 0 L 18.679688 -4.90625 L 7.921875 -4.90625 L 7.921875 -11.460938 L 17.734375 -11.460938 L 17.734375 -16.332031 L 7.921875 -16.332031 L 7.921875 -21.203125 L 16.367188 -21.203125 L 16.367188 -26.109375 L 2.488281 -26.109375 L 2.488281 0 Z M 18.679688 0 "/></g></g></g></svg>