<svg xmlns="http://www.w3.org/2000/svg" xmlns:xlink="http://www.w3.org/1999/xlink" width="500" zoomAndPan="magnify" viewBox="0 0 375 374.999991" height="500" preserveAspectRatio="xMidYMid meet" version="1.0"><defs><clipPath id="3f17e7451c"><path d="M 12.96875 12.96875 L 361.71875 12.96875 L 361.71875 361.71875 L 12.96875 361.71875 Z M 12.96875 12.96875 " clip-rule="nonzero"/></clipPath><clipPath id="b53f1724cc"><path d="M 133.59375 137 L 241.59375 137 L 241.59375 157 L 133.59375 157 Z M 133.59375 137 " clip-rule="nonzero"/></clipPath></defs><g clip-path="url(#3f17e7451c)"><path fill="#341671" d="M 361.71875 187.34375 C 361.71875 190.199219 361.648438 193.050781 361.511719 195.902344 C 361.371094 198.75 361.160156 201.597656 360.878906 204.4375 C 360.601562 207.277344 360.25 210.109375 359.832031 212.929688 C 359.414062 215.753906 358.925781 218.566406 358.371094 221.363281 C 357.8125 224.164062 357.1875 226.945312 356.496094 229.714844 C 355.800781 232.484375 355.039062 235.234375 354.210938 237.964844 C 353.382812 240.695312 352.488281 243.402344 351.527344 246.089844 C 350.566406 248.777344 349.539062 251.4375 348.445312 254.074219 C 347.355469 256.710938 346.199219 259.320312 344.976562 261.898438 C 343.757812 264.480469 342.476562 267.027344 341.128906 269.546875 C 339.785156 272.0625 338.378906 274.542969 336.910156 276.992188 C 335.445312 279.441406 333.917969 281.851562 332.332031 284.222656 C 330.746094 286.597656 329.105469 288.929688 327.40625 291.21875 C 325.703125 293.511719 323.949219 295.761719 322.140625 297.96875 C 320.328125 300.171875 318.464844 302.332031 316.546875 304.449219 C 314.632812 306.5625 312.664062 308.628906 310.648438 310.648438 C 308.628906 312.664062 306.5625 314.632812 304.449219 316.546875 C 302.332031 318.464844 300.171875 320.328125 297.96875 322.140625 C 295.761719 323.949219 293.511719 325.703125 291.21875 327.40625 C 288.929688 329.105469 286.597656 330.746094 284.222656 332.332031 C 281.851562 333.917969 279.441406 335.445312 276.992188 336.910156 C 274.542969 338.378906 272.0625 339.785156 269.546875 341.128906 C 267.027344 342.476562 264.480469 343.757812 261.898438 344.976562 C 259.320312 346.199219 256.710938 347.355469 254.074219 348.445312 C 251.4375 349.539062 248.777344 350.566406 246.089844 351.527344 C 243.402344 352.488281 240.695312 353.382812 237.964844 354.210938 C 235.234375 355.039062 232.484375 355.800781 229.714844 356.496094 C 226.945312 357.1875 224.164062 357.8125 221.363281 358.371094 C 218.566406 358.925781 215.753906 359.414062 212.929688 359.832031 C 210.109375 360.25 207.277344 360.601562 204.4375 360.878906 C 201.597656 361.160156 198.75 361.371094 195.902344 361.511719 C 193.050781 361.648438 190.199219 361.71875 187.34375 361.71875 C 184.492188 361.71875 181.640625 361.648438 178.789062 361.511719 C 175.9375 361.371094 173.09375 361.160156 170.253906 360.878906 C 167.414062 360.601562 164.582031 360.25 161.757812 359.832031 C 158.9375 359.414062 156.125 358.925781 153.328125 358.371094 C 150.527344 357.8125 147.742188 357.1875 144.976562 356.496094 C 142.207031 355.800781 139.457031 355.039062 136.726562 354.210938 C 133.996094 353.382812 131.289062 352.488281 128.601562 351.527344 C 125.914062 350.566406 123.25 349.539062 120.613281 348.445312 C 117.976562 347.355469 115.371094 346.199219 112.789062 344.976562 C 110.210938 343.757812 107.664062 342.476562 105.144531 341.128906 C 102.628906 339.785156 100.144531 338.378906 97.699219 336.910156 C 95.25 335.445312 92.839844 333.917969 90.46875 332.332031 C 88.09375 330.746094 85.761719 329.105469 83.46875 327.40625 C 81.179688 325.703125 78.929688 323.949219 76.722656 322.140625 C 74.515625 320.328125 72.355469 318.464844 70.242188 316.546875 C 68.128906 314.632812 66.0625 312.664062 64.042969 310.648438 C 62.027344 308.628906 60.058594 306.5625 58.140625 304.449219 C 56.226562 302.332031 54.363281 300.171875 52.550781 297.96875 C 50.742188 295.761719 48.984375 293.511719 47.285156 291.21875 C 45.585938 288.929688 43.941406 286.597656 42.359375 284.222656 C 40.773438 281.851562 39.246094 279.441406 37.777344 276.992188 C 36.3125 274.542969 34.90625 272.0625 33.558594 269.546875 C 32.214844 267.027344 30.933594 264.480469 29.710938 261.898438 C 28.492188 259.320312 27.335938 256.710938 26.242188 254.074219 C 25.152344 251.4375 24.125 248.777344 23.164062 246.089844 C 22.203125 243.402344 21.308594 240.695312 20.480469 237.964844 C 19.652344 235.234375 18.890625 232.484375 18.195312 229.714844 C 17.503906 226.945312 16.878906 224.164062 16.320312 221.363281 C 15.765625 218.566406 15.277344 215.753906 14.859375 212.929688 C 14.4375 210.109375 14.089844 207.277344 13.808594 204.4375 C 13.53125 201.597656 13.320312 198.75 13.179688 195.902344 C 13.039062 193.050781 12.96875 190.199219 12.96875 187.34375 C 12.96875 184.492188 13.039062 181.640625 13.179688 178.789062 C 13.320312 175.9375 13.53125 173.09375 13.808594 170.253906 C 14.089844 167.414062 14.4375 164.582031 14.859375 161.757812 C 15.277344 158.9375 15.765625 156.125 16.320312 153.328125 C 16.878906 150.527344 17.503906 147.742188 18.195312 144.976562 C 18.890625 142.207031 19.652344 139.457031 20.480469 136.726562 C 21.308594 133.996094 22.203125 131.289062 23.164062 128.601562 C 24.125 125.914062 25.152344 123.25 26.242188 120.613281 C 27.335938 117.976562 28.492188 115.371094 29.710938 112.789062 C 30.933594 110.210938 32.214844 107.664062 33.558594 105.144531 C 34.90625 102.628906 36.3125 100.144531 37.777344 97.699219 C 39.246094 95.25 40.773438 92.839844 42.359375 90.46875 C 43.941406 88.09375 45.585938 85.761719 47.285156 83.46875 C 48.984375 81.179688 50.742188 78.929688 52.550781 76.722656 C 54.363281 74.515625 56.226562 72.355469 58.140625 70.242188 C 60.058594 68.128906 62.027344 66.0625 64.042969 64.042969 C 66.0625 62.027344 68.128906 60.058594 70.242188 58.140625 C 72.355469 56.226562 74.515625 54.363281 76.722656 52.550781 C 78.929688 50.742188 81.179688 48.984375 83.46875 47.285156 C 85.761719 45.585938 88.09375 43.941406 90.46875 42.359375 C 92.839844 40.773438 95.25 39.246094 97.699219 37.777344 C 100.144531 36.3125 102.628906 34.90625 105.144531 33.558594 C 107.664062 32.214844 110.210938 30.933594 112.789062 29.710938 C 115.371094 28.492188 117.976562 27.335938 120.613281 26.242188 C 123.25 25.152344 125.914062 24.125 128.601562 23.164062 C 131.289062 22.203125 133.996094 21.308594 136.726562 20.480469 C 139.457031 19.652344 142.207031 18.890625 144.976562 18.195312 C 147.742188 17.503906 150.527344 16.878906 153.328125 16.320312 C 156.125 15.765625 158.9375 15.277344 161.757812 14.859375 C 164.582031 14.4375 167.414062 14.089844 170.253906 13.808594 C 173.09375 13.53125 175.9375 13.320312 178.789062 13.179688 C 181.640625 13.039062 184.492188 12.96875 187.34375 12.96875 C 190.199219 12.96875 193.050781 13.039062 195.902344 13.179688 C 198.75 13.320312 201.597656 13.53125 204.4375 13.808594 C 207.277344 14.089844 210.109375 14.4375 212.929688 14.859375 C 215.753906 15.277344 218.566406 15.765625 221.363281 16.320312 C 224.164062 16.878906 226.945312 17.503906 229.714844 18.195312 C 232.484375 18.890625 235.234375 19.652344 237.964844 20.480469 C 240.695312 21.308594 243.402344 22.203125 246.089844 23.164062 C 248.777344 24.125 251.4375 25.152344 254.074219 26.242188 C 256.710938 27.335938 259.320312 28.492188 261.898438 29.710938 C 264.480469 30.933594 267.027344 32.214844 269.546875 33.558594 C 272.0625 34.90625 274.542969 36.3125 276.992188 37.777344 C 279.441406 39.246094 281.851562 40.773438 284.222656 42.359375 C 286.597656 43.941406 288.929688 45.585938 291.21875 47.285156 C 293.511719 48.984375 295.761719 50.742188 297.96875 52.550781 C 300.171875 54.363281 302.332031 56.226562 304.449219 58.140625 C 306.5625 60.058594 308.628906 62.027344 310.648438 64.042969 C 312.664062 66.0625 314.632812 68.128906 316.546875 70.242188 C 318.464844 72.355469 320.328125 74.515625 322.140625 76.722656 C 323.949219 78.929688 325.703125 81.179688 327.40625 83.46875 C 329.105469 85.761719 330.746094 88.09375 332.332031 90.46875 C 333.917969 92.839844 335.445312 95.25 336.910156 97.699219 C 338.378906 100.144531 339.785156 102.628906 341.128906 105.144531 C 342.476562 107.664062 343.757812 110.210938 344.976562 112.789062 C 346.199219 115.371094 347.355469 117.976562 348.445312 120.613281 C 349.539062 123.25 350.566406 125.914062 351.527344 128.601562 C 352.488281 131.289062 353.382812 133.996094 354.210938 136.726562 C 355.039062 139.457031 355.800781 142.207031 356.496094 144.976562 C 357.1875 147.742188 357.8125 150.527344 358.371094 153.328125 C 358.925781 156.125 359.414062 158.9375 359.832031 161.757812 C 360.25 164.582031 360.601562 167.414062 360.878906 170.253906 C 361.160156 173.09375 361.371094 175.9375 361.511719 178.789062 C 361.648438 181.640625 361.71875 184.492188 361.71875 187.34375 Z M 361.71875 187.34375 " fill-opacity="1" fill-rule="nonzero"/></g><path fill="#ffffff" d="M 157.894531 261.535156 L 217.753906 261.535156 C 221.941406 261.535156 225.4375 258.253906 225.703125 254.078125 L 231.371094 161.429688 L 144.28125 161.429688 L 149.949219 254.078125 C 150.214844 258.253906 153.710938 261.535156 157.894531 261.535156 Z M 207.691406 182.371094 C 207.742188 180.890625 208.910156 179.671875 210.445312 179.777344 C 211.875 179.832031 213.039062 181.101562 212.988281 182.527344 L 210.867188 240.59375 C 210.816406 242.019531 209.652344 243.183594 208.273438 243.183594 C 208.21875 243.183594 208.167969 243.183594 208.167969 243.183594 C 206.683594 243.132812 205.570312 241.863281 205.625 240.433594 Z M 185.175781 182.421875 C 185.175781 180.996094 186.34375 179.777344 187.824219 179.777344 C 189.308594 179.777344 190.472656 180.996094 190.472656 182.421875 L 190.472656 240.539062 C 190.472656 241.96875 189.308594 243.183594 187.824219 243.183594 C 186.34375 243.183594 185.175781 241.96875 185.175781 240.539062 Z M 165.207031 179.777344 C 166.636719 179.726562 167.90625 180.890625 167.960938 182.371094 L 170.027344 240.433594 C 170.078125 241.863281 168.964844 243.132812 167.484375 243.183594 C 167.484375 243.183594 167.429688 243.183594 167.378906 243.183594 C 166 243.183594 164.835938 242.019531 164.78125 240.59375 L 162.664062 182.527344 C 162.609375 181.101562 163.777344 179.832031 165.207031 179.777344 Z M 165.207031 179.777344 " fill-opacity="1" fill-rule="nonzero"/><g clip-path="url(#b53f1724cc)"><path fill="#ffffff" d="M 241.910156 144.984375 C 241.910156 140.648438 238.363281 137.050781 233.964844 137.050781 L 141.683594 137.050781 C 137.289062 137.050781 133.738281 140.648438 133.738281 144.984375 L 133.738281 156.140625 L 241.910156 156.140625 Z M 241.910156 144.984375 " fill-opacity="1" fill-rule="nonzero"/></g><path fill="#ffffff" d="M 158.585938 131.761719 L 163.882812 131.761719 C 165.152344 124.414062 171.617188 118.753906 179.351562 118.753906 L 196.300781 118.753906 C 204.035156 118.753906 210.5 124.414062 211.769531 131.761719 L 217.121094 131.761719 C 215.796875 121.449219 206.949219 113.464844 196.300781 113.464844 L 179.351562 113.464844 C 168.703125 113.464844 159.855469 121.449219 158.585938 131.761719 Z M 158.585938 131.761719 " fill-opacity="1" fill-rule="nonzero"/></svg>